<?xml version="1.0" encoding="UTF-8"?>
<svg width="98px" height="100px" viewBox="0 0 98 100" version="1.1" xmlns="http://www.w3.org/2000/svg" xmlns:xlink="http://www.w3.org/1999/xlink">
    <!-- Generator: Sketch 61.1 (89650) - https://sketch.com -->
    <title>ill_Easily Billable</title>
    <desc>Created with Sketch.</desc>
    <g id="Page-1" stroke="none" stroke-width="1" fill="none" fill-rule="evenodd">
        <g id="Time-Tracking" transform="translate(-250.000000, -1153.000000)">
            <g id="ill_Easily-Billable" transform="translate(250.000000, 1155.000000)">
                <path d="M56.1867722,64.524496 C56.1867722,62.7900208 57.4088898,61.4483475 59.8809878,61.1976842 L59.8809878,68.2143376 C56.9208114,67.2078426 56.1867722,66.2023079 56.1867722,64.524496 Z" id="Path" stroke="#00B388" stroke-width="2.356" stroke-linecap="round" stroke-linejoin="round"></path>
                <path d="M62.922831,73.7222089 C65.8839682,74.6720406 66.7256153,75.7361594 66.7256153,77.4975257 C66.7256153,79.3971891 65.3680271,80.6562683 62.922831,80.9357436 L62.922831,73.7222089 Z" id="Path" stroke="#00B388" stroke-width="2.356" stroke-linecap="round" stroke-linejoin="round"></path>
                <path d="M51.8421055,81.7472782 C54.1768114,83.4519812 56.8391447,84.5132188 59.7186153,84.8224663 L59.7186153,87.2810802 C59.7186153,88.2337931 60.4785957,88.9886644 61.4019094,88.9886644 C62.3261839,88.9886644 63.0583016,88.2337931 63.0583016,87.2810802 L63.0583016,84.9060208 C67.9477329,84.4315851 71.2605173,81.5513574 71.2605173,77.190199 C71.2605173,72.9404465 68.762478,70.5356149 62.922831,69.0258723 L62.922831,61.4214564 C64.2266153,61.7278228 65.5303996,62.3434366 66.8889486,63.1530505 C67.2684584,63.3777832 67.648929,63.518001 68.0284388,63.518001 C69.2236545,63.518001 70.174831,62.5672089 70.174831,61.3369416 C70.174831,60.3851891 69.6310271,59.7993475 69.0334192,59.4363178 C67.2684584,58.289605 65.3401643,57.5347337 63.0583016,57.2552584 L63.0583016,56.3870604 C63.0583016,55.4381891 62.3261839,54.6823574 61.4019094,54.6823574 C60.4785957,54.6823574 59.7186153,55.4381891 59.7186153,56.3870604 L59.7186153,57.2264465 C54.9108506,57.6182881 51.6509094,60.5532584 51.6509094,64.7761198 C51.6509094,69.2486842 54.258478,71.4287832 59.8809878,72.9404465 L59.8809878,80.7407832 C57.7624584,80.3489416 55.9974976,79.4269614 54.1768114,78.0843277 C53.8242035,77.8048525 53.3630271,77.6358228 52.9008898,77.6358228 C51.7056741,77.6358228 50.7823604,78.5875752 50.7823604,79.8178426 C50.8092624,80.6831594 51.1897329,81.2997337 51.8421055,81.7472782 Z" id="Path" stroke="#00B388" stroke-width="2.356" stroke-linecap="round" stroke-linejoin="round"></path>
                <line x1="41.9420878" y1="10.3526851" x2="41.9420878" y2="55.7813386" id="Stroke-3" stroke="#00B388" stroke-width="2.356" stroke-linecap="round" stroke-linejoin="round"></line>
                <line x1="73.1402918" y1="11.1019861" x2="48.9035467" y2="11.1019861" id="Stroke-5" stroke="#00B388" stroke-width="2.356" stroke-linecap="round" stroke-linejoin="round"></line>
                <line x1="23.7921996" y1="11.1019861" x2="34.5914153" y2="11.1019861" id="Stroke-7" stroke="#00B388" stroke-width="2.356" stroke-linecap="round" stroke-linejoin="round"></line>
                <line x1="73.1402918" y1="18.3654614" x2="48.9035467" y2="18.3654614" id="Stroke-9" stroke="#00B388" stroke-width="2.356" stroke-linecap="round" stroke-linejoin="round"></line>
                <line x1="23.7921996" y1="18.3654614" x2="34.5914153" y2="18.3654614" id="Stroke-11" stroke="#00B388" stroke-width="2.356" stroke-linecap="round" stroke-linejoin="round"></line>
                <line x1="73.1402918" y1="25.6289366" x2="48.9035467" y2="25.6289366" id="Stroke-13" stroke="#00B388" stroke-width="2.356" stroke-linecap="round" stroke-linejoin="round"></line>
                <line x1="23.7921996" y1="25.6289366" x2="34.5914153" y2="25.6289366" id="Stroke-15" stroke="#00B388" stroke-width="2.356" stroke-linecap="round" stroke-linejoin="round"></line>
                <line x1="73.1402918" y1="32.8924119" x2="48.9035467" y2="32.8924119" id="Stroke-17" stroke="#00B388" stroke-width="2.356" stroke-linecap="round" stroke-linejoin="round"></line>
                <line x1="23.7921996" y1="32.8924119" x2="34.5914153" y2="32.8924119" id="Stroke-19" stroke="#00B388" stroke-width="2.356" stroke-linecap="round" stroke-linejoin="round"></line>
                <line x1="73.1402918" y1="40.1558871" x2="48.9035467" y2="40.1558871" id="Stroke-21" stroke="#00B388" stroke-width="2.356" stroke-linecap="round" stroke-linejoin="round"></line>
                <line x1="23.7921996" y1="40.1558871" x2="34.5914153" y2="40.1558871" id="Stroke-23" stroke="#00B388" stroke-width="2.356" stroke-linecap="round" stroke-linejoin="round"></line>
                <line x1="73.1402918" y1="47.4193624" x2="48.9035467" y2="47.4193624" id="Stroke-25" stroke="#00B388" stroke-width="2.356" stroke-linecap="round" stroke-linejoin="round"></line>
                <line x1="23.7921996" y1="47.4193624" x2="34.5914153" y2="47.4193624" id="Stroke-27" stroke="#00B388" stroke-width="2.356" stroke-linecap="round" stroke-linejoin="round"></line>
                <polygon id="Stroke-29" stroke="#00B388" stroke-width="2.356" stroke-linecap="round" stroke-linejoin="round" points="17.1085996 96.4977129 80.5760898 96.4977129 80.5760898 -6.82402429e-14 17.1085996 -6.82402429e-14"></polygon>
                <path d="M0.0278721543,17.2423743 L12.9206369,60.0529881 C13.1368133,60.7684832 14.1927153,60.6138594 14.1927153,59.8647505 L14.1927153,13.175097 C14.1927153,12.7400376 13.7728525,12.4279089 13.3558722,12.5527604 L0.462146664,16.4327604 C0.119146664,16.5364832 -0.0758925516,16.8995129 0.0278721543,17.2423743" id="Fill-31" fill="#A7E0FE"></path>
                <path d="M97.8007427,17.2423743 L84.907978,60.0529881 C84.6918016,60.7684832 83.6358996,60.6138594 83.6358996,59.8647505 L83.6358996,13.175097 C83.6358996,12.7400376 84.0557624,12.4279089 84.4727427,12.5527604 L97.3664682,16.4327604 C97.7094682,16.5364832 97.9045074,16.8995129 97.8007427,17.2423743" id="Fill-32" fill="#A7E0FE"></path>
            </g>
        </g>
    </g>
</svg>