<?xml version="1.0" encoding="UTF-8"?>
<svg width="93px" height="101px" viewBox="0 0 93 101" version="1.1" xmlns="http://www.w3.org/2000/svg" xmlns:xlink="http://www.w3.org/1999/xlink">
    <!-- Generator: Sketch 61.1 (89650) - https://sketch.com -->
    <title>ill_Project-Based</title>
    <desc>Created with Sketch.</desc>
    <g id="Page-1" stroke="none" stroke-width="1" fill="none" fill-rule="evenodd">
        <g id="Time-Tracking" transform="translate(-671.000000, -1151.000000)">
            <g id="ill_Project-Based" transform="translate(671.000000, 1152.000000)">
                <path d="M85.112788,55.406264 C84.813788,57.433944 84.657388,58.408224 84.135748,60.312624" id="Stroke-33" stroke="#00B388" stroke-width="2.356" stroke-linecap="round" stroke-linejoin="round"></path>
                <path d="M78.09328,87.090512 C75.73256,87.268992 73.25132,87.069352 70.73512,86.367392 C66.25656,85.117112 63.79004,84.003912 61.92152,82.324912 C61.12572,81.838232 60.3336,81.303712 59.53872,80.714912 C58.93796,80.240192 58.14952,79.954072 57.36384,79.954072 C55.32788,79.954072 53.75468,81.574192 53.75468,83.669952 C53.79884,85.092272 54.4042,86.113472 55.43828,86.867872 C52.94692,87.376632 50.36816,87.648032 47.72592,87.648032 C26.46012,87.648032 9.22116,70.409992 9.22116,49.144192 C9.22116,41.508192 11.45216,34.397512 15.2858,28.411072 C6.0076,35.339592 1.28125066e-12,46.405352 1.28125066e-12,58.875952 C1.28125066e-12,79.860232 17.00988,96.870112 37.99508,96.870112 C46.276,96.870112 53.92856,94.208552 60.17168,89.712512 C62.92984,91.021672 65.88028,91.869912 68.97976,92.202952 L68.97976,96.395392 C68.97976,98.016432 70.27604,99.302592 71.84924,99.302592 C73.42244,99.302592 74.67088,98.016432 74.67088,96.395392 L74.67088,92.345552 C77.80624,92.040112 80.56256,91.153232 82.77976,89.771392 L78.09328,87.090512 Z" id="Fill-34" fill="#A7E0FE"></path>
                <path d="M82.779576,89.771484 C85.137536,88.297644 86.874496,86.258004 87.823936,83.761124 C85.098896,85.593764 81.747336,86.812764 78.092176,87.090604 L82.779576,89.771484 Z" id="Fill-35" fill="#A7E0FE"></path>
                <path d="M66.914912,32.8739 C66.499072,32.45806 65.823792,32.45714 65.407952,32.8739 L52.180192,46.10166 C51.069752,45.29482 49.710912,44.81458 48.235232,44.81458 C44.519352,44.81458 41.497152,47.8377 41.497152,51.55358 C41.497152,55.26946 44.519352,58.29258 48.235232,58.29258 C51.951112,58.29258 54.974232,55.26946 54.974232,51.55358 C54.974232,50.07882 54.493992,48.71814 53.686232,47.6077 L66.914912,34.37994 C67.329832,33.9641 67.329832,33.28974 66.914912,32.8739" id="Fill-36" fill="#A7E0FE"></path>
                <path d="M32.857432,2.451432 L32.857432,2.451432 C32.857432,3.215952 33.477512,3.836032 34.242032,3.836032 L40.237672,3.836032 L40.237672,11.322992 L44.671152,11.322992 L44.671152,1.066832 L34.242032,1.066832 C33.477512,1.066832 32.857432,1.686912 32.857432,2.451432" id="Fill-37" fill="#A7E0FE"></path>
                <path d="M60.72828,85.39072 C32.06844,94.5898 9.0482,70.54376 9.0482,49.23104 C9.0482,27.91648 26.32488,10.63888 47.63852,10.63888 C68.95308,10.63888 85.52228,29.36456 85.65844,41.17092" id="Stroke-38" stroke="#00B388" stroke-width="2.356" stroke-linecap="round" stroke-linejoin="round"></path>
                <line x1="44.671428" y1="6.396944" x2="44.671428" y2="0.460184" id="Stroke-39" stroke="#00B388" stroke-width="2.356" stroke-linecap="round" stroke-linejoin="round"></line>
                <line x1="38.734116" y1="0.46" x2="55.697076" y2="0.46" id="Stroke-40" stroke="#00B388" stroke-width="2.356" stroke-linecap="round" stroke-linejoin="round"></line>
                <line x1="49.761052" y1="10.63796" x2="49.761052" y2="4.70028" id="Stroke-41" stroke="#00B388" stroke-width="2.356" stroke-linecap="round" stroke-linejoin="round"></line>
                <path d="M53.314368,49.230396 C53.314368,52.363916 50.772408,54.904036 47.639808,54.904036 C44.506288,54.904036 41.966168,52.363916 41.966168,49.230396 C41.966168,46.096876 44.506288,43.556756 47.639808,43.556756 C50.772408,43.556756 53.314368,46.096876 53.314368,49.230396 Z" id="Stroke-42" stroke="#00B388" stroke-width="2.356" stroke-linecap="round" stroke-linejoin="round"></path>
                <line x1="51.652296" y1="45.217908" x2="65.566376" y2="31.303828" id="Stroke-43" stroke="#00B388" stroke-width="2.356" stroke-linecap="round" stroke-linejoin="round"></line>
                <path d="M67.790936,54.426004 C67.790936,51.661404 69.737656,49.520564 73.678016,49.119444 L73.678016,60.312164 C68.960256,58.706764 67.790936,57.101364 67.790936,54.426004 Z" id="Path" stroke="#00B388" stroke-width="2.356" stroke-linecap="round" stroke-linejoin="round"></path>
                <path d="M78.529176,69.096324 C83.248776,70.612484 84.591056,72.308044 84.591056,75.116804 C84.591056,78.149124 82.425376,80.154724 78.529176,80.601844 L78.529176,69.096324 Z" id="Path" stroke="#00B388" stroke-width="2.356" stroke-linecap="round" stroke-linejoin="round"></path>
                <path d="M60.862416,81.894444 C64.586576,84.614884 68.829616,86.309524 73.418576,86.799884 L73.418576,90.723684 C73.418576,92.240764 74.632056,93.444124 76.103136,93.444124 C77.576976,93.444124 78.744456,92.240764 78.744456,90.723684 L78.744456,86.933284 C86.539616,86.175204 91.821336,81.583484 91.821336,74.626444 C91.821336,67.847884 87.838656,64.013324 78.529176,61.605684 L78.529176,49.476404 C80.607456,49.966764 82.684816,50.947484 84.851416,52.241004 C85.455856,52.597964 86.062136,52.820604 86.670256,52.820604 C88.574656,52.820604 90.088976,51.304444 90.088976,49.343004 C90.088976,47.826844 89.224176,46.890284 88.271976,46.310684 C85.455856,44.481724 82.381216,43.278364 78.744456,42.832164 L78.744456,41.450324 C78.744456,39.934164 77.576976,38.728964 76.103136,38.728964 C74.632976,38.728964 73.418576,39.934164 73.418576,41.450324 L73.418576,42.788004 C65.754056,43.411764 60.559736,48.093644 60.559736,54.828044 C60.559736,61.961724 64.715376,65.440244 73.678016,67.847884 L73.678016,80.289044 C70.301616,79.665284 67.487336,78.193284 64.586576,76.052444 C64.022616,75.607164 63.286616,75.339444 62.551536,75.339444 C60.644376,75.339444 59.174216,76.855604 59.174216,78.817044 C59.217456,80.200724 59.823736,81.181444 60.862416,81.894444 Z" id="Path" stroke="#00B388" stroke-width="2.356" stroke-linecap="round" stroke-linejoin="round"></path>
            </g>
        </g>
    </g>
</svg>