<?xml version="1.0" encoding="UTF-8"?>
<svg width="135px" height="146px" viewBox="0 0 135 146" version="1.1" xmlns="http://www.w3.org/2000/svg" xmlns:xlink="http://www.w3.org/1999/xlink">
    <!-- Generator: Sketch 61.1 (89650) - https://sketch.com -->
    <title>ill_time tracking</title>
    <desc>Created with Sketch.</desc>
    <g id="Page-1" stroke="none" stroke-width="1" fill="none" fill-rule="evenodd">
        <g id="v3_A" transform="translate(-250.000000, -4041.000000)">
            <g id="06.-Keep-Exploring" transform="translate(250.000000, 3865.000000)">
                <g id="Explore-Time-Tracking" transform="translate(0.000000, 142.000000)">
                    <g id="ill_time-tracking" transform="translate(0.000000, 27.000000)">
                        <g id="Group-32" transform="translate(-46.000000, 9.000000)">
                            <path d="M14.1297185,83.806425 C14.1297185,65.0262622 20.5376266,47.7496366 31.2596308,34 C12.2396666,48.8386472 0,71.9537746 0,97.9354589 C0,142.704332 36.2904007,179 81.061443,179 C107.058439,179 130.16766,166.753901 145,147.74891 C131.256723,158.463369 113.979261,164.870966 95.1911615,164.870966 C50.4201192,164.870966 14.1297185,128.575298 14.1297185,83.806425" id="Fill-1" fill="#A7E0FE"></path>
                            <path d="M95.4963814,0 C141.612264,0 179,36.9383775 179,82.5 C179,128.061622 141.612264,165 95.4963814,165 C49.3804984,165 12,128.061622 12,82.5 C12,36.9383775 49.3804984,0 95.4963814,0 Z" id="Stroke-3" stroke="#00B388" stroke-width="3.65" stroke-linecap="round" stroke-linejoin="round"></path>
                            <polyline id="Stroke-5" stroke="#00B388" stroke-width="3.65" stroke-linecap="round" stroke-linejoin="round" points="60 85 98 85 98 24"></polyline>
                        </g>
                    </g>
                </g>
            </g>
        </g>
    </g>
</svg>