<?xml version="1.0" encoding="UTF-8"?>
<svg width="77px" height="96px" viewBox="0 0 77 96" version="1.1" xmlns="http://www.w3.org/2000/svg" xmlns:xlink="http://www.w3.org/1999/xlink">
    <!-- Generator: Sketch 62 (91390) - https://sketch.com -->
    <title>ill_expense tracking</title>
    <desc>Created with Sketch.</desc>
    <g id="Page-1" stroke="none" stroke-width="1" fill="none" fill-rule="evenodd">
        <g id="Accounting-&amp;-Taxes" transform="translate(-250.000000, -1149.000000)">
            <g id="02.-Stay-on-top" transform="translate(250.000000, 950.000000)">
                <g id="Expense-Tracking" transform="translate(0.000000, 199.000000)">
                    <g id="ill_expense-tracking">
                        <path d="M57.7586,0.0511111111 C67.4836,0.0511111111 76.0186,8.30911111 76.0186,18.0341111 L76.0186,76.6911111 L68.1006,85.4251111 L60.1866,76.6911111 L51.6506,85.4251111 L43.2706,76.6911111 L34.8906,85.4251111 L26.8216,76.6911111 L18.4406,85.4251111 L11.5466,76.6911111 L11.5466,0.0511111111 C11.5466,0.0511111111 49.8536,-0.0638888889 57.7586,0.0511111111" id="Fill-13" fill="#B9E0FE"></path>
                        <path d="M23.5428,9.97111111 L47.8628,9.97111111 C57.5878,9.97111111 65.4718,17.8561111 65.4718,27.5801111 L65.4718,86.2381111 L57.5538,94.9711111 L49.6398,86.2381111 L41.1048,94.9711111 L32.7238,86.2381111 L24.3438,94.9711111 L16.2738,86.2381111 L7.8938,94.9711111 L1.0008,86.2381111 L1.0008,10.6051111" id="Fill-15" fill="#FFFFFF"></path>
                        <path d="M7.894,95.9707111 C7.878,95.9707111 7.862,95.9707111 7.846,95.9697111 C7.557,95.9567111 7.288,95.8177111 7.109,95.5907111 L0.215,86.8567111 C0.076,86.6797111 7.95807864e-13,86.4617111 7.95807864e-13,86.2367111 L7.95807864e-13,10.6047111 C7.95807864e-13,10.0517111 0.448,9.60471111 1,9.60471111 C1.553,9.60471111 2,10.0517111 2,10.6047111 L2,85.8897111 L7.968,93.4507111 L15.553,85.5447111 C15.743,85.3457111 16.006,85.2207111 16.284,85.2367111 C16.559,85.2397111 16.822,85.3557111 17.009,85.5577111 L24.358,93.5127111 L32.002,85.5447111 C32.379,85.1517111 33.069,85.1517111 33.446,85.5447111 L41.111,93.5337111 L48.924,85.5387111 C49.117,85.3407111 49.394,85.2347111 49.659,85.2367111 C49.934,85.2427111 50.195,85.3607111 50.381,85.5657111 L57.554,93.4817111 L64.472,85.8507111 L64.472,27.5807111 C64.472,18.4237111 57.021,10.9717111 47.863,10.9717111 L23.543,10.9717111 C22.991,10.9717111 22.543,10.5237111 22.543,9.97171111 C22.543,9.41971111 22.991,8.97171111 23.543,8.97171111 L47.863,8.97171111 C58.124,8.97171111 66.472,17.3197111 66.472,27.5807111 L66.472,86.2367111 C66.472,86.4847111 66.38,86.7247111 66.213,86.9087111 L58.295,95.6427111 C58.105,95.8517111 57.836,95.9707111 57.554,95.9707111 C57.272,95.9707111 57.003,95.8517111 56.813,95.6427111 L49.612,87.6957111 L41.82,95.6707111 C41.63,95.8637111 41.359,95.9257111 41.1,95.9707111 C40.829,95.9697111 40.57,95.8587111 40.383,95.6637111 L32.724,87.6807111 L25.066,95.6637111 C24.875,95.8627111 24.635,95.9617111 24.335,95.9707111 C24.059,95.9687111 23.797,95.8517111 23.61,95.6497111 L16.261,87.6957111 L8.616,95.6637111 C8.427,95.8607111 8.165,95.9707111 7.894,95.9707111 L7.894,95.9707111 Z" id="Fill-17" fill="#02B187"></path>
                        <path d="M29.6238,31.9173111 C29.6238,30.6593111 30.5368,29.6853111 32.3838,29.5023111 L32.3838,34.5963111 C30.1718,33.8653111 29.6238,33.1353111 29.6238,31.9173111 L29.6238,31.9173111 Z M34.6568,38.5933111 C36.8688,39.2833111 37.4978,40.0543111 37.4978,41.3333111 C37.4978,42.7123111 36.4828,43.6263111 34.6568,43.8293111 L34.6568,38.5933111 Z M26.3768,44.4173111 C28.1228,45.6553111 30.1108,46.4263111 32.2618,46.6493111 L32.2618,48.4353111 C32.2618,49.1253111 32.8308,49.6733111 33.5198,49.6733111 C34.2098,49.6733111 34.7578,49.1253111 34.7578,48.4353111 L34.7578,46.7103111 C38.4108,46.3653111 40.8868,44.2753111 40.8868,41.1093111 C40.8868,38.0253111 39.0198,36.2803111 34.6568,35.1843111 L34.6568,29.6653111 C35.6308,29.8883111 36.6048,30.3343111 37.6198,30.9233111 C37.9028,31.0853111 38.1868,31.1873111 38.4718,31.1873111 C39.3648,31.1873111 40.0748,30.4973111 40.0748,29.6043111 C40.0748,28.9143111 39.6688,28.4883111 39.2228,28.2243111 C37.9028,27.3923111 36.4628,26.8443111 34.7578,26.6413111 L34.7578,26.0123111 C34.7578,25.3223111 34.2098,24.7743111 33.5198,24.7743111 C32.8308,24.7743111 32.2618,25.3223111 32.2618,26.0123111 L32.2618,26.6213111 C28.6698,26.9053111 26.2348,29.0363111 26.2348,32.1003111 C26.2348,35.3463111 28.1838,36.9293111 32.3838,38.0253111 L32.3838,43.6873111 C30.8008,43.4023111 29.4818,42.7333111 28.1228,41.7593111 C27.8588,41.5563111 27.5138,41.4343111 27.1688,41.4343111 C26.2758,41.4343111 25.5858,42.1243111 25.5858,43.0173111 C25.6058,43.6463111 25.8898,44.0923111 26.3768,44.4173111 L26.3768,44.4173111 Z" id="Fill-19" fill="#02B187"></path>
                        <path d="M51.2815,61.5589111 L15.1905,61.5589111 C14.6385,61.5589111 14.1905,61.1109111 14.1905,60.5589111 C14.1905,60.0059111 14.6385,59.5589111 15.1905,59.5589111 L51.2815,59.5589111 C51.8335,59.5589111 52.2815,60.0059111 52.2815,60.5589111 C52.2815,61.1109111 51.8335,61.5589111 51.2815,61.5589111" id="Fill-21" fill="#02B187"></path>
                        <path d="M47.7888,69.4212111 L18.6838,69.4212111 C18.1308,69.4212111 17.6838,68.9742111 17.6838,68.4212111 C17.6838,67.8692111 18.1308,67.4212111 18.6838,67.4212111 L47.7888,67.4212111 C48.3408,67.4212111 48.7888,67.8692111 48.7888,68.4212111 C48.7888,68.9742111 48.3408,69.4212111 47.7888,69.4212111" id="Fill-23" fill="#02B187"></path>
                    </g>
                </g>
            </g>
        </g>
    </g>
</svg>