<?xml version="1.0" encoding="UTF-8"?>
<svg width="86px" height="86px" viewBox="0 0 86 86" version="1.1" xmlns="http://www.w3.org/2000/svg" xmlns:xlink="http://www.w3.org/1999/xlink">
    <!-- Generator: Sketch 62 (91390) - https://sketch.com -->
    <title>ill_profit/loss</title>
    <desc>Created with Sketch.</desc>
    <g id="Page-1" stroke="none" stroke-width="1" fill="none" fill-rule="evenodd">
        <g id="Accounting-&amp;-Taxes" transform="translate(-671.000000, -1159.000000)">
            <g id="02.-Stay-on-top" transform="translate(250.000000, 950.000000)">
                <g id="Profit-loss" transform="translate(421.000000, 209.000000)">
                    <g id="ill_profit/loss">
                        <path d="M8.666,4.0105 L8.666,4.0105 C3.881,4.0105 8.52651283e-13,7.8895 8.52651283e-13,12.6755 L8.52651283e-13,76.9835 C8.52651283e-13,81.9625 4.037,85.9995 9.018,85.9995 L81.991,85.9995 L81.991,77.3345 L8.666,77.3345 L8.666,4.0105 Z" id="Fill-1" fill="#A5E2FF"></path>
                        <path d="M8.7383,16.41 C8.1853,16.41 7.7383,15.962 7.7383,15.41 L7.7383,1 C7.7383,0.448 8.1853,-5.68434189e-14 8.7383,-5.68434189e-14 C9.2903,-5.68434189e-14 9.7383,0.448 9.7383,1 L9.7383,15.41 C9.7383,15.962 9.2903,16.41 8.7383,16.41" id="Fill-3" fill="#00B887"></path>
                        <path d="M85.001,78.2625 L8.738,78.2625 C8.186,78.2625 7.738,77.8155 7.738,77.2625 L7.738,27.7745 C7.738,27.2225 8.186,26.7745 8.738,26.7745 C9.29,26.7745 9.738,27.2225 9.738,27.7745 L9.738,76.2625 L85.001,76.2625 C85.554,76.2625 86.001,76.7105 86.001,77.2625 C86.001,77.8155 85.554,78.2625 85.001,78.2625" id="Fill-5" fill="#00B887"></path>
                        <path d="M12.5039,73.4959 C13.0189,71.4559 13.7949,69.6239 14.7809,67.9609" id="Stroke-7" stroke="#00B887" stroke-width="2" stroke-linecap="round" stroke-linejoin="round"></path>
                        <path d="M64.7305,19.1453 C64.5855,19.1453 64.4395,19.1143 64.3005,19.0473 C63.8025,18.8103 63.5905,18.2133 63.8295,17.7143 C65.3215,14.5853 66.5605,12.4833 67.8445,10.9003 C68.9685,9.5163 70.2255,8.2283 71.5815,7.0713 C72.0015,6.7133 72.6305,6.7623 72.9915,7.1823 C73.3495,7.6033 73.2995,8.2333 72.8795,8.5923 C71.6165,9.6703 70.4445,10.8713 69.3975,12.1603 C68.2165,13.6153 67.0555,15.5943 65.6335,18.5763 C65.4625,18.9353 65.1045,19.1453 64.7305,19.1453 M55.1575,38.3123 C54.9665,38.3123 54.7755,38.2593 54.6055,38.1453 C54.1455,37.8403 54.0195,37.2203 54.3255,36.7593 C56.7755,33.0683 58.7145,29.0233 60.2885,25.5523 C60.5165,25.0503 61.1075,24.8253 61.6125,25.0553 C62.1155,25.2833 62.3375,25.8753 62.1105,26.3783 C60.5035,29.9213 58.5205,34.0563 55.9915,37.8663 C55.7985,38.1563 55.4815,38.3123 55.1575,38.3123 M39.0055,51.9613 C38.6415,51.9613 38.2905,51.7623 38.1135,51.4163 C37.8625,50.9233 38.0585,50.3213 38.5505,50.0713 C41.7105,48.4583 45.3165,46.4823 48.0935,44.0453 C48.4105,43.7673 48.7205,43.4823 49.0245,43.1923 C49.4235,42.8123 50.0575,42.8263 50.4385,43.2263 C50.8195,43.6263 50.8045,44.2583 50.4045,44.6393 C50.0815,44.9493 49.7505,45.2513 49.4125,45.5483 C46.4705,48.1303 42.7295,50.1843 39.4585,51.8523 C39.3135,51.9263 39.1585,51.9613 39.0055,51.9613 M20.4085,62.5413 C20.1215,62.5413 19.8355,62.4183 19.6385,62.1793 C19.2865,61.7543 19.3445,61.1243 19.7705,60.7723 C23.2195,57.9113 27.3155,55.6843 30.8685,53.8833 C31.3625,53.6343 31.9625,53.8323 32.2125,54.3243 C32.4605,54.8163 32.2655,55.4173 31.7725,55.6673 C28.3185,57.4183 24.3435,59.5773 21.0465,62.3113 C20.8595,62.4653 20.6335,62.5413 20.4085,62.5413" id="Fill-9" fill="#00B887"></path>
                        <path d="M79.4356,3.2332 C81.3436,2.3262 83.2286,1.6122 84.9996,1.0002" id="Stroke-11" stroke="#00B887" stroke-width="2" stroke-linecap="round" stroke-linejoin="round"></path>
                    </g>
                </g>
            </g>
        </g>
    </g>
</svg>