<?xml version="1.0" encoding="UTF-8"?>
<svg width="88px" height="94px" viewBox="0 0 88 94" version="1.1" xmlns="http://www.w3.org/2000/svg" xmlns:xlink="http://www.w3.org/1999/xlink">
    <!-- Generator: Sketch 62 (91390) - https://sketch.com -->
    <title>ill_Instant Approval</title>
    <desc>Created with Sketch.</desc>
    <g id="Page-1" stroke="none" stroke-width="1" fill="none" fill-rule="evenodd">
        <g id="Proposals" transform="translate(-1092.000000, -1152.000000)">
            <g id="02.-Proposal-software" transform="translate(250.000000, 950.000000)">
                <g id="Instant-Approval" transform="translate(842.000000, 202.000000)">
                    <g id="ill_Instant-Approval">
                        <path d="M17.4436236,39.8081688 C17.4436236,32.9891965 19.7467047,26.5621192 23.9660148,21.246456 C24.0742023,21.1100766 23.9020859,20.9313725 23.757836,21.0269948 C15.4552696,26.4131991 10,35.5082973 10,45.8245402 L10,62.8531599 C10,62.9911069 10.168838,63.0506749 10.265551,62.9487822 C12.0506437,61.0770919 14.516006,59.812055 17.3026521,59.5737829 C17.3829731,59.565945 17.4436236,59.5048093 17.4436236,59.4295655 L17.4436236,39.8081688 Z" id="Fill-13" fill="#A7E0FE"></path>
                        <path d="M7.70889644,73.5743835 L7.17191124,70.3683373 C7.17191124,69.1861575 7.402499,68.0628481 7.75943623,67 C3.33720512,67.8623707 0,71.7716786 0,76.4749403 L0,79.089101 C0,80.1439936 0.848120752,81 1.8952419,81 L37.947481,81 C37.8005998,80.3158313 37.7121551,79.6109785 37.7121551,78.8838504 L37.7121551,77.9689737 L57.4510996,77.9689737 L57.4510996,78.8838504 C57.4510996,79.6109785 57.3610756,80.3158313 57.2157737,81 L77.1679328,81 C78.1803079,81 79,80.1742243 79,79.1559268 L79,75.9626094 C79,75.8782816 78.9305078,75.8098648 78.8468013,75.8098648 L8.11795282,74.4542562 L7.70889644,73.5743835 Z" id="Fill-15" fill="#A7E0FE"></path>
                        <path d="M40.2216076,85 L31.1465539,85 C31.0598998,85 30.9984541,85.0761368 31,85.164963 C31.0898348,90.0583363 35.0570198,94 39.9395877,94 C43.5128901,94 46.5709941,91.8745153 48,88.8258724 C44.8883279,88.8258724 42.1390278,87.3348608 40.3334703,85.0555164 C40.3066862,85.0206204 40.2657225,85 40.2216076,85" id="Fill-17" fill="#A7E0FE"></path>
                        <path d="M41.8675412,7.44792312 L41.2132459,7.44792312 L41.2132459,7.24488531 C40.7045273,7.10229386 40.181411,7 39.6294993,7 C36.6699728,7 34.2671573,9.20086795 34,12 C37.1243001,10.467142 40.4949608,9.47675139 44,9.03037818 C43.4272916,8.35306882 42.7058071,7.79820211 41.8675412,7.44792312" id="Fill-19" fill="#A7E0FE"></path>
                        <path d="M79.1531892,60.109518 C79.1009536,60.0525345 79.0692957,60.0192942 79.018643,59.9638935 L79.018643,41.0960238 C79.018643,36.597493 78.1100602,32.2224266 76.3213867,28.0927058 C76.1187759,27.6305063 75.5790081,27.4199839 75.1215508,27.6178433 C74.6356015,27.8283656 74.428242,28.4076979 74.6799226,28.8825604 C76.5382436,32.3933771 77.1951458,38.9005761 77.1951458,42.8704266 L77.1951458,60.8724638 L77.2980341,61.8870867 L78.0562417,61.8870867 C82.5421715,61.8870867 86.1765028,65.5229505 86.1765028,70.0072353 L86.1765028,74.0229891 C86.1765028,74.1068815 86.1100211,74.176528 86.0245447,74.176528 L78.8112835,74.176528 L8.97703822,74.176528 C8.89156179,74.176528 8.82349723,74.1068815 8.82349723,74.0229891 L8.82349723,70.5865676 C8.82349723,65.7888735 12.7253381,61.8870867 17.5215157,61.8870867 L18.5377355,61.7857827 L18.5377355,40.1478816 C18.5377355,32.0688877 21.7525991,24.5423172 27.5919057,18.9547685 C27.8815759,18.6777654 28.1965723,18.4371684 28.494157,18.1728282 C28.0905183,18.3342815 27.7074572,18.530558 27.311733,18.7094229 C27.6995427,18.5337237 28.0778551,18.340613 28.4735793,18.1807426 C28.4862425,18.175994 28.4989057,18.1680796 28.5099859,18.1585824 C31.102771,15.8697451 34.0073869,14.0747649 37.1415227,12.8432882 L37.1146135,12.8432882 C37.1320253,12.8432882 37.1494372,12.8401224 37.1668491,12.8337909 C39.563355,11.8951461 42.0896584,11.2968193 44.6919409,11.0198162 C46.1735324,10.8631116 47.6709529,10.7792192 49.1936997,10.8472828 C55.7089033,11.1353661 61.7919761,13.6014853 66.7812671,17.9828832 C67.1564137,18.3168699 67.734171,18.2804637 68.0665794,17.9005737 C68.3974048,17.5222666 68.3609982,16.9461001 67.9826858,16.6152793 C62.6815641,11.9568782 56.2106816,9.33247147 49.2760103,9.0269766 C47.3971117,8.9446671 45.5467052,9.05546834 43.7247909,9.29448247 C40.2566638,9.75193334 36.9215,10.7633905 33.8301024,12.3288538 C31.1217658,13.7012064 28.5954624,15.4724435 26.3319198,17.6362336 C25.3331119,18.5922901 24.4340264,19.619576 23.5824279,20.6769365 C23.5871766,20.6721878 23.5950911,20.6690221 23.6030055,20.6658563 C23.5871766,20.6753536 23.5745134,20.6864337 23.5634331,20.7006796 C19.1392363,26.1995873 16.7142383,32.9600463 16.7142383,40.1478816 L16.7142383,59.9607278 C16.6620027,60.0161284 16.6303447,60.0493688 16.5781091,60.1063523 C13.7716329,60.3580294 11.3038967,61.7367135 9.56429297,63.7612106 C9.53896662,63.7897024 9.52630345,63.8292743 9.52630345,63.8672633 L9.52630345,63.807114 C8.67470492,64.807491 8.0193856,65.9645726 7.58883765,67.2340383 C7.22952005,68.2929817 7,69.4089086 7,70.5865676 L7.07123036,74.3854675 C7.08864223,75.2813748 7.81994059,76 8.71744313,76 L78.988568,76 L86.3553701,76 C87.2639529,76 88,75.2623803 88,74.35381 L88,69.8521136 C88,64.7742506 84.1108223,60.5859634 79.1531892,60.109518" id="Fill-21" fill="#00B388"></path>
                        <path d="M56.1052968,79.8567033 C56.0588894,80.2741392 55.9596735,80.6738462 55.8540566,81.0703297 C54.9707153,84.3501832 52.1270603,86.7935531 48.6673068,87.0804396 C48.4432709,87.0997802 48.2272364,87.1432967 48,87.1432967 C45.9516723,87.1432967 44.0841735,86.3728938 42.6519443,85.1141392 C41.4517523,84.0600733 40.5732117,82.6610989 40.1427428,81.0703297 C40.0371259,80.6738462 39.9379101,80.2741392 39.8931029,79.8567033 L56.1052968,79.8567033 Z M38,78.9283516 C38,79.6649084 38.0880141,80.3789011 38.2384382,81.0703297 C38.5584894,82.5515018 39.2241959,83.8908425 40.1171387,85.0496703 C40.1475436,85.0899634 40.1971515,85.1141392 40.2467595,85.1141392 L40.1667467,85.1141392 C41.9990398,87.4624176 44.8090895,89 48,89 C52.7831653,89 56.7822052,85.596044 57.7599616,81.0703297 C57.9103857,80.3789011 58,79.6649084 58,78.9283516 L58,78 L38,78 L38,78.9283516 Z" id="Fill-23" fill="#00B388"></path>
                        <path d="M47.5,1.71403883 C49.7727163,1.71403883 51.670584,3.25174592 52.0974073,5.28515143 L42.9025927,5.28515143 C43.3262661,3.25174592 45.2272837,1.71403883 47.5,1.71403883 L47.5,1.71403883 Z M53.8472256,7 C53.9307003,7 54,6.9359909 54,6.85560737 L54,6.49983583 C54,3.46312482 51.8454083,0.628861216 48.6812455,0.0989253732 C44.5799612,-0.587311771 41,2.38985588 41,6.14257572 L41,7 L53.8472256,7 Z" id="Fill-25" fill="#00B388"></path>
                    </g>
                </g>
            </g>
        </g>
    </g>
</svg>