<?xml version="1.0" encoding="UTF-8"?>
<svg width="120px" height="90px" viewBox="0 0 120 90" version="1.1" xmlns="http://www.w3.org/2000/svg" xmlns:xlink="http://www.w3.org/1999/xlink">
    <!-- Generator: Sketch 62 (91390) - https://sketch.com -->
    <title>ill_Service Packages</title>
    <desc>Created with Sketch.</desc>
    <g id="Page-1" stroke="none" stroke-width="1" fill="none" fill-rule="evenodd">
        <g id="Proposals" transform="translate(-671.000000, -1154.000000)">
            <g id="02.-Proposal-software" transform="translate(250.000000, 950.000000)">
                <g id="Service-Packages" transform="translate(421.000000, 204.000000)">
                    <g id="ill_Service-Packages">
                        <path d="M5.88934584,33.1871747 L5.88934584,14 L0,14 L0,40 L26,40 L26,34.1093619 L6.81326308,34.1093619 C6.30201774,34.1093619 5.88934584,33.6967166 5.88934584,33.1871747" id="Fill-41" fill="#A7E0FE"></path>
                        <path d="M70.3580275,44 C71.3384373,43.185124 72.5994145,42.8297521 73.861968,43.0264463 C74.2654807,43.0876033 74.6421977,43.2264463 75,43.4 L75,40 L68,40 C69.3129926,40.7867769 70.2272011,42.277686 70.3580275,44" id="Fill-43" fill="#A7E0FE"></path>
                        <path d="M46.1837514,40.1461623 C48.9400218,39.4943039 51.8189749,41.2827359 52.7497274,44.2110842 L53,45 L53,38.7555311 L44.6706652,38.7555311 C44.1717557,38.7555311 43.7660851,38.3426875 43.7660851,37.8329008 L43.7660851,7 L38,7 L38,44.6489993 L42.0174482,44.6489993 C42.1270447,44.0288982 42.3102508,43.4188256 42.6177754,42.8605674 C43.3882225,41.4716077 44.6526718,40.5071916 46.1837514,40.1461623" id="Fill-45" fill="#A7E0FE"></path>
                        <path d="M64.3107498,83.9428756 C54.5341393,83.2108357 47.866521,77.1286195 46.9070793,68.0689879 C46.7248857,66.3535346 46.3604984,64.6075089 45.7871735,62.7323995 L41.4044974,48.3837366 C40.5553748,48.0134705 39.6093051,47.8877838 38.6565494,48.1102832 C35.930331,48.7523043 34.3858638,51.6040331 35.2316435,54.2502472 C35.2316435,54.2502472 38.2152731,64.0164418 39.8516728,69.3802057 C40.4032682,71.1839794 40.809443,73.016627 41.0100231,74.8951333 C41.9544213,83.8222844 48.6069961,89.2624794 57.5628995,89.9333745 C64.9409058,90.4870752 71.571751,87.5623123 75,82.1764683 C72.3255981,83.3670948 69.2968379,84.0108144 66.1243286,84.0108144 C65.5242597,84.0108144 64.9191763,83.9870358 64.3107498,83.9428756" id="Fill-47" fill="#A7E0FE"></path>
                        <path d="M62.4,39.746 L61.6,39.746 L61.6,40.254 C61.85,40.06 62.122,39.898 62.4,39.746" id="Fill-49" fill="#A7E0FE"></path>
                        <path d="M93.8120301,34.1106542 C93.8003342,34.1106542 93.7903091,34.1039712 93.7786132,34.1039712 C93.2873851,34.0855931 92.8897243,33.6862871 92.8897243,33.1884077 L92.8897243,29.6882149 C92.8897243,29.1903354 93.2873851,28.7893587 93.7786132,28.7726513 L93.7786132,18.4157563 C93.2873851,18.399049 92.8897243,17.9980722 92.8897243,17.5001928 L92.8897243,14 L87,14 L87,40 L93.7786132,40 L113,40 L113,34.1106542 L93.8120301,34.1106542 Z" id="Fill-51" fill="#A7E0FE"></path>
                        <path d="M33.0709786,5 L6.92734145,5 C6.4149517,5 6,5.4149517 6,5.92734145 L6,12.7765645 L6,32.0709786 C6,32.5833683 6.4149517,33 6.92734145,33 L26.2217556,33 L28.0226795,33 C28.5350693,33 28.950021,32.5833683 28.950021,32.0709786 C28.950021,31.5602688 28.5350693,31.1436371 28.0226795,31.1436371 L26.2217556,31.1436371 L7.85468291,31.1436371 L7.85468291,12.7765645 L7.85468291,6.85468291 L32.1436371,6.85468291 L32.1436371,24.5934481 C32.1436371,25.1041579 32.5585888,25.5207896 33.0709786,25.5207896 C33.5833683,25.5207896 34,25.1041579 34,24.5934481 L34,5.92734145 C34,5.4149517 33.5833683,5 33.0709786,5" id="Fill-53" fill="#00B388"></path>
                        <path d="M84.1257071,66.7422927 L84.1002412,67.2324544 C83.9814001,71.4113758 82.3227188,75.0432566 79.2990634,77.7316179 C78.6250649,78.3321915 77.8746687,78.8558114 77.0886201,79.3392814 C73.7203256,81.4187047 69.4301643,82.4241217 64.9040186,82.0912133 C55.9366136,81.4421254 49.8247889,76.0821318 48.9521562,68.102366 C48.7552196,66.2922807 48.3613465,64.4587748 47.7416754,62.4947821 L45.3648547,54.9482992 L43.044059,47.5808173 C42.8114701,46.8781964 42.8097724,46.1304071 43.0016158,45.4261133 C43.0848045,45.1233171 43.1951569,44.8255397 43.3530457,44.5461643 C43.8912258,43.6126822 44.7740449,42.9635944 45.845312,42.7210229 C46.1033668,42.6607982 46.3614216,42.6323588 46.6194764,42.6323588 C48.2815532,42.6323588 49.8757208,43.8033936 50.4563442,45.5599458 L54.3730051,57.4375846 L54.3730051,38.605672 L54.3730051,26.7046124 C54.3730051,25.8397196 54.7532964,25.0199952 55.4188062,24.4528798 C56.0928047,23.8790727 56.9569488,23.639847 57.8533497,23.7686609 C59.3083035,23.9794471 60.4033388,25.3595953 60.4033388,26.9756234 L60.4033388,38.605672 L60.4033388,42.6959293 L60.4627593,43.5758783 L62.168977,43.7381502 L62.3845886,42.9552298 C62.7869504,41.5031467 64.180786,40.5880666 65.7121376,40.7938341 C67.1704869,40.9845455 68.3130585,42.3964789 68.3130585,44.0091612 L68.3130585,45.4261133 L68.3130585,47.3583207 L70.1873514,47.3583207 C70.1873514,46.6406437 70.4606858,45.9631164 70.9309568,45.4261133 C71.0260296,45.3157014 71.1194047,45.2036167 71.2331525,45.1049152 C71.907151,44.532781 72.7729928,44.2902095 73.6693938,44.4190233 C74.2534126,44.5043416 74.7508472,44.8138294 75.1701863,45.215327 C75.798346,45.8125548 76.2193828,46.6607186 76.2193828,47.6276587 L76.2193828,50.8312754 L78.0936757,50.8312754 C78.0936757,49.9663825 78.4756648,49.1449853 79.1394768,48.5795427 C79.815173,48.0057357 80.6827125,47.7598184 81.575718,47.891978 C83.0289741,48.1044372 84.1257071,49.4845854 84.1257071,51.1006134 L84.1257071,66.7422927 Z M62.958421,39.5291165 C62.7241344,39.6562575 62.4915455,39.7917629 62.2793294,39.9540349 L62.2793294,39.5291165 L62.958421,39.5291165 Z M81.8507501,46.0651637 C80.4840782,45.8694336 79.1224995,46.2307815 78.0648143,47.0605433 C77.8678777,45.2354019 76.7337947,43.6846172 75.1701863,42.9719589 C74.783104,42.7946308 74.3773468,42.6557795 73.9427281,42.592209 C72.5828471,42.394806 71.2246639,42.7528081 70.1686764,43.5775512 C70.0277649,41.8343822 69.043082,40.3254202 67.6288737,39.5291165 L75.1701863,39.5291165 L82.0935254,39.5291165 C82.609635,39.5291165 83.0289741,39.1142356 83.0289741,38.605672 L83.0289741,0.923444595 C83.0289741,0.413207998 82.609635,0 82.0935254,0 L76.4146217,0 C75.8968143,0 75.4774752,0.413207998 75.4774752,0.923444595 C75.4774752,1.43368119 75.8968143,1.84688919 76.4146217,1.84688919 L81.1546812,1.84688919 L81.1546812,37.6805544 L75.1701863,37.6805544 L62.2793294,37.6805544 L62.2793294,26.9756234 C62.2793294,24.449534 60.4950162,22.2847925 58.1283818,21.9401737 C56.7090803,21.736079 55.2728015,22.1392496 54.1947436,23.0543296 C53.1166856,23.9727555 52.4970145,25.3027165 52.4970145,26.7046124 L52.4970145,37.6805544 L44.7893245,37.6805544 L44.7893245,7.74388592 L44.7893245,1.84688919 L62.9720029,1.84688919 C63.4898102,1.84688919 63.9091493,1.43368119 63.9091493,0.923444595 C63.9091493,0.413207998 63.4898102,0 62.9720029,0 L43.8521781,0 C43.3343707,0 42.9150316,0.413207998 42.9150316,0.923444595 L42.9150316,7.74388592 L42.9150316,38.605672 C42.9150316,39.1142356 43.3343707,39.5291165 43.8521781,39.5291165 L52.4970145,39.5291165 L52.4970145,45.7790966 L52.2372619,44.9894846 C51.2712541,42.0585517 48.2832509,40.2668685 45.4225775,40.9193022 C43.8352008,41.282323 42.5211585,42.2475902 41.7215281,43.6361029 C41.402355,44.1965267 41.2122094,44.8054648 41.0984615,45.4261133 C40.9354795,46.3278101 40.9660386,47.2596192 41.2563503,48.1395682 L41.5008233,48.9107783 L45.9522689,63.0434956 C46.5328923,64.8903848 46.9046949,66.610133 47.0897474,68.299769 C48.0642439,77.2230542 54.8364852,83.2137338 64.7665025,83.9347566 C65.3844759,83.9782522 65.9973561,84 66.6085385,84 C69.8308283,84 72.9071134,83.3676412 75.6217822,82.1949335 C77.4536319,81.4036485 79.1275927,80.3748108 80.5553829,79.1034016 C83.9661206,76.0670756 85.8404135,71.9801641 85.9779295,67.2792958 L86,51.1006134 C86,48.574524 84.2156867,46.4114554 81.8507501,46.0651637 L81.8507501,46.0651637 Z" id="Fill-55" fill="#00B388"></path>
                        <path d="M119.072603,5 L92.925717,5 C92.4149766,5 92,5.4149517 92,5.92734145 L92,12.7765645 L92,16.297774 C92,16.7967241 92.3981759,17.199916 92.8937958,17.2183956 C92.9055562,17.2183956 92.9156366,17.2251155 92.925717,17.2251155 C93.4381375,17.2251155 93.8547942,16.8084838 93.8547942,16.297774 L93.8547942,12.7765645 L93.8547942,6.85468291 L118.143526,6.85468291 L118.143526,31.1436371 L112.221289,31.1436371 L93.8547942,31.1436371 L93.8547942,28.5531289 C93.8547942,28.0407392 93.4381375,27.6241075 92.925717,27.6241075 C92.9156366,27.6241075 92.9055562,27.6308274 92.8937958,27.6308274 C92.3981759,27.649307 92,28.052499 92,28.5531289 L92,32.0709786 C92,32.5716086 92.3981759,32.9748005 92.8937958,32.9932801 C92.9055562,32.9932801 92.9156366,33 92.925717,33 L112.221289,33 L119.072603,33 C119.585023,33 120,32.5833683 120,32.0709786 L120,5.92734145 C120,5.4149517 119.585023,5 119.072603,5" id="Fill-57" fill="#00B388"></path>
                    </g>
                </g>
            </g>
        </g>
    </g>
</svg>