<?xml version="1.0" encoding="UTF-8"?>
<svg width="94px" height="82px" viewBox="0 0 94 82" version="1.1" xmlns="http://www.w3.org/2000/svg" xmlns:xlink="http://www.w3.org/1999/xlink">
    <!-- Generator: Sketch 62 (91390) - https://sketch.com -->
    <title>ill_Templates &amp; Branding</title>
    <desc>Created with Sketch.</desc>
    <g id="Page-1" stroke="none" stroke-width="1" fill="none" fill-rule="evenodd">
        <g id="Proposals" transform="translate(-250.000000, -1158.000000)">
            <g id="02.-Proposal-software" transform="translate(250.000000, 950.000000)">
                <g id="Templates-&amp;-Branding" transform="translate(0.000000, 208.000000)">
                    <g id="ill_Templates-&amp;-Branding">
                        <path d="M87.2592814,8.40903299 L87.2592814,74 L92.0380386,74 C93.1214413,74 94,73.1225246 94,72.0401435 L94,1.96011131 C94,0.877475392 93.1214413,0 92.0380386,0 L7.96196136,0 C6.8783036,0 6,0.877475392 6,1.96011131 L6,7.56545368 L86.415161,7.56545368 C86.8814807,7.56545368 87.2592814,7.94289808 87.2592814,8.40903299" id="Fill-1" fill="#B8DFFD"></path>
                        <polygon id="Fill-3" fill="#B8DFFD" points="38 41.9838994 38.0161003 42 50 30.0161006 49.9838997 30"></polygon>
                        <path d="M75.4101041,46.5960519 L53.1824472,24.5841695 C52.3959193,23.8052768 51.1213665,23.8052768 50.3348386,24.5841695 L35.7660761,39.0117553 L31.3031279,34.5923803 C30.5165999,33.8137368 29.2420472,33.8137368 28.4555192,34.5923803 L16.5898959,46.3428182 C15.803368,47.121711 15.803368,48.3841403 16.5898959,49.1627838 C16.7260597,49.2978749 16.8909159,49.378132 17.0514935,49.466365 L28.2740515,38.3534975 C28.5994853,38.0312228 29.1255152,38.0312228 29.450949,38.3534975 L34.5942124,43.4468328 L35.4557436,42.5936648 L37.4196724,40.6490501 L49.9985822,28.1920007 C50.3240159,27.869726 50.8502975,27.869726 51.1757313,28.1920007 L72.6961422,49.5037519 C73.0709071,49.8190476 73.5226887,50 73.9865514,50 C74.5017587,50 75.0169659,49.8053391 75.4101041,49.4157681 C76.196632,48.6368754 76.196632,47.3749446 75.4101041,46.5960519" id="Fill-5" fill="#B8DFFD"></path>
                        <path d="M37,43 C37.0434783,42.9603624 37.0998526,42.9463949 37.141857,42.9033598 L38,42.0241601 L37.9764186,42 L37,43 Z" id="Fill-7" fill="#B8DFFD"></path>
                        <path d="M87.1588194,7 L81.9077979,7 C81.443216,7 81.0666174,7.37401634 81.0666174,7.83591769 C81.0666174,8.29781904 81.443216,8.67208793 81.9077979,8.67208793 L86.3173845,8.67208793 L86.3173845,80.3276595 L79.5981113,80.3276595 L78.1952113,80.3276595 L1.68236117,80.3276595 L1.68236117,17.5616054 L1.68236117,8.67208793 L64.4698295,8.67208793 C64.9346656,8.67208793 65.3112643,8.29781904 65.3112643,7.83591769 C65.3112643,7.37401634 64.9346656,7 64.4698295,7 L0.841180584,7 C0.37685297,7 0,7.37401634 0,7.83591769 L0,17.5616054 L0,81.1638298 C0,81.6257311 0.37685297,82 0.841180584,82 L78.1952113,82 L79.5981113,82 L87.1588194,82 C87.623147,82 88,81.6257311 88,81.1638298 L88,7.83591769 C88,7.37401634 87.623147,7 87.1588194,7" id="Fill-9" fill="#02B086"></path>
                        <path d="M50.209545,27.246793 L37.4695221,39.9660174 L35.4807336,41.9515592 L34.6081852,42.8226831 L29.39915,37.6221519 C29.0695546,37.2930945 28.5367979,37.2930945 28.2072025,37.6221519 L16.8411311,48.9686498 L16.2471966,49.5618692 C15.9176011,49.8909266 15.9176011,50.4238315 16.2471966,50.7528889 C16.4121217,50.9175448 16.6277735,51 16.8431703,51 C17.0588221,51 17.2744739,50.9175448 17.4391441,50.7528889 L28.8029213,39.4091903 L34.0111918,44.6087036 C34.0114467,44.6089581 34.0117016,44.6094671 34.0119565,44.6097216 C34.0122114,44.6099761 34.0124663,44.6099761 34.0127212,44.6102306 L39.8755941,50.4632777 C40.2051896,50.792335 40.7382012,50.792335 41.0677966,50.4632777 C41.397392,50.1342203 41.397392,49.6008064 41.0677966,49.2717491 L40.2793677,48.4846072 L35.8008975,44.0134483 L37.9869843,41.8311847 L38.6624893,41.1567826 L50.8055187,29.0338314 L50.8215779,29.0501189 L72.5611108,50.7528889 C72.725781,50.9175448 72.9414328,51 73.1568297,51 C73.3724814,51 73.5881332,50.9175448 73.7528034,50.7528889 C74.0823989,50.4238315 74.0823989,49.8909266 73.7528034,49.5618692 L73.1973599,49.007078 L51.4017474,27.246793 C51.072152,26.9177357 50.5391404,26.9177357 50.209545,27.246793" id="Fill-11" fill="#02B086"></path>
                        <path d="M36,57 C36,56.4475989 35.6535571,56 35.2261762,56 L28.7738238,56 C28.3466768,56 28,56.4475989 28,57 C28,57.5520991 28.3466768,58 28.7738238,58 L35.2261762,58 C35.6535571,58 36,57.5520991 36,57" id="Fill-13" fill="#02B086"></path>
                        <path d="M49,57 C49,56.4475989 48.6535571,56 48.2261762,56 L41.7738238,56 C41.3466768,56 41,56.4475989 41,57 C41,57.5520991 41.3466768,58 41.7738238,58 L48.2261762,58 C48.6535571,58 49,57.5520991 49,57" id="Fill-15" fill="#02B086"></path>
                        <path d="M70,57 C70,57.5520991 70.346453,58 70.7738464,58 L77.2263875,58 C77.653547,58 78,57.5520991 78,57 C78,56.4475989 77.653547,56 77.2263875,56 L70.7738464,56 C70.346453,56 70,56.4475989 70,57" id="Fill-17" fill="#02B086"></path>
                        <path d="M63,57 C63,56.4475989 62.653547,56 62.2261536,56 L55.7736125,56 C55.346453,56 55,56.4475989 55,57 C55,57.5520991 55.346453,58 55.7736125,58 L62.2261536,58 C62.653547,58 63,57.5520991 63,57" id="Fill-19" fill="#02B086"></path>
                        <path d="M20.2261762,56 L13.7738238,56 C13.3466768,56 13,56.4473644 13,57.000151 C13,57.5523335 13.3466768,58 13.7738238,58 L20.2261762,58 C20.6535571,58 21,57.5523335 21,57.000151 C21,56.4473644 20.6535571,56 20.2261762,56" id="Fill-21" fill="#02B086"></path>
                        <path d="M22.7738238,63 L29.2261762,63 C29.6533232,63 30,62.552568 30,61.9996979 C30,61.447432 29.6533232,61 29.2261762,61 L22.7738238,61 C22.3466768,61 22,61.447432 22,61.9996979 C22,62.552568 22.3466768,63 22.7738238,63" id="Fill-23" fill="#02B086"></path>
                        <path d="M64.7738012,63 L71.2259649,63 C71.6533333,63 72,62.552568 72,61.9996979 C72,61.447432 71.6533333,61 71.2259649,61 L64.7738012,61 C64.3466667,61 64,61.447432 64,61.9996979 C64,62.552568 64.3466667,63 64.7738012,63" id="Fill-25" fill="#02B086"></path>
                        <path d="M35.7738238,63 L42.2261762,63 C42.6535571,63 43,62.552568 43,61.9996979 C43,61.447432 42.6535571,61 42.2261762,61 L35.7738238,61 C35.3466768,61 35,61.447432 35,61.9996979 C35,62.552568 35.3466768,63 35.7738238,63" id="Fill-27" fill="#02B086"></path>
                        <path d="M50.7738012,63 L57.2259649,63 C57.6530994,63 58,62.552568 58,61.9996979 C58,61.447432 57.6530994,61 57.2259649,61 L50.7738012,61 C50.3466667,61 50,61.447432 50,61.9996979 C50,62.552568 50.3466667,63 50.7738012,63" id="Fill-29" fill="#02B086"></path>
                    </g>
                </g>
            </g>
        </g>
    </g>
</svg>