<?xml version="1.0" encoding="UTF-8"?>
<svg width="90px" height="93px" viewBox="0 0 90 93" version="1.1" xmlns="http://www.w3.org/2000/svg" xmlns:xlink="http://www.w3.org/1999/xlink">
    <!-- Generator: Sketch 52.6 (67491) - http://www.bohemiancoding.com/sketch -->
    <title>ill_Clients &amp; Projects</title>
    <desc>Created with Sketch.</desc>
    <g id="Page-1" stroke="none" stroke-width="1" fill="none" fill-rule="evenodd">
        <g id="Forms" transform="translate(-250.000000, -1088.000000)">
            <g id="02.A-lightweight" transform="translate(250.000000, 894.000000)">
                <g id="Clients-&amp;-Projects" transform="translate(0.000000, 195.000000)">
                    <g id="ill_Clients-&amp;-Projects">
                        <path d="M6.473205,53.35884 C6.473205,48.963285 7.779645,44.879805 10.00692,41.44869 C3.988575,45.35604 2.43005616e-13,52.12251 2.43005616e-13,59.832045 L2.43005616e-13,64.303695 C2.43005616e-13,65.6811 1.11663,66.798585 2.49489,66.798585 L27.88155,66.798585 L27.88155,60.324525 L6.473205,60.324525 L6.473205,53.35884 Z" id="Fill-1" fill="#B6DEFE"></path>
                        <path d="M28.3905315,31.441086 C19.7088615,31.441086 12.6705015,24.402726 12.6705015,15.721056 C12.6705015,13.045761 13.3425315,10.529496 14.5207215,8.324451 C9.5685615,10.970676 6.1964415,16.187031 6.1964415,22.194261 C6.1964415,28.306656 9.6925365,33.592266 14.7874815,36.193176 C18.5263965,33.225471 23.2468515,31.441086 28.3905315,31.441086" id="Fill-3" fill="#B6DEFE"></path>
                        <path d="M45.8195355,40.067523 C41.8147155,34.823808 35.4979755,31.441428 28.3903605,31.441428 C16.2861255,31.441428 6.4732905,41.254263 6.4732905,53.358498 L6.4732905,60.325038 L21.9171555,60.325038" id="Stroke-5" stroke="#00B488" stroke-width="2.01438" stroke-linecap="round" stroke-linejoin="round"></path>
                        <path d="M44.11116,15.720885 C44.11116,7.03836 37.0728,4.86011231e-13 28.390275,4.86011231e-13 C19.708605,4.86011231e-13 12.670245,7.03836 12.670245,15.720885 C12.670245,24.402555 19.708605,31.440915 28.390275,31.440915 C37.0728,31.440915 44.11116,24.402555 44.11116,15.720885 Z" id="Stroke-7" stroke="#00B488" stroke-width="2.01438" stroke-linecap="round" stroke-linejoin="round"></path>
                        <path d="M83.6278065,52.2424665 C83.6705565,52.5562515 83.6996265,52.8726015 83.6996265,53.1975015 L83.6996265,78.3020115 C83.6996265,82.1922615 80.5463865,85.3463565 76.6561365,85.3463565 L34.9252965,85.3463565 C34.6003965,85.3463565 34.2831915,85.3164315 33.9702615,85.2736815 C34.4370915,88.7107815 37.3765815,91.3629915 40.9419315,91.3629915 L82.6727715,91.3629915 C86.5630215,91.3629915 89.7171165,88.2088965 89.7171165,84.3195015 L89.7171165,59.2141365 C89.7171165,55.6487865 87.0657615,52.7101515 83.6278065,52.2424665" id="Fill-9" fill="#B6DEFE"></path>
                        <path d="M49.3777035,85.3461855 L34.9453035,85.3461855 C31.0439385,85.3461855 27.8812935,82.1835405 27.8812935,78.2821755 L27.8812935,53.2178505 C27.8812935,49.3164855 31.0439385,46.1538405 34.9453035,46.1538405 L76.6359585,46.1538405 C80.5373235,46.1538405 83.6999685,49.3164855 83.6999685,53.2178505 L83.6999685,78.2821755 C83.6999685,82.1835405 80.5373235,85.3461855 76.6359585,85.3461855" id="Stroke-11" stroke="#00B488" stroke-width="2.01438" stroke-linecap="round" stroke-linejoin="round"></path>
                        <path d="M59.634369,85.3461855 L55.480779,85.3461855" id="Stroke-13" stroke="#00B488" stroke-width="2.01438" stroke-linecap="round" stroke-linejoin="round"></path>
                        <path d="M70.42122,85.3461855 L65.803365,85.3461855" id="Stroke-15" stroke="#00B488" stroke-width="2.01438" stroke-linecap="round" stroke-linejoin="round"></path>
                        <path d="M35.9418915,54.1236375 L74.8862865,54.1236375" id="Stroke-17" stroke="#00B488" stroke-width="2.01438" stroke-linecap="round" stroke-linejoin="round"></path>
                        <path d="M65.289168,61.609932 L71.015958,61.609932" id="Stroke-19" stroke="#00B488" stroke-width="2.01438" stroke-linecap="round" stroke-linejoin="round"></path>
                        <path d="M35.9418915,61.609932 L58.6737765,61.609932" id="Stroke-21" stroke="#00B488" stroke-width="2.01438" stroke-linecap="round" stroke-linejoin="round"></path>
                        <path d="M35.9418915,68.842377 L58.6737765,68.842377" id="Stroke-23" stroke="#00B488" stroke-width="2.01438" stroke-linecap="round" stroke-linejoin="round"></path>
                    </g>
                </g>
            </g>
        </g>
    </g>
</svg>