<?xml version="1.0" encoding="UTF-8"?>
<svg width="93px" height="90px" viewBox="0 0 93 90" version="1.1" xmlns="http://www.w3.org/2000/svg" xmlns:xlink="http://www.w3.org/1999/xlink">
    <!-- Generator: Sketch 52.6 (67491) - http://www.bohemiancoding.com/sketch -->
    <title>ill_Reusable Forms</title>
    <desc>Created with Sketch.</desc>
    <g id="Page-1" stroke="none" stroke-width="1" fill="none" fill-rule="evenodd">
        <g id="Forms" transform="translate(-1091.000000, -1099.000000)">
            <g id="02.A-lightweight" transform="translate(250.000000, 894.000000)">
                <g id="Reusable-Forms" transform="translate(842.000000, 206.000000)">
                    <g id="ill_Reusable-Forms">
                        <path d="M18.2172285,78.532947 C10.3982535,72.511182 4.6723185,63.909882 2.3108085,54.003852" id="Stroke-55" stroke="#00B488" stroke-width="2.01438" stroke-linecap="round" stroke-linejoin="round"></path>
                        <path d="M51.0829155,87.183153 C49.0702455,87.466158 47.0148255,87.613218 44.9243505,87.613218 C37.9321605,87.613218 31.3221555,85.975038 25.4577105,83.061198" id="Stroke-57" stroke="#00B488" stroke-width="2.01438" stroke-linecap="round" stroke-linejoin="round"></path>
                        <path d="M55.4389695,1.2702735 C71.7438195,5.2870635 84.4559595,18.4335435 87.8409045,34.9777935" id="Stroke-59" stroke="#00B488" stroke-width="2.01438" stroke-linecap="round" stroke-linejoin="round"></path>
                        <path d="M32.477517,1.79379 C36.423342,0.626715 40.600872,0 44.924607,0" id="Stroke-61" stroke="#00B488" stroke-width="2.01438" stroke-linecap="round" stroke-linejoin="round"></path>
                        <polyline id="Stroke-63" stroke="#00B488" stroke-width="2.01438" stroke-linecap="round" stroke-linejoin="round" points="5.83213478e-13 56.808936 2.155455 53.310276 5.65497 55.467441"></polyline>
                        <polyline id="Stroke-65" stroke="#00B488" stroke-width="2.01438" stroke-linecap="round" stroke-linejoin="round" points="90.1365795 31.7087865 87.9811245 35.2074465 84.4816095 33.0511365"></polyline>
                        <path d="M68.424282,56.9249595 L68.424282,25.0445745 C68.424282,22.7531745 66.566367,20.8952595 64.274967,20.8952595 L63.164322,20.8952595 L63.164322,51.6649995 C66.627927,53.4416895 69.003117,57.0403845 69.003117,61.2008145 C69.003117,67.1208345 64.203147,71.9199495 58.283982,71.9199495 C54.322767,71.9199495 50.872842,69.7662045 49.017492,66.5710695 L24.626052,66.5710695 L24.626052,67.6825695 C24.626052,69.9739695 26.483967,71.8310295 28.775367,71.8310295 L54.276597,71.8310295 C56.132802,75.0261645 59.582727,77.1799095 63.543942,77.1799095 C69.463962,77.1799095 74.263077,72.3807945 74.263077,66.4607745 C74.263077,62.3003445 71.887887,58.7016495 68.424282,56.9249595" id="Fill-67" fill="#B6DEFE"></path>
                        <path d="M63.0913905,34.691283 L63.0913905,39.732363" id="Stroke-69" stroke="#00B488" stroke-width="2.01438" stroke-linecap="round" stroke-linejoin="round"></path>
                        <path d="M63.0913905,45.5912505 L63.0913905,62.3620755 C63.0913905,64.6466355 61.2394605,66.4985655 58.9557555,66.4985655 L23.4287955,66.4985655 C21.1442355,66.4985655 19.2931605,64.6466355 19.2931605,62.3620755 L19.2931605,19.6984305 C19.2931605,17.4147255 21.1442355,15.5627955 23.4287955,15.5627955 L58.9557555,15.5627955 C61.2394605,15.5627955 63.0913905,17.4147255 63.0913905,19.6984305 L63.0913905,28.8862605" id="Stroke-71" stroke="#00B488" stroke-width="2.01438" stroke-linecap="round" stroke-linejoin="round"></path>
                        <path d="M28.25262,24.4859175 L53.315235,24.4859175" id="Stroke-73" stroke="#00B488" stroke-width="2.01438" stroke-linecap="round" stroke-linejoin="round"></path>
                        <path d="M68.930271,61.128225 C68.930271,67.048245 64.131156,71.84736 58.211136,71.84736 C52.291116,71.84736 47.492001,67.048245 47.492001,61.128225 C47.492001,55.208205 52.291116,50.40909 58.211136,50.40909 C64.131156,50.40909 68.930271,55.208205 68.930271,61.128225" id="Fill-75" fill="#FFFFFF"></path>
                        <path d="M68.930271,61.128225 C68.930271,67.048245 64.131156,71.84736 58.211136,71.84736 C52.291116,71.84736 47.492001,67.048245 47.492001,61.128225 C47.492001,55.208205 52.291116,50.40909 58.211136,50.40909 C64.131156,50.40909 68.930271,55.208205 68.930271,61.128225 Z" id="Stroke-77" stroke="#00B488" stroke-width="2.01438" stroke-linecap="round" stroke-linejoin="round"></path>
                        <g id="Group-82" transform="translate(52.402181, 57.101175)">
                            <polyline id="Fill-79" fill="#FFFFFF" points="0.1043955 3.7949175 3.9339405 7.6244625 11.0449755 0.5125725"></polyline>
                            <polyline id="Stroke-81" stroke="#00B488" stroke-width="2.01438" stroke-linecap="round" stroke-linejoin="round" points="0.1043955 3.7949175 3.9339405 7.6244625 11.0449755 0.5125725"></polyline>
                        </g>
                        <path d="M28.25262,30.914748 L53.315235,30.914748" id="Stroke-83" stroke="#00B488" stroke-width="2.01438" stroke-linecap="round" stroke-linejoin="round"></path>
                        <path d="M28.25262,37.447461 L39.38643,37.447461" id="Stroke-85" stroke="#00B488" stroke-width="2.01438" stroke-linecap="round" stroke-linejoin="round"></path>
                        <path d="M44.0809785,37.447461 L48.7877535,37.447461" id="Stroke-87" stroke="#00B488" stroke-width="2.01438" stroke-linecap="round" stroke-linejoin="round"></path>
                        <path d="M28.25262,43.9284465 L43.115085,43.9284465" id="Stroke-89" stroke="#00B488" stroke-width="2.01438" stroke-linecap="round" stroke-linejoin="round"></path>
                        <path d="M28.25262,50.4093465 L40.21749,50.4093465" id="Stroke-91" stroke="#00B488" stroke-width="2.01438" stroke-linecap="round" stroke-linejoin="round"></path>
                    </g>
                </g>
            </g>
        </g>
    </g>
</svg>