<?xml version="1.0" encoding="UTF-8"?>
<svg width="64px" height="95px" viewBox="0 0 64 95" version="1.1" xmlns="http://www.w3.org/2000/svg" xmlns:xlink="http://www.w3.org/1999/xlink">
    <!-- Generator: Sketch 61.1 (89650) - https://sketch.com -->
    <title>ill_Global Payments</title>
    <desc>Created with Sketch.</desc>
    <g id="Page-1" stroke="none" stroke-width="1" fill="none" fill-rule="evenodd">
        <g id="Invoicing-&amp;-Payments" transform="translate(-671.000000, -1144.000000)">
            <g id="02.Start-using-smart-invoices" transform="translate(250.000000, 950.000000)">
                <g id="Global-Payments" transform="translate(421.000000, 195.000000)">
                    <g id="ill_Global-Payments">
                        <path d="M42,79.592 L42,81.448 C43.8277154,80.66 45.505618,79.684 47,78.552 C45.4157303,79.008 43.752809,79.36 42,79.592" id="Fill-15" fill="#A7E0FE"></path>
                        <path d="M32,46.8707885 C28.3538227,45.886896 25.8014986,44.9834705 23.2344425,43.8057255 C19.1757684,41.9513259 15.8647447,39.5921784 13.7838456,36.9257931 C11.8686817,34.4825209 11.7139954,32.7159035 11.2536195,29.3436027 C11.1026162,28.2499824 11.0363221,27.2258564 11.0363221,25.9969051 C11.0363221,21.3919955 11.4414529,17.3284097 14.1447803,14 C7.23177546,17.2954913 3,23.2866287 3,30.8944222 C3,42.50728 10.012446,48.1655764 25.1385573,52.0828585 L25.1385573,63.5677006 C27.4183388,64.6722937 29.6686563,65.4733066 32,66 L32,46.8707885 Z" id="Fill-17" fill="#A7E0FE"></path>
                        <path d="M30.8765473,84.5027933 L30.8765473,79.0614525 C23.420542,78.1005587 16.4723988,75.3407821 10.2124456,70.849162 C8.07059217,69.4003724 6.94078287,67.3668529 6.85981934,64.8156425 C6.85981934,64.603352 6.89662094,64.4096834 6.91502175,64.2160149 C6.51020408,64.1154562 6.11274674,64 5.69320843,64 C2.48042824,64 0,66.5102421 0,69.7616387 C0.0736032118,72.0521415 1.09668786,73.6834264 2.8484443,74.8603352 C9.12679826,79.3668529 16.2810304,82.1750466 24.0204082,82.990689 L24.0204082,89.4897579 C24.0204082,92.0074488 26.0592171,94 28.5470057,94 C31.0274339,94 33,92.0074488 33,89.4897579 L33,88.9050279 C31.715624,87.8510242 30.8765473,86.2867784 30.8765473,84.5027933" id="Fill-19" fill="#A7E0FE"></path>
                        <path d="M42,18 L42,25.2328086 C42.5247633,25.5012428 43.0495266,25.7547639 43.5823015,26.038111 C44.6919155,26.6309031 45.8055353,27 46.9191551,27 C49.8954843,27 52.3350328,25.1694283 53,22.6230323 C52.5673707,22.4589892 52.1427531,22.3247722 51.6860889,22.0824358 C48.0528041,20.1139188 44.9242535,18.7978459 42,18" id="Fill-21" fill="#A7E0FE"></path>
                        <path d="M29.3469516,4.946 C27.5254557,4.946 25.9767442,5.806 25,7.054 C27.204274,6.434 29.5053426,5.926 32,5.67 C31.2080453,5.25 30.336895,4.946 29.3469516,4.946" id="Fill-23" fill="#A7E0FE"></path>
                        <path d="M32,34 L32,18 C28.5093935,18.6068171 26.1234568,20.1699472 25,22.4551128 L25,29.2222756 C25.9355878,30.9851176 27.942029,32.4714354 32,34" id="Fill-25" fill="#A7E0FE"></path>
                        <path d="M50,59.3727464 C50,55.8026223 48.6760168,53.3488644 42,51 L42,60.0732849 C42.7255727,61.3320066 43.0359981,62.740576 43.0359981,64.3926481 C43.0359981,65.3329431 42.8676952,66.1833294 42.6096307,67 C45.9756896,66.2732381 50,64.3701709 50,59.3727464" id="Fill-27" fill="#A7E0FE"></path>
                        <path d="M22.5166466,25.5335661 C22.5166466,21.0360312 25.8001738,17.5550123 32.4297366,16.900493 L32.4297366,35.1100247 C24.4838214,32.4956039 22.5166466,29.8848398 22.5166466,25.5335661 Z M40.6073004,49.3997535 C48.5568926,51.8642564 50.8145474,54.6212818 50.8145474,59.1919474 C50.8145474,64.1209532 47.1706779,67.3862366 40.6073004,68.1138866 L40.6073004,49.3997535 Z M22.5129696,43.9880855 C25.3148148,45.2751849 28.6167268,46.3758012 32.4297366,47.3667214 L32.4297366,67.6019721 C26.7414761,66.5891126 22.0018719,64.1977403 17.1188662,60.7167214 C16.166533,59.985415 14.9310737,59.5539441 13.6919374,59.5539441 C10.4819495,59.5539441 8,62.018447 8,65.2105998 C8.07353924,67.4593673 9.09573472,69.057272 10.8459687,70.2163928 C17.1188662,74.640797 24.2668806,77.3978225 31.999532,78.1949466 L31.999532,84.5755957 C31.999532,87.0474117 34.040246,89 36.5221955,89 C38.996791,89 40.9713197,87.0474117 40.9713197,84.5755957 L40.9713197,78.410682 C54.1017516,77.1820871 63,69.7117913 63,58.3948233 C63,56.723788 62.8455676,55.1661052 62.5330258,53.7108053 C61.2902126,47.9663928 57.5397112,43.7979458 50.8145474,40.667954 C47.9649017,39.3406327 44.5710657,38.1997946 40.6073004,37.2125308 L40.6073004,17.4818817 C44.1077684,18.2790058 47.6082364,19.8769104 51.2484289,21.9794166 C52.2779783,22.5608053 53.2964969,22.922802 54.3150154,22.922802 C57.5250033,22.922802 60.080492,20.4546426 60.080492,17.2624897 C60.080492,14.7979869 58.6170611,13.2732128 57.0175826,12.3298274 C52.2779783,9.35706656 47.1008156,7.40082169 40.9713197,6.67317173 L40.9713197,4.42440427 C40.9713197,1.9599014 38.996791,0 36.5221955,0 C34.040246,0 31.999532,1.9599014 31.999532,4.42440427 L31.999532,6.60004108 C19.0860409,7.61655711 10.334871,15.2331142 10.334871,26.1844289 C10.334871,27.3618324 10.4047333,28.4734182 10.5518117,29.5301561" id="Stroke-29" stroke="#00B388" stroke-width="2" stroke-linecap="round" stroke-linejoin="round"></path>
                    </g>
                </g>
            </g>
        </g>
    </g>
</svg>