<?xml version="1.0" encoding="UTF-8"?>
<svg width="99px" height="103px" viewBox="0 0 99 103" version="1.1" xmlns="http://www.w3.org/2000/svg" xmlns:xlink="http://www.w3.org/1999/xlink">
    <!-- Generator: Sketch 61.1 (89650) - https://sketch.com -->
    <title>ill_Pro Features</title>
    <desc>Created with Sketch.</desc>
    <g id="Page-1" stroke="none" stroke-width="1" fill="none" fill-rule="evenodd">
        <g id="Invoicing-&amp;-Payments" transform="translate(-1085.000000, -1140.000000)">
            <g id="02.Start-using-smart-invoices" transform="translate(250.000000, 950.000000)">
                <g id="Pro-Features" transform="translate(836.000000, 191.000000)">
                    <g id="ill_Pro-Features">
                        <path d="M52.2751231,91.4462 C48.6222,72.6964308 49.8004308,79.4682 48.1737385,70.1279692 C47.7048923,67.4249692 45.1282769,61.3340462 42.5475846,64.9706615 C39.9668923,68.5991231 45.8580462,75.6195846 55.1860462,66.4954308 C61.5297385,60.2781231 59.0183538,57.2408154 55.1860462,57.2408154 L54.3217385,57.2408154 C50.5872769,57.2530462 47.9739692,60.2781231 54.3217385,66.4954308 C63.6497385,75.6195846 69.5327385,68.5991231 66.9602,64.9706615 C64.3835846,61.3340462 61.8028923,67.4249692 61.3381231,70.1279692 C60.8611231,72.8228154 57.2367385,91.4462 57.2367385,91.4462" id="Stroke-31" stroke="#FFFFFF" stroke-width="0.65" stroke-linecap="round" stroke-linejoin="round"></path>
                        <path d="M42.3535231,92.2024692 L67.2105231,92.2024692 L67.2105231,84.3503154 L76.5426,84.3503154 C79.6084462,84.3503154 82.0872154,81.8756231 82.0872154,78.8138538 L82.0872154,67.6716231 L88.1332923,67.6716231 C88.1332923,67.6716231 81.5735231,58.9714692 81.5735231,51.4740077 C81.5735231,31.4685462 61.4376,16.1556231 40.3232154,24.7090077 C34.0202923,27.2652385 28.9771385,32.2798538 26.1640615,38.4727 C19.7918308,52.5380846 24.4802923,64.7892385 32.7809077,73.0980077 C41.2853692,81.6024692 42.3535231,84.7947 42.3535231,92.2024692 Z" id="Stroke-33" stroke="#00B388" stroke-width="0.65" stroke-linecap="round" stroke-linejoin="round"></path>
                        <line x1="44.9097538" y1="96.3947692" x2="64.5972154" y2="96.3947692" id="Stroke-35" stroke="#00B388" stroke-width="2" stroke-linecap="round" stroke-linejoin="round"></line>
                        <line x1="46.6298077" y1="100.515723" x2="62.8763462" y2="100.515723" id="Stroke-37" stroke="#00B388" stroke-width="2" stroke-linecap="round" stroke-linejoin="round"></line>
                        <line x1="51.1645692" y1="-3.11409018e-13" x2="51.1645692" y2="13.1195385" id="Stroke-39" stroke="#A7E0FE" stroke-width="1.5" stroke-linecap="round" stroke-linejoin="round" stroke-dasharray="3,3"></line>
                        <line x1="87.9282231" y1="51.5547308" x2="99.5923" y2="51.5547308" id="Stroke-41" stroke="#A7E0FE" stroke-width="1.5" stroke-linecap="round" stroke-linejoin="round" stroke-dasharray="3,3"></line>
                        <line x1="8.31389658e-12" y1="51.5547308" x2="11.8026923" y2="51.5547308" id="Stroke-43" stroke="#A7E0FE" stroke-width="1.5" stroke-linecap="round" stroke-linejoin="round" stroke-dasharray="3,3"></line>
                        <line x1="77.2462769" y1="24.4056846" x2="85.5835846" y2="16.0724538" id="Stroke-45" stroke="#A7E0FE" stroke-width="1.5" stroke-linecap="round" stroke-linejoin="round" stroke-dasharray="3,3"></line>
                        <line x1="22.9644923" y1="24.4774385" x2="14.5048769" y2="16.0178231" id="Stroke-47" stroke="#A7E0FE" stroke-width="1.5" stroke-linecap="round" stroke-linejoin="round" stroke-dasharray="3,3"></line>
                        <line x1="32.9178923" y1="4.08874615" x2="36.5871231" y2="18.0970538" id="Stroke-49" stroke="#A7E0FE" stroke-width="1.5" stroke-linecap="round" stroke-linejoin="round" stroke-dasharray="3,3"></line>
                        <line x1="85.3883" y1="38.0699" x2="96.3022231" y2="33.9399769" id="Stroke-51" stroke="#A7E0FE" stroke-width="1.5" stroke-linecap="round" stroke-linejoin="round" stroke-dasharray="3,3"></line>
                        <line x1="65.7880846" y1="16.4589462" x2="72.5965462" y2="1.85540769" id="Stroke-53" stroke="#A7E0FE" stroke-width="1.5" stroke-linecap="round" stroke-linejoin="round" stroke-dasharray="3,3"></line>
                        <line x1="15.0454769" y1="35.7468692" x2="4.13155385" y2="30.8301" id="Stroke-55" stroke="#A7E0FE" stroke-width="1.5" stroke-linecap="round" stroke-linejoin="round" stroke-dasharray="3,3"></line>
                        <path d="M42.3535231,92.2024692 L67.2105231,92.2024692 L67.2105231,84.3503154 L76.5426,84.3503154 C79.6084462,84.3503154 82.0872154,81.8756231 82.0872154,78.8138538 L82.0872154,67.6716231 L88.1332923,67.6716231 C88.1332923,67.6716231 81.5735231,58.9714692 81.5735231,51.4740077 C81.5735231,31.4685462 61.4376,16.1556231 40.3232154,24.7090077 C34.0202923,27.2652385 28.9771385,32.2798538 26.1640615,38.4727 C19.7918308,52.5380846 24.4802923,64.7892385 32.7809077,73.0980077 C41.2853692,81.6024692 42.3535231,84.7947 42.3535231,92.2024692 Z" id="Stroke-57" stroke="#00B388" stroke-width="2" stroke-linecap="round" stroke-linejoin="round"></path>
                        <path d="M65.2825462,68.8437385 C66.2773154,67.9916615 66.5341615,66.6625846 65.8777769,65.7330462 C65.5475462,65.2764308 65.3559308,65.1908154 65.2703154,65.1745077 C64.5242385,65.3416615 63.3093154,67.6084308 62.7915462,69.6509692 L62.8486231,69.6509692 C63.8841615,69.6509692 64.6995462,69.3370462 65.2825462,68.8437385" id="Fill-59" fill="#A7E0FE"></path>
                        <path d="M41.0277077,92.1788231 C41.0277077,85.4070538 40.2979385,82.4920538 31.8505538,74.0405923 C21.6786308,63.8686692 19.1713231,50.7042846 24.9646308,37.9231308 C26.6035538,34.3109769 29.0089385,31.1105923 31.9076308,28.4972846 C26.4364,31.2247462 22.0088615,35.7623615 19.4689385,41.3599769 C13.0885538,55.4172077 17.7851692,67.6724385 26.0898615,75.9771308 C33.8849385,83.7722077 35.4300923,87.1071308 35.6339385,93.3122077 C35.6665538,94.3069769 36.5104769,95.0856692 37.5052462,95.0856692 L60.5072462,95.0856692 L60.5072462,93.5282846 L42.3527077,93.5282846 C41.6229385,93.5282846 41.0277077,92.9167462 41.0277077,92.1788231" id="Fill-61" fill="#A7E0FE"></path>
                        <path d="M44.2366538,65.1692077 L44.2285,65.1692077 C44.1551154,65.1692077 43.9349615,65.2996692 43.6291923,65.7399769 C42.9687308,66.6572846 43.2296538,67.9945154 44.2244231,68.8425154 C44.8033462,69.3358231 45.6228077,69.6579 46.6542692,69.6579 L46.7031923,69.6579 C46.1650385,67.5419769 44.9664231,65.3322846 44.2366538,65.1692077" id="Fill-63" fill="#A7E0FE"></path>
                        <path d="M27.3757231,39.0214538 C20.1024923,55.0600692 28.2318769,66.6711462 33.7234923,72.1668385 C41.8691846,80.3043769 43.4999538,83.9573 43.6630308,90.8799154 L50.8139538,90.8799154 C49.3992615,83.6637615 48.7510308,80.4226077 48.3637231,78.5390692 C47.8908,76.1663 47.8296462,75.8605308 47.2099538,72.3054538 C45.2530308,72.4196077 43.6548769,71.8447615 42.5051846,70.8622231 C40.4585692,69.1173 40.0141846,66.2512231 41.4696462,64.2005308 C42.7294154,62.4229923 44.1114923,62.4189154 44.8168,62.5860692 C47.3200308,63.1486846 48.7714154,67.0747615 49.2932615,69.0683769 C50.3573385,68.6280692 51.5355692,67.9064538 52.8116462,66.8505308 C48.9304154,62.8225308 48.8203385,60.1643769 49.4441077,58.6192231 C50.1290308,56.9395308 51.9432615,55.9243769 54.3119538,55.9203 L55.1803385,55.9203 C57.5775692,55.9203 59.4081077,56.9191462 60.0889538,58.5947615 C60.7249538,60.1358385 60.6026462,62.7939923 56.6888,66.8505308 C57.9771077,67.9064538 59.1553385,68.6280692 60.2194154,69.0683769 C60.7371846,67.0788385 62.1844923,63.1486846 64.6795692,62.5860692 C65.3889538,62.4189154 66.7791846,62.4229923 68.0389538,64.2005308 C69.4944154,66.2512231 69.0500308,69.1132231 67.0074923,70.8622231 C65.8537231,71.8447615 64.2474154,72.4236846 62.2823385,72.3054538 C61.3854154,77.0673 59.2858,87.8589154 58.6987231,90.8799154 L60.5129538,90.8799154 L60.5129538,87.2351462 L65.8781846,87.2351462 L65.8781846,84.3527615 C65.8781846,83.6189154 66.4774923,83.0236846 67.2113385,83.0236846 L75.2061846,83.0236846 C75.3162615,82.5956077 75.3855692,82.1553 75.3855692,81.6905308 L75.3855692,70.5564538 L80.7630308,70.5564538 L80.7630308,69.5902231 C79.1118769,67.1848385 74.8718769,60.4171462 74.8718769,54.3588385 C74.8718769,37.1664538 60.0033385,23.4924538 42.4195692,25.3923 C41.8936462,25.5798385 41.3554923,25.7266077 40.8214154,25.9426846 C34.9710308,28.3113769 30.0705692,33.0773 27.3757231,39.0214538" id="Fill-65" fill="#A7E0FE"></path>
                        <path d="M57.6419846,59.5952385 C57.3851385,58.9673923 56.4433692,58.5678538 55.1795231,58.5678538 L54.3233692,58.5678538 C53.0921385,58.5719308 52.1544462,58.9796231 51.9016769,59.6197 C51.5510615,60.4840077 52.1340615,62.3471615 54.7555231,65.0501615 C57.3892154,62.3186231 57.9926,60.4513923 57.6419846,59.5952385" id="Fill-67" fill="#A7E0FE"></path>
                        <path d="M54.7514462,68.6806615 C52.9739077,70.1891231 51.3186769,71.1635077 49.7979846,71.7261231 C50.4258308,75.3627385 50.4910615,75.6644308 50.9639846,78.0127385 C51.3594462,79.9533538 52.0321385,83.2801231 53.5120615,90.8754308 L55.9949077,90.8754308 C56.3822154,88.8695846 58.7468308,76.7325846 59.6967538,71.7179692 C58.1801385,71.1594308 56.5208308,70.1850462 54.7514462,68.6806615" id="Fill-69" fill="#A7E0FE"></path>
                    </g>
                </g>
            </g>
        </g>
    </g>
</svg>