<?xml version="1.0" encoding="UTF-8"?>
<svg width="87px" height="98px" viewBox="0 0 87 98" version="1.1" xmlns="http://www.w3.org/2000/svg" xmlns:xlink="http://www.w3.org/1999/xlink">
    <!-- Generator: Sketch 61.1 (89650) - https://sketch.com -->
    <title>ill_Integrated Timers</title>
    <desc>Created with Sketch.</desc>
    <g id="Page-1" stroke="none" stroke-width="1" fill="none" fill-rule="evenodd">
        <g id="v3_A" transform="translate(-671.000000, -1150.000000)">
            <g id="ill_Integrated-Timers" transform="translate(671.000000, 1151.000000)">
                <path d="M66.4930509,32.6591815 C66.0799028,32.2460333 65.4098843,32.2451352 64.9967361,32.6591815 L51.8532361,45.8026815 C50.749412,45.0024315 49.3968009,44.5237185 47.9319213,44.5237185 C44.2396343,44.5237185 41.2353287,47.5280241 41.2353287,51.2212093 C41.2353287,54.9134963 44.2396343,57.9178019 47.9319213,57.9178019 C51.6242083,57.9178019 54.6285139,54.9134963 54.6285139,51.2212093 C54.6285139,49.7554315 54.1506991,48.4028204 53.3495509,47.2989963 L66.4930509,34.1554963 C66.9061991,33.7423481 66.9061991,33.0723296 66.4930509,32.6591815" id="Fill-18" fill="#B8DFFD"></path>
                <path d="M9.16290741,48.8266565 C9.16290741,41.2382028 11.3813333,34.1733694 15.1903796,28.2249343 C5.96999074,35.1092398 -5.56486544e-12,46.1052676 -5.56486544e-12,58.4970176 C-5.56486544e-12,79.3475269 16.9040463,96.2524713 37.7554537,96.2524713 C50.1472037,96.2524713 61.1432315,90.2806843 68.0284352,81.0620917 C62.0791019,84.8720361 55.0142685,87.0895639 47.4258148,87.0895639 C26.2941852,87.0895639 9.16290741,69.957388 9.16290741,48.8266565" id="Fill-20" fill="#B8DFFD"></path>
                <path d="M84.4815213,58.4966583 C83.6938454,61.5593435 82.5361324,64.4738343 81.060475,67.1925287" id="Stroke-22" stroke="#01B289" stroke-width="2.356" stroke-linecap="round" stroke-linejoin="round"></path>
                <path d="M32.6507389,2.42823333 L32.6507389,2.42823333 C32.6507389,3.18806667 33.2668685,3.8041963 34.0267019,3.8041963 L39.9850167,3.8041963 L39.9850167,11.2435574 L44.3895352,11.2435574 L44.3895352,1.05227037 L34.0267019,1.05227037 C33.2668685,1.05227037 32.6507389,1.6684 32.6507389,2.42823333" id="Fill-24" fill="#B8DFFD"></path>
                <path d="M76.6630519,73.6283889 C69.6287556,81.965 59.1024593,87.2622778 47.3403111,87.2622778 C26.1601815,87.2622778 8.99118148,70.0914815 8.99118148,48.9113519 C8.99118148,27.7321204 26.1601815,10.5640185 47.3403111,10.5640185 C68.5195426,10.5640185 85.6885426,27.7321204 85.6885426,48.9113519 C85.6885426,50.0232593 85.6418389,51.1225926 85.5493296,52.2093519" id="Stroke-26" stroke="#01B289" stroke-width="2.356" stroke-linecap="round" stroke-linejoin="round"></path>
                <line x1="44.3898046" y1="6.34882963" x2="44.3898046" y2="0.448894444" id="Stroke-28" stroke="#01B289" stroke-width="2.356" stroke-linecap="round" stroke-linejoin="round"></line>
                <line x1="38.4899593" y1="0.449074074" x2="55.3473019" y2="0.449074074" id="Stroke-30" stroke="#01B289" stroke-width="2.356" stroke-linecap="round" stroke-linejoin="round"></line>
                <line x1="49.4470972" y1="10.5633" x2="49.4470972" y2="4.66336481" id="Stroke-32" stroke="#01B289" stroke-width="2.356" stroke-linecap="round" stroke-linejoin="round"></line>
                <path d="M52.9783463,48.9126093 C52.9783463,52.0264889 50.4536519,54.5502852 47.3397722,54.5502852 C44.2258926,54.5502852 41.7011981,52.0264889 41.7011981,48.9126093 C41.7011981,45.7978315 44.2258926,43.2740352 47.3397722,43.2740352 C50.4536519,43.2740352 52.9783463,45.7978315 52.9783463,48.9126093" id="Fill-34" fill="#FFFFFF"></path>
                <path d="M52.9783463,48.9126093 C52.9783463,52.0264889 50.4536519,54.5502852 47.3397722,54.5502852 C44.2258926,54.5502852 41.7011981,52.0264889 41.7011981,48.9126093 C41.7011981,45.7978315 44.2258926,43.2740352 47.3397722,43.2740352 C50.4536519,43.2740352 52.9783463,45.7978315 52.9783463,48.9126093 Z" id="Stroke-36" stroke="#01B289" stroke-width="2.356" stroke-linecap="round" stroke-linejoin="round"></path>
                <line x1="51.3267417" y1="44.9253704" x2="65.1528343" y2="31.0992778" id="Stroke-38" stroke="#01B289" stroke-width="2.356" stroke-linecap="round" stroke-linejoin="round"></line>
            </g>
        </g>
    </g>
</svg>