<?xml version="1.0" encoding="UTF-8"?>
<svg width="134px" height="146px" viewBox="0 0 134 146" version="1.1" xmlns="http://www.w3.org/2000/svg" xmlns:xlink="http://www.w3.org/1999/xlink">
    <!-- Generator: Sketch 62 (91390) - https://sketch.com -->
    <title>Group 51</title>
    <desc>Created with Sketch.</desc>
    <g id="Page-1" stroke="none" stroke-width="1" fill="none" fill-rule="evenodd">
        <g id="Accounting-&amp;-Taxes" transform="translate(-815.000000, -4122.000000)">
            <g id="06.Keep-Exploring" transform="translate(250.000000, 3945.000000)">
                <g id="Explore-Task-Managment" transform="translate(565.000000, 142.000000)">
                    <g id="Group-51" transform="translate(0.000000, 30.000000)">
                        <g transform="translate(-26.000000, 5.000000)">
                            <path d="M155.1275,106.4975 C155.1275,107.8125 156.1875,108.8775 157.5075,108.8775 C158.8075,108.8775 159.8725,107.8125 159.8725,106.4975 C159.8725,105.1875 158.8075,104.1225 157.5075,104.1225 C156.1875,104.1225 155.1275,105.1875 155.1275,106.4975" id="Fill-1" fill="#00B388"></path>
                            <path d="M155.1275,126.5025 C155.1275,127.8125 156.1875,128.8775 157.5075,128.8775 C158.8075,128.8775 159.8725,127.8125 159.8725,126.5025 C159.8725,125.1875 158.8075,124.1225 157.5075,124.1225 C156.1875,124.1225 155.1275,125.1875 155.1275,126.5025" id="Fill-3" fill="#00B388"></path>
                            <path d="M155.1275,116.4975 C155.1275,117.8125 156.1875,118.8775 157.5075,118.8775 C158.8075,118.8775 159.8725,117.8125 159.8725,116.4975 C159.8725,115.1875 158.8075,114.1225 157.5075,114.1225 C156.1875,114.1225 155.1275,115.1875 155.1275,116.4975" id="Fill-5" fill="#00B388"></path>
                            <path d="M10.6911928,164.657989 L10.6911928,25 C4.7633123,25.1420499 0,29.980912 0,35.9607557 L0,176.232767 C0,182.725824 5.25197425,188 11.7278868,188 L133.025657,188 C139.003774,188 143.83559,183.211543 144,177.25461 L23.2456947,177.25461 C16.3222226,177.25461 10.6911928,171.609271 10.6911928,164.657989" id="Fill-7" fill="#A7E0FE"></path>
                            <path d="M144,177 L146.308403,177 C153.312096,177 159,171.438229 159,164.589848 L159,138.036005 C159,136.911914 158.067405,136 156.922438,136 C155.77747,136 154.849492,136.911914 154.849492,138.036005 L154.849492,164.589848 C154.849492,169.194561 151.022161,172.941533 146.308403,172.941533 L144.032318,172.941533 L144.032318,176.702048 C144.032318,176.801365 144.004617,176.905197 144,177" id="Fill-9" fill="#00B388"></path>
                            <path d="M109.48491,15.1132075 C109.48491,17.963284 107.165326,20.2809791 104.312926,20.2809791 L64.6870742,20.2809791 C61.8346743,20.2809791 59.5150899,17.963284 59.5150899,15.1132075 L59.5150899,9.29831719 C59.5150899,6.44824069 61.8346743,4.13054564 64.6870742,4.13054564 L104.312926,4.13054564 C107.165326,4.13054564 109.48491,6.44824069 109.48491,9.29831719 L109.48491,15.1132075 Z M156.933044,99 C158.072166,99 159,98.0775115 159,96.9347272 L159,22.7593065 C159,15.8016318 153.336539,10.1427843 146.373193,10.1427843 L113.618823,10.1427843 L113.618823,9.29831719 C113.618823,4.1718511 109.443571,0 104.312926,0 L64.6870742,0 C59.556429,0 55.3857702,4.1718511 55.3857702,9.29831719 L55.3857702,10.1427843 L22.6268072,10.1427843 C15.6634606,10.1427843 10,15.8016318 10,22.7593065 L10,25.0540541 C10.0826783,25.0540541 10.1653565,25.0265171 10.252628,25.0265171 L14.1339129,25.0265171 L14.1339129,22.7593065 C14.1339129,18.0780214 17.941706,14.2733299 22.6268072,14.2733299 L55.3857702,14.2733299 L55.3857702,15.1132075 C55.3857702,20.2442631 59.556429,24.4161142 64.6870742,24.4161142 L104.312926,24.4161142 C109.443571,24.4161142 113.618823,20.2442631 113.618823,15.1132075 L113.618823,14.2733299 L146.373193,14.2733299 C151.062887,14.2733299 154.866087,18.0780214 154.866087,22.7593065 L154.866087,96.9347272 C154.866087,98.0775115 155.793921,99 156.933044,99 L156.933044,99 Z" id="Fill-11" fill="#00B388"></path>
                            <path d="M10,25.0274426 L10,164.426714 C10,171.355971 15.6588691,177 22.6165702,177 L143.967873,177 C143.972463,176.894803 144,176.798754 144,176.688984 L144,172.879036 L22.6165702,172.879036 C17.9352673,172.879036 14.1305614,169.087383 14.1305614,164.426714 L14.1305614,25 L10.2616022,25 C10.1652225,25 10.0917903,25.0274426 10,25.0274426" id="Fill-13" fill="#00B388"></path>
                            <polyline id="Stroke-15" stroke="#00B388" stroke-width="3.9" stroke-linecap="round" points="56 90.0249224 80.3283485 114 126 69"></polyline>
                        </g>
                    </g>
                </g>
            </g>
        </g>
    </g>
</svg>