<?xml version="1.0" encoding="UTF-8"?>
<svg width="92px" height="97px" viewBox="0 0 92 97" version="1.1" xmlns="http://www.w3.org/2000/svg" xmlns:xlink="http://www.w3.org/1999/xlink">
    <!-- Generator: Sketch 61.1 (89650) - https://sketch.com -->
    <title>3</title>
    <desc>Created with Sketch.</desc>
    <g id="Page-1" stroke="none" stroke-width="1" fill="none" fill-rule="evenodd">
        <g id="v2_B" transform="translate(-311.000000, -3162.000000)">
            <g id="05.-The-Possibilities" transform="translate(250.000000, 2444.000000)">
                <g id="3" transform="translate(0.000000, 668.000000)">
                    <g transform="translate(61.000000, 52.000000)">
                        <path d="M54.0441,85.86099 L12.6594,85.86099 L6.13908924e-13,94.43349 L6.13908924e-13,42.74739 C6.13908924e-13,37.86849 3.9555,33.91299 8.8344,33.91299 L54.0441,33.91299 C58.923,33.91299 62.8776,37.86849 62.8776,42.74739 L62.8776,77.02749 C62.8776,81.90459 58.923,85.86099 54.0441,85.86099" id="Fill-14" fill="#B7DFFC"></path>
                        <path d="M27.12186,60.4395 L75.27096,60.4395 L90.00036,70.4142 L90.00036,10.2789 C90.00036,4.6017 85.39776,-1.12549969e-12 79.72146,-1.12549969e-12 L27.12186,-1.12549969e-12 C21.44556,-1.12549969e-12 16.84386,4.6017 16.84386,10.2789 L16.84386,50.1615 C16.84386,55.8378 21.44556,60.4395 27.12186,60.4395" id="Fill-16" fill="#FFFFFF"></path>
                        <path d="M27.12186,60.4395 L75.27096,60.4395 L90.00036,70.4142 L90.00036,10.2789 C90.00036,4.6017 85.39776,-1.12549969e-12 79.72146,-1.12549969e-12 L27.12186,-1.12549969e-12 C21.44556,-1.12549969e-12 16.84386,4.6017 16.84386,10.2789 L16.84386,50.1615 C16.84386,55.8378 21.44556,60.4395 27.12186,60.4395 Z" id="Stroke-18" stroke="#02B187" stroke-width="2.7" stroke-linecap="round" stroke-linejoin="round"></path>
                        <path d="M55.66833,15.43248 L59.04333,22.26978 C59.40783,23.00868 60.11253,23.52078 60.92883,23.63958 L68.47443,24.73668 C70.52913,25.03458 71.34993,27.55998 69.86223,29.00898 L64.40283,34.33158 C63.81243,34.90758 63.54333,35.73648 63.68193,36.54918 L64.97073,44.06328 C65.32263,46.10988 63.17433,47.67048 61.33653,46.70478 L54.58743,43.15698 C53.85753,42.77268 52.98633,42.77268 52.25553,43.15698 L45.50733,46.70478 C43.66953,47.67048 41.52123,46.10988 41.87223,44.06328 L43.16193,36.54918 C43.30053,35.73648 43.03143,34.90758 42.44103,34.33158 L36.98073,29.00898 C35.49393,27.55998 36.31473,25.03458 38.36943,24.73668 L45.91503,23.63958 C46.73043,23.52078 47.43603,23.00868 47.80143,22.26978 L51.17553,15.43248 C52.09443,13.57038 54.74943,13.57038 55.66833,15.43248" id="Fill-20" fill="#02B187"></path>
                        <path d="M22.09014,73.42362 C22.09014,74.44332 21.26304,75.27042 20.24244,75.27042 C19.22184,75.27042 18.39564,74.44332 18.39564,73.42362 C18.39564,72.40302 19.22184,71.57592 20.24244,71.57592 C21.26304,71.57592 22.09014,72.40302 22.09014,73.42362" id="Fill-22" fill="#02B187"></path>
                        <path d="M33.2865,73.42362 C33.2865,74.44332 32.4594,75.27042 31.4388,75.27042 C30.4182,75.27042 29.592,74.44332 29.592,73.42362 C29.592,72.40302 30.4182,71.57592 31.4388,71.57592 C32.4594,71.57592 33.2865,72.40302 33.2865,73.42362" id="Fill-24" fill="#02B187"></path>
                        <path d="M44.48295,73.42362 C44.48295,74.44332 43.65585,75.27042 42.63525,75.27042 C41.61465,75.27042 40.78845,74.44332 40.78845,73.42362 C40.78845,72.40302 41.61465,71.57592 42.63525,71.57592 C43.65585,71.57592 44.48295,72.40302 44.48295,73.42362" id="Fill-26" fill="#02B187"></path>
                    </g>
                </g>
            </g>
        </g>
    </g>
</svg>