<?xml version="1.0" encoding="UTF-8"?>
<svg width="93px" height="93px" viewBox="0 0 93 93" version="1.1" xmlns="http://www.w3.org/2000/svg" xmlns:xlink="http://www.w3.org/1999/xlink">
    <!-- Generator: Sketch 61.1 (89650) - https://sketch.com -->
    <title>4</title>
    <desc>Created with Sketch.</desc>
    <g id="Page-1" stroke="none" stroke-width="1" fill="none" fill-rule="evenodd">
        <g id="v2_B" transform="translate(-309.000000, -3396.000000)">
            <g id="05.-The-Possibilities" transform="translate(250.000000, 2444.000000)">
                <g id="4" transform="translate(0.000000, 898.000000)">
                    <g transform="translate(60.000000, 55.000000)">
                        <path d="M10.76661,13.36464 L10.76661,67.65174 C10.76661,77.45544 18.71451,85.40334 28.51821,85.40334 L72.17451,85.40334 L72.17451,13.36464 C72.17451,13.03164 71.90451,12.76164 71.57241,12.76164 L11.15991,12.76164" id="Fill-28" fill="#B7DFFC"></path>
                        <polyline id="Stroke-30" stroke="#02B187" stroke-width="2.7" stroke-linecap="round" stroke-linejoin="round" points="30.14955 27.4491 30.14955 30.1491 27.44955 30.1491"></polyline>
                        <line x1="18.61344" y1="30.1491" x2="7.56864" y2="30.1491" id="Stroke-32" stroke="#02B187" stroke-width="2.7" stroke-linecap="round" stroke-linejoin="round" stroke-dasharray="6.626699924468994,8.836199855804443"></line>
                        <polyline id="Stroke-34" stroke="#02B187" stroke-width="2.7" stroke-linecap="round" stroke-linejoin="round" points="3.15 30.1491 0.45 30.1491 0.45 27.4491"></polyline>
                        <line x1="0.45" y1="18.61344" x2="0.45" y2="7.56864" id="Stroke-36" stroke="#02B187" stroke-width="2.7" stroke-linecap="round" stroke-linejoin="round" stroke-dasharray="6.626699924468994,8.836199855804443"></line>
                        <polyline id="Stroke-38" stroke="#02B187" stroke-width="2.7" stroke-linecap="round" stroke-linejoin="round" points="0.45 3.15 0.45 0.45 3.15 0.45"></polyline>
                        <line x1="11.98602" y1="0.45" x2="23.03082" y2="0.45" id="Stroke-40" stroke="#02B187" stroke-width="2.7" stroke-linecap="round" stroke-linejoin="round" stroke-dasharray="6.626699924468994,8.836199855804443"></line>
                        <polyline id="Stroke-42" stroke="#02B187" stroke-width="2.7" stroke-linecap="round" stroke-linejoin="round" points="27.44955 0.45 30.14955 0.45 30.14955 3.15"></polyline>
                        <line x1="30.14955" y1="11.98647" x2="30.14955" y2="23.03037" id="Stroke-44" stroke="#02B187" stroke-width="2.7" stroke-linecap="round" stroke-linejoin="round" stroke-dasharray="6.626699924468994,8.836199855804443"></line>
                        <path d="M78.44058,12.76173 C78.44058,16.22313 75.63528,19.02843 72.17478,19.02843 C68.71338,19.02843 65.90808,16.22313 65.90808,12.76173 C65.90808,9.30123 68.71338,6.49593 72.17478,6.49593 C75.63528,6.49593 78.44058,9.30123 78.44058,12.76173" id="Fill-46" fill="#02B187"></path>
                        <path d="M90.45,72.61434 C90.45,82.43514 82.4886,90.39654 72.6678,90.39654 C62.8479,90.39654 54.8856,82.43514 54.8856,72.61434 C54.8856,62.79354 62.8479,54.83214 72.6678,54.83214 C82.4886,54.83214 90.45,62.79354 90.45,72.61434" id="Fill-48" fill="#FFFFFF"></path>
                        <path d="M90.45,72.61434 C90.45,82.43514 82.4886,90.39654 72.6678,90.39654 C62.8479,90.39654 54.8856,82.43514 54.8856,72.61434 C54.8856,62.79354 62.8479,54.83214 72.6678,54.83214 C82.4886,54.83214 90.45,62.79354 90.45,72.61434 Z" id="Stroke-50" stroke="#02B187" stroke-width="2.7" stroke-linecap="round" stroke-linejoin="round"></path>
                        <line x1="72.66798" y1="68.66892" x2="72.66798" y2="83.23542" id="Stroke-52" stroke="#02B187" stroke-width="2.7" stroke-linecap="round" stroke-linejoin="round"></line>
                        <path d="M74.11419,63.43947 C74.11419,62.64027 73.46709,61.99497 72.66789,61.99497 C71.86959,61.99497 71.22249,62.64027 71.22249,63.43947 C71.22249,64.23867 71.86959,64.88487 72.66789,64.88487 C73.46709,64.88487 74.11419,64.23867 74.11419,63.43947" id="Fill-54" fill="#02B187"></path>
                        <line x1="25.07778" y1="40.48506" x2="58.97538" y2="40.48506" id="Stroke-146" stroke="#02B187" stroke-width="2.7" stroke-linecap="round" stroke-linejoin="round"></line>
                        <line x1="25.07778" y1="49.08249" x2="58.97538" y2="49.08249" id="Stroke-147" stroke="#02B187" stroke-width="2.7" stroke-linecap="round" stroke-linejoin="round"></line>
                    </g>
                </g>
            </g>
        </g>
    </g>
</svg>