<?xml version="1.0" encoding="UTF-8"?>
<svg width="77px" height="87px" viewBox="0 0 77 87" version="1.1" xmlns="http://www.w3.org/2000/svg" xmlns:xlink="http://www.w3.org/1999/xlink">
    <!-- Generator: Sketch 61.1 (89650) - https://sketch.com -->
    <title>Group 178</title>
    <desc>Created with Sketch.</desc>
    <g id="Page-1" stroke="none" stroke-width="1" fill="none" fill-rule="evenodd">
        <g id="v2_B" transform="translate(-317.000000, -2709.000000)">
            <g id="05.-The-Possibilities" transform="translate(250.000000, 2444.000000)">
                <g id="1" transform="translate(0.000000, 208.000000)">
                    <g id="Group-178" transform="translate(67.000000, 57.000000)">
                        <path d="M58.02984,86.38146 L23.20794,86.38146 C22.05954,86.38146 21.12894,85.45086 21.12894,84.30246 L21.12894,22.16106 C21.12894,21.01266 22.05954,20.08116 23.20794,20.08116 L74.47014,20.08116 C75.61764,20.08116 76.54914,21.01266 76.54914,22.16106 L76.54914,67.86306 C76.54914,78.09066 68.25744,86.38146 58.02984,86.38146" id="Fill-137" fill="#B7DFFC"></path>
                        <path d="M48.95559,77.30721 L14.15979,77.30721 C12.99699,77.30721 12.05469,76.36491 12.05469,75.20211 L12.05469,13.11291 C12.05469,11.95011 12.99699,11.00691 14.15979,11.00691 L65.36979,11.00691 C66.53169,11.00691 67.47489,11.95011 67.47489,13.11291 L67.47489,58.78881 C67.47489,69.01641 59.18319,77.30721 48.95559,77.30721" id="Fill-138" fill="#FFFFFF"></path>
                        <path d="M48.95559,77.30721 L14.15979,77.30721 C12.99699,77.30721 12.05469,76.36491 12.05469,75.20211 L12.05469,13.11291 C12.05469,11.95011 12.99699,11.00691 14.15979,11.00691 L65.36979,11.00691 C66.53169,11.00691 67.47489,11.95011 67.47489,13.11291 L67.47489,58.78881 C67.47489,69.01641 59.18319,77.30721 48.95559,77.30721 Z" id="Stroke-139" stroke="#02B187" stroke-width="2.7" stroke-linecap="round" stroke-linejoin="round"></path>
                        <path d="M76.54878,11.89503 C76.54878,17.72253 71.82468,22.44663 65.99718,22.44663 C60.16968,22.44663 55.44558,17.72253 55.44558,11.89503 C55.44558,6.06753 60.16968,1.34343 65.99718,1.34343 C71.82468,1.34343 76.54878,6.06753 76.54878,11.89503" id="Fill-140" fill="#02B187"></path>
                        <line x1="17.13564" y1="46.75599" x2="65.99754" y2="75.82959" id="Stroke-141" stroke="#02B187" stroke-width="2.7" stroke-linecap="round" stroke-linejoin="round" stroke-dasharray="5.4,7.2"></line>
                        <line x1="65.99709" y1="11.89503" x2="17.13519" y2="46.75563" id="Stroke-142" stroke="#02B187" stroke-width="2.7" stroke-linecap="round" stroke-linejoin="round"></line>
                        <polygon id="Fill-143" fill="#02B187" points="2.04636308e-13 18.3348 12.0546 1.38129508e-12 24.1092 18.3348"></polygon>
                        <path d="M27.68778,46.75599 C27.68778,52.58349 22.96278,57.30759 17.13528,57.30759 C11.30778,57.30759 6.58368,52.58349 6.58368,46.75599 C6.58368,40.92849 11.30778,36.20439 17.13528,36.20439 C22.96278,36.20439 27.68778,40.92849 27.68778,46.75599" id="Fill-144" fill="#02B187"></path>
                        <path d="M76.54878,75.82977 C76.54878,81.65727 71.82468,86.38137 65.99718,86.38137 C60.16968,86.38137 55.44558,81.65727 55.44558,75.82977 C55.44558,70.00227 60.16968,65.27817 65.99718,65.27817 C71.82468,65.27817 76.54878,70.00227 76.54878,75.82977" id="Fill-145" fill="#02B187"></path>
                    </g>
                </g>
            </g>
        </g>
    </g>
</svg>