<?xml version="1.0" encoding="UTF-8"?>
<svg width="72px" height="89px" viewBox="0 0 72 89" version="1.1" xmlns="http://www.w3.org/2000/svg" xmlns:xlink="http://www.w3.org/1999/xlink">
    <!-- Generator: Sketch 61.1 (89650) - https://sketch.com -->
    <title>Group 182</title>
    <desc>Created with Sketch.</desc>
    <g id="Page-1" stroke="none" stroke-width="1" fill="none" fill-rule="evenodd">
        <g id="v2_B" transform="translate(-883.000000, -3397.000000)">
            <g id="05.-The-Possibilities" transform="translate(250.000000, 2444.000000)">
                <g id="8" transform="translate(566.000000, 898.000000)">
                    <g id="Group-182" transform="translate(69.000000, 57.000000)">
                        <path d="M63.06372,86.29191 L15.81192,86.29191 C12.01122,86.29191 8.93142,83.21121 8.93142,79.41051 L8.93142,15.81201 C8.93142,12.01221 12.01122,8.93151 15.81192,8.93151 L63.06372,8.93151 C66.86442,8.93151 69.94512,12.01221 69.94512,15.81201 L69.94512,79.41051 C69.94512,83.21121 66.86442,86.29191 63.06372,86.29191" id="Fill-112" fill="#B9E0FE"></path>
                        <path d="M54.1332,77.3604 L6.8805,77.3604 C3.0798,77.3604 -2.50679477e-12,74.2797 -2.50679477e-12,70.479 L-2.50679477e-12,6.8805 C-2.50679477e-12,3.0807 3.0798,-7.54596385e-13 6.8805,-7.54596385e-13 L54.1332,-7.54596385e-13 C57.9339,-7.54596385e-13 61.0146,3.0807 61.0146,6.8805 L61.0146,70.479 C61.0146,74.2797 57.9339,77.3604 54.1332,77.3604" id="Fill-114" fill="#FFFFFF"></path>
                        <path d="M54.1332,77.3604 L6.8805,77.3604 C3.0798,77.3604 -2.50679477e-12,74.2797 -2.50679477e-12,70.479 L-2.50679477e-12,6.8805 C-2.50679477e-12,3.0807 3.0798,-7.54596385e-13 6.8805,-7.54596385e-13 L54.1332,-7.54596385e-13 C57.9339,-7.54596385e-13 61.0146,3.0807 61.0146,6.8805 L61.0146,70.479 C61.0146,74.2797 57.9339,77.3604 54.1332,77.3604 Z" id="Stroke-116" stroke="#02B187" stroke-width="2.7" stroke-linecap="round" stroke-linejoin="round"></path>
                        <polygon id="Fill-118" fill="#FFFFFF" points="5.5206 64.77156 55.4949 64.77156 55.4949 6.85656 5.5206 6.85656"></polygon>
                        <polygon id="Stroke-120" stroke="#02B187" stroke-width="2.7" stroke-linecap="round" stroke-linejoin="round" points="5.5206 64.77156 55.4949 64.77156 55.4949 6.85656 5.5206 6.85656"></polygon>
                        <path d="M33.67755,70.32654 C33.67755,72.07704 32.25825,73.49544 30.50775,73.49544 C28.75545,73.49544 27.33615,72.07704 27.33615,70.32654 C27.33615,68.57514 28.75545,67.15584 30.50775,67.15584 C32.25825,67.15584 33.67755,68.57514 33.67755,70.32654" id="Fill-121" fill="#02B187"></path>
                        <g id="Group-124" transform="translate(14.982300, 13.522860)">
                            <line x1="0.414" y1="1.16631" x2="30.6351" y2="1.16631" id="Fill-122" fill="#FFFFFF"></line>
                            <line x1="0.414" y1="1.16631" x2="30.6351" y2="1.16631" id="Stroke-123" stroke="#02B187" stroke-width="2.7" stroke-linecap="round" stroke-linejoin="round" stroke-dasharray="5.4,7.2"></line>
                        </g>
                        <g id="Group-127" transform="translate(14.982300, 20.722860)">
                            <line x1="0.414" y1="0.94131" x2="30.6351" y2="0.94131" id="Fill-125" fill="#FFFFFF"></line>
                            <line x1="0.414" y1="0.94131" x2="30.6351" y2="0.94131" id="Stroke-126" stroke="#02B187" stroke-width="2.7" stroke-linecap="round" stroke-linejoin="round"></line>
                        </g>
                        <g id="Group-130" transform="translate(14.982300, 27.922860)">
                            <line x1="0.414" y1="0.71631" x2="22.3362" y2="0.71631" id="Fill-128" fill="#FFFFFF"></line>
                            <line x1="0.414" y1="0.71631" x2="22.3362" y2="0.71631" id="Stroke-129" stroke="#02B187" stroke-width="2.7" stroke-linecap="round" stroke-linejoin="round"></line>
                        </g>
                        <g id="Group-133" transform="translate(14.982300, 36.022860)">
                            <line x1="0.414" y1="0.6732" x2="30.6351" y2="0.6732" id="Fill-131" fill="#FFFFFF"></line>
                            <line x1="0.414" y1="0.6732" x2="30.6351" y2="0.6732" id="Stroke-132" stroke="#02B187" stroke-width="2.7" stroke-linecap="round" stroke-linejoin="round"></line>
                        </g>
                        <g id="Group-136" transform="translate(14.982300, 43.222860)">
                            <line x1="0.414" y1="0.4482" x2="22.3362" y2="0.4482" id="Fill-134" fill="#FFFFFF"></line>
                            <line x1="0.414" y1="0.4482" x2="22.3362" y2="0.4482" id="Stroke-135" stroke="#02B187" stroke-width="2.7" stroke-linecap="round" stroke-linejoin="round" stroke-dasharray="5.4,7.2"></line>
                        </g>
                    </g>
                </g>
            </g>
        </g>
    </g>
</svg>