<?xml version="1.0" encoding="UTF-8"?>
<svg width="90px" height="90px" viewBox="0 0 90 90" version="1.1" xmlns="http://www.w3.org/2000/svg" xmlns:xlink="http://www.w3.org/1999/xlink">
    <!-- Generator: Sketch 61.1 (89650) - https://sketch.com -->
    <title>2</title>
    <desc>Created with Sketch.</desc>
    <g id="Page-1" stroke="none" stroke-width="1" fill="none" fill-rule="evenodd">
        <g id="v2_B" transform="translate(-311.000000, -2937.000000)">
            <g id="05.-The-Possibilities" transform="translate(250.000000, 2444.000000)">
                <g id="2" transform="translate(0.000000, 438.000000)">
                    <g transform="translate(61.000000, 55.000000)">
                        <path d="M59.92029,74.02077 L11.04309,74.02077 C4.94469,74.02077 8.99999969e-05,69.07617 8.99999969e-05,62.97777 L8.99999969e-05,31.90977 C8.99999969e-05,25.81137 4.94469,20.86677 11.04309,20.86677 L59.92029,20.86677 C66.01959,20.86677 70.96329,25.81137 70.96329,31.90977 L70.96329,62.97777 C70.96329,69.07617 66.01959,74.02077 59.92029,74.02077" id="Fill-2" fill="#B7DFFC"></path>
                        <path d="M69.74037,64.20078 L20.86407,64.20078 C14.76477,64.20078 9.82017,59.25618 9.82017,53.15688 L9.82017,22.08978 C9.82017,15.99048 14.76477,11.04678 20.86407,11.04678 L69.74037,11.04678 C75.83967,11.04678 80.78427,15.99048 80.78427,22.08978 L80.78427,53.15688 C80.78427,59.25618 75.83967,64.20078 69.74037,64.20078" id="Fill-4" fill="#FFFFFF"></path>
                        <path d="M69.74037,64.20078 L20.86407,64.20078 C14.76477,64.20078 9.82017,59.25618 9.82017,53.15688 L9.82017,22.08978 C9.82017,15.99048 14.76477,11.04678 20.86407,11.04678 L69.74037,11.04678 C75.83967,11.04678 80.78427,15.99048 80.78427,22.08978 L80.78427,53.15688 C80.78427,59.25618 75.83967,64.20078 69.74037,64.20078 Z" id="Stroke-6" stroke="#02B187" stroke-width="2.7" stroke-linecap="round" stroke-linejoin="round"></path>
                        <polygon id="Fill-8" fill="#02B187" points="62.6058 89.0145 76.3029 68.1813 90 89.0145"></polygon>
                        <path d="M11.3427,5.6709 C11.3427,8.8029 8.8038,11.3418 5.6718,11.3418 C2.5398,11.3418 1.25339739e-12,8.8029 1.25339739e-12,5.6709 C1.25339739e-12,2.5389 2.5398,-5.1159077e-13 5.6718,-5.1159077e-13 C8.8038,-5.1159077e-13 11.3427,2.5389 11.3427,5.6709" id="Fill-10" fill="#02B187"></path>
                        <path d="M38.56689,25.85052 L56.11149,35.58042 C57.71619,36.46962 57.71619,38.77722 56.11149,39.66732 L38.56689,49.39722 C37.00989,50.26032 35.09739,49.13442 35.09739,47.35332 L35.09739,27.89442 C35.09739,26.11332 37.00989,24.98652 38.56689,25.85052" id="Fill-12" fill="#02B187"></path>
                    </g>
                </g>
            </g>
        </g>
    </g>
</svg>