<?xml version="1.0" encoding="UTF-8"?>
<svg width="85px" height="79px" viewBox="0 0 85 79" version="1.1" xmlns="http://www.w3.org/2000/svg" xmlns:xlink="http://www.w3.org/1999/xlink">
    <!-- Generator: Sketch 61.1 (89650) - https://sketch.com -->
    <title>Group 181</title>
    <desc>Created with Sketch.</desc>
    <g id="Page-1" stroke="none" stroke-width="1" fill="none" fill-rule="evenodd">
        <g id="v2_B" transform="translate(-878.000000, -3173.000000)">
            <g id="05.-The-Possibilities" transform="translate(250.000000, 2444.000000)">
                <g id="7" transform="translate(566.000000, 668.000000)">
                    <g id="Group-181" transform="translate(62.000000, 61.000000)">
                        <path d="M3.04542,0.603 L3.04542,54.8892 C3.04542,64.6938 10.99332,72.6408 20.79702,72.6408 L64.45242,72.6408 L64.45242,0.603 C64.45242,0.27 64.18422,-2.30215846e-13 63.85122,-2.30215846e-13 L3.43872,-2.30215846e-13" id="Fill-96" fill="#B7DFFC"></path>
                        <path d="M82.72881,59.85189 C82.72881,69.67269 74.76741,77.63409 64.94661,77.63409 C55.12671,77.63409 47.16441,69.67269 47.16441,59.85189 C47.16441,50.03199 55.12671,42.06969 64.94661,42.06969 C74.76741,42.06969 82.72881,50.03199 82.72881,59.85189" id="Fill-98" fill="#FFFFFF"></path>
                        <path d="M82.72881,59.85189 C82.72881,69.67269 74.76741,77.63409 64.94661,77.63409 C55.12671,77.63409 47.16441,69.67269 47.16441,59.85189 C47.16441,50.03199 55.12671,42.06969 64.94661,42.06969 C74.76741,42.06969 82.72881,50.03199 82.72881,59.85189 Z" id="Stroke-100" stroke="#02B187" stroke-width="2.7" stroke-linecap="round" stroke-linejoin="round"></path>
                        <line x1="64.94679" y1="51.28515" x2="64.94679" y2="68.41935" id="Stroke-102" stroke="#02B187" stroke-width="2.7" stroke-linecap="round" stroke-linejoin="round"></line>
                        <line x1="73.51443" y1="59.85189" x2="56.38023" y2="59.85189" id="Stroke-104" stroke="#02B187" stroke-width="2.7" stroke-linecap="round" stroke-linejoin="round"></line>
                        <polygon id="Fill-106" fill="#02B187" points="2.30215846e-12 27.4914 33.7887 27.4914 25.4196 17.9964 33.7887 8.5023 2.30215846e-12 8.5023"></polygon>
                        <line x1="14.12847" y1="40.13973" x2="33.75027" y2="40.13973" id="Stroke-108" stroke="#02B187" stroke-width="2.7" stroke-linecap="round" stroke-linejoin="round"></line>
                        <line x1="14.12847" y1="48.66948" x2="33.78897" y2="48.66948" id="Stroke-110" stroke="#02B187" stroke-width="2.7" stroke-linecap="round" stroke-linejoin="round"></line>
                    </g>
                </g>
            </g>
        </g>
    </g>
</svg>