<?xml version="1.0" encoding="UTF-8"?>
<svg width="80px" height="91px" viewBox="0 0 80 91" version="1.1" xmlns="http://www.w3.org/2000/svg" xmlns:xlink="http://www.w3.org/1999/xlink">
    <!-- Generator: Sketch 61.1 (89650) - https://sketch.com -->
    <title>1</title>
    <desc>Created with Sketch.</desc>
    <g id="Page-1" stroke="none" stroke-width="1" fill="none" fill-rule="evenodd">
        <g id="v2_B" transform="translate(-248.000000, -1014.000000)">
            <g id="02.Generous-bonuses-and-commissions" transform="translate(250.000000, 820.000000)">
                <g id="Earn-a-$30-" transform="translate(0.000000, 196.000000)">
                    <g id="1">
                        <path d="M39.53175,30.3007083 C40.55675,29.2765417 42.1009167,29.229875 43.7525833,30.5757083 L39.5934167,34.7357083 C38.3850833,32.3340417 38.5375833,31.294875 39.53175,30.3007083 L39.53175,30.3007083 Z M38.1859167,39.8432083 C39.4250833,42.2140417 39.3175833,43.3607083 38.2784167,44.4007083 C37.14675,45.532375 35.58675,45.4407083 33.9200833,44.109875 L38.1859167,39.8432083 Z M26.6859167,37.854875 C27.09925,40.2865417 28.0925833,42.534875 29.6684167,44.477375 L28.2150833,45.929875 C27.64925,46.4957083 27.6650833,47.3990417 28.2300833,47.9632083 C28.79675,48.529875 29.6834167,48.529875 30.24925,47.9640417 L31.6559167,46.557375 C34.9134167,49.2640417 38.6450833,49.569875 41.2300833,46.984875 C43.7525833,44.4615417 43.6459167,41.509875 40.9850833,37.0757083 L45.4809167,32.5790417 C46.0934167,33.5582083 46.5209167,34.7207083 46.8725833,36.019875 C46.96425,36.387375 47.1175833,36.6932083 47.34675,36.922375 C48.0809167,37.6565417 49.2275833,37.6715417 49.94675,36.9532083 C50.5125833,36.387375 50.5275833,35.6990417 50.3900833,35.1332083 C49.9925833,33.389875 49.2734167,31.7540417 48.0350833,30.2090417 L48.5550833,29.6890417 C49.1209167,29.1232083 49.1209167,28.2357083 48.5550833,27.6707083 C47.9884167,27.104875 47.08675,27.0890417 46.5209167,27.654875 L46.03175,28.144875 C42.8659167,25.437375 39.13425,25.1932083 36.64175,27.6857083 C33.9959167,30.3315417 34.28675,33.2215417 36.8250833,37.5340417 L32.20675,42.1532083 C31.15175,40.6382083 30.6159167,39.0015417 30.3109167,37.1065417 C30.26425,36.7240417 30.0809167,36.3565417 29.7909167,36.0657083 C29.05675,35.332375 27.9400833,35.347375 27.22175,36.0657083 C26.6709167,36.5857083 26.5634167,37.182375 26.6859167,37.854875 L26.6859167,37.854875 Z" id="Fill-13" fill="#02B187"></path>
                        <path d="M74.6404167,54.009125 L74.63875,54.0074583 L55.47125,73.1749583 C52.93625,75.7099583 48.8270833,75.7099583 46.2920833,73.1749583 L1.29625,28.1782917 L1.29375,28.1807917 C-0.43125,29.9057917 -0.43125,32.7032917 1.29375,34.429125 L45.97375,79.1082917 C48.6845833,81.819125 53.07875,81.819125 55.7895833,79.1082917 L74.6404167,60.2574583 C76.36625,58.5324583 76.36625,55.734125 74.6404167,54.009125" id="Fill-15" fill="#B7DFFC"></path>
                        <path d="M74.6404167,64.0124583 L74.63875,64.0107917 L57.1920833,81.4582917 C53.7070833,84.9424583 48.05625,84.9424583 44.57125,81.4582917 L1.29625,38.181625 L1.29375,38.1832917 C-0.43125,39.909125 -0.43125,42.706625 1.29375,44.4324583 L42.1754167,85.314125 C46.98375,90.121625 54.7795833,90.121625 59.58875,85.314125 L74.6404167,70.2607917 C76.36625,68.5357917 76.36625,65.7374583 74.6404167,64.0124583" id="Fill-17" fill="#B7DFFC"></path>
                        <path d="M6.07675,32.9597917 C9.04091667,29.995625 9.99341667,25.780625 8.93258333,22.013125" id="Stroke-19" stroke="#02B188" stroke-width="2.356" stroke-linecap="round" stroke-linejoin="round"></path>
                        <path d="M45.728,18.8452083 L74.6405,47.7577083 C76.3663333,49.4827083 76.3663333,52.281875 74.6405,54.0060417 L54.0063333,74.641875 C52.2805,76.3660417 49.483,76.3660417 47.758,74.641875 L1.29383333,28.176875 C-0.431166667,26.451875 -0.431166667,23.654375 1.29383333,21.9285417 L21.9288333,1.294375 C23.6538333,-0.431458333 26.4513333,-0.431458333 28.1771667,1.294375 L36.0238333,9.14104167" id="Stroke-21" stroke="#02B188" stroke-width="2.356" stroke-linecap="round" stroke-linejoin="round"></path>
                        <line x1="39.4946667" y1="12.611875" x2="42.628" y2="15.7452083" id="Stroke-23" stroke="#02B188" stroke-width="2.356" stroke-linecap="round" stroke-linejoin="round"></line>
                        <path d="M17.1350833,6.08804167 C21.50175,10.4547083 28.58175,10.4547083 32.9484167,6.08804167" id="Stroke-25" stroke="#02B188" stroke-width="2.356" stroke-linecap="round" stroke-linejoin="round"></path>
                        <path d="M69.6863333,42.825875 C66.6238333,45.888375 65.7096667,50.2842083 66.9421667,54.1442083" id="Stroke-27" stroke="#02B188" stroke-width="2.356" stroke-linecap="round" stroke-linejoin="round"></path>
                        <path d="M58.6658333,69.659375 C54.2991667,65.2935417 47.2191667,65.2935417 42.8525,69.659375" id="Stroke-29" stroke="#02B188" stroke-width="2.356" stroke-linecap="round" stroke-linejoin="round"></path>
                    </g>
                </g>
            </g>
        </g>
    </g>
</svg>