<?xml version="1.0" encoding="UTF-8"?>
<svg width="86px" height="78px" viewBox="0 0 86 78" version="1.1" xmlns="http://www.w3.org/2000/svg" xmlns:xlink="http://www.w3.org/1999/xlink">
    <!-- Generator: Sketch 61.1 (89650) - https://sketch.com -->
    <title>3</title>
    <desc>Created with Sketch.</desc>
    <g id="Page-1" stroke="none" stroke-width="1" fill="none" fill-rule="evenodd">
        <g id="v2_B" transform="translate(-1090.000000, -1021.000000)">
            <g id="02.Generous-bonuses-and-commissions" transform="translate(250.000000, 820.000000)">
                <g id="More-bonuses" transform="translate(842.000000, 203.000000)">
                    <g id="3">
                        <path d="M81.3283648,42.082875 C85.0608648,38.4445417 83.0008648,32.105375 77.8425315,31.3562083 L69.7808648,30.1845417 C69.7225315,30.245375 69.6766981,30.3112083 69.6150315,30.370375 L60.8766981,38.887875 C59.3950315,40.332875 58.7183648,42.4137083 59.0683648,44.455375 L61.1316981,56.4820417 C62.0116981,61.6195417 56.6200315,65.537875 52.0058648,63.1112083 L41.2050315,57.4337083 C39.3725315,56.470375 37.1833648,56.470375 35.3516981,57.4337083 L28.3533648,61.112875 L27.1383648,68.1945417 C26.2575315,73.3320417 31.6500315,77.2495417 36.2633648,74.8245417 L47.0650315,69.1462083 C48.8966981,68.182875 51.0858648,68.182875 52.9175315,69.1462083 L63.7183648,74.8245417 C68.3325315,77.2495417 73.7250315,73.3320417 72.8433648,68.1945417 L70.7816981,56.1670417 C70.4316981,54.1270417 71.1075315,52.045375 72.5900315,50.6012083 L81.3283648,42.082875 Z" id="Fill-31" fill="#B7DFFC"></path>
                        <path d="M61.1314481,56.4822917 C62.0122815,61.6197917 56.6197815,65.5372917 52.0064481,63.1114583 L41.2047815,57.4339583 C39.3731148,56.4697917 37.1839481,56.4697917 35.3506148,57.4339583 L24.5514481,63.1114583 C19.9356148,65.5372917 14.5447815,61.6197917 15.4256148,56.4822917 L17.4889481,44.4547917 C17.8389481,42.4147917 17.1622815,40.333125 15.6797815,38.888125 L6.94228147,30.370625 C3.20894814,26.7322917 5.26894814,20.393125 10.4264481,19.643125 L22.5031148,17.888125 C24.5514481,17.590625 26.3222815,16.3047917 27.2381148,14.448125 L32.6389481,3.505625 C34.9456148,-1.16854167 41.6106148,-1.16854167 43.9181148,3.505625 L49.3181148,14.448125 C50.2347815,16.3047917 52.0056148,17.590625 54.0539481,17.888125 L57.6889481,18.4164583" id="Stroke-33" stroke="#02B188" stroke-width="2.356" stroke-linecap="round" stroke-linejoin="round"></path>
                        <path d="M66.1297815,19.643125 C71.2881148,20.393125 73.3481148,26.7322917 69.6156148,30.370625 L60.8764481,38.888125 C59.3947815,40.333125 58.7181148,42.4147917 59.0681148,44.4547917 L59.9114481,49.373125" id="Stroke-35" stroke="#02B188" stroke-width="2.356" stroke-linecap="round" stroke-linejoin="round"></path>
                        <path d="M14.1237815,14.169875 C16.7304481,13.7482083 19.3371148,13.3257083 21.9437815,12.9032083" id="Stroke-37" stroke="#02B188" stroke-width="2.356" stroke-linecap="round" stroke-linejoin="round"></path>
                        <path d="M2.25044814,31.9242083 C-0.474551864,29.253375 -1.49871853,21.4125417 3.68544814,17.4150417 C5.32044814,16.1542083 7.22378147,15.2875417 9.2621148,14.9575417" id="Stroke-39" stroke="#02B188" stroke-width="2.356" stroke-linecap="round" stroke-linejoin="round"></path>
                    </g>
                </g>
            </g>
        </g>
    </g>
</svg>