<?xml version="1.0" encoding="UTF-8"?>
<svg width="328px" height="27px" viewBox="0 0 328 27" version="1.1" xmlns="http://www.w3.org/2000/svg" xmlns:xlink="http://www.w3.org/1999/xlink">
    <!-- Generator: Sketch 52.6 (67491) - http://www.bohemiancoding.com/sketch -->
    <title>logos</title>
    <desc>Created with Sketch.</desc>
    <g id="Page-1" stroke="none" stroke-width="1" fill="none" fill-rule="evenodd">
        <g id="Affiliate" transform="translate(-130.000000, -667.000000)" fill="#BDD0DF">
            <g id="01.-Header" transform="translate(100.000000, 0.000000)">
                <g id="Easy-money" transform="translate(30.000000, 256.000000)">
                    <g id="logos" transform="translate(0.000000, 411.000000)">
                        <g id="milo" transform="translate(137.000000, 1.000000)" fill-rule="nonzero">
                            <path d="M39.6653,7.09405 C40.9878,7.09405 42.0599,6.02935 42.0599,4.71597 C42.0599,3.40259 40.9878,2.33789 39.6653,2.33789 C38.3428,2.33789 37.2707,3.40259 37.2707,4.71597 C37.2707,6.02935 38.3428,7.09405 39.6653,7.09405 Z" id="Path"></path>
                            <path d="M76.6515,9.78125 C76.5963,9.69102 76.5165,9.61854 76.4215,9.5724 C76.3266,9.52626 76.2204,9.50838 76.1156,9.5209 C76.0108,9.53341 75.9118,9.57578 75.8303,9.643 C75.7488,9.71022 75.6882,9.79946 75.6557,9.90016 C75.2484,11.0866 74.537,12.1446 73.593,12.9679 C73.5456,9.70991 72.289,7.75989 69.2542,7.75989 C67.6657,7.75989 66.504,8.25928 65.7216,9.06783 C65.0834,8.74409 64.3735,8.5886 63.6589,8.61599 C60.8138,8.61599 57.9924,15.6313 59.0593,20.9582 C58.7511,21.5765 57.9924,22.6942 56.5462,22.6704 C52.4208,22.5753 58.9408,3.9074 58.9408,2.40921 C58.9408,0.887238 55.0999,-1.65731 54.2701,1.52932 C52.9661,6.40438 49.8128,16.1069 50.3107,21.6954 C49.8602,22.2186 49.1963,22.7418 48.3191,22.6942 C44.0515,22.504 50.7137,3.93118 50.7137,2.43299 C50.7137,0.911019 47.0151,-1.63353 46.043,1.5531 C44.5494,6.35682 41.4435,15.9167 41.8939,21.5527 C41.6673,21.9138 41.3521,22.2104 40.9785,22.4144 C40.6049,22.6184 40.1855,22.723 39.7601,22.718 C36.6542,22.6467 39.7608,16.2021 40.235,11.8502 C40.4958,9.44832 37.3425,9.04405 36.7497,9.44832 C36.0385,9.92394 35.2554,12.7776 33.8566,17.5576 C33.4334,18.8866 33.2331,20.2768 33.2638,21.6716 C32.8134,22.1473 32.1258,22.6942 31.2012,22.6942 C25.7006,22.6942 39.3808,2.43299 29.6601,2.43299 C26.815,2.43299 24.8708,4.12142 23.8988,5.23912 C24.5863,1.14883 23.4246,0.268938 20.6269,0.126253 C16.9757,-0.0639932 14.5337,2.21896 13.2534,3.78849 C12.8266,1.90981 11.5463,0.126253 8.17963,0.126253 C4.50473,0.126253 0,4.43058 0,7.95013 C0,10.5185 1.61222,12.302 3.53265,12.302 C4.05933,12.293 4.5744,12.1454 5.02633,11.874 C5.10955,11.8259 5.18178,11.7609 5.23834,11.6831 C5.2949,11.6052 5.33453,11.5164 5.35465,11.4222 C5.37476,11.328 5.37493,11.2307 5.35513,11.1364 C5.33533,11.0422 5.296,10.9532 5.23971,10.8752 C4.6944,10.0904 3.79345,8.56843 3.79345,7.07024 C3.79345,4.40679 5.28713,1.83847 7.27869,1.83847 C10.6217,1.83847 5.09745,20.007 4.38618,22.3137 C4.33404,22.4696 4.34251,22.6395 4.40989,22.7893 C4.74182,23.5741 5.92727,25.9284 7.75287,25.9284 C8.89091,25.9284 13.1585,7.95013 13.1585,7.95013 C13.3072,7.28581 13.3945,6.60916 13.4193,5.92876 C14.6522,4.31167 16.4541,2.07628 18.09,2.43299 C20.9825,3.05129 15.3635,19.7692 14.6285,22.2424 C14.5731,22.4399 14.5899,22.6507 14.6759,22.8369 C15.1027,23.6692 16.4304,25.9522 18.0189,25.9522 C19.1806,25.9522 20.9114,16.4399 22.903,9.30564 C22.9504,9.09161 23.0215,8.90136 23.0689,8.71112 C23.8513,7.18915 25.3687,4.97753 27.5974,5.21534 C31.2012,5.57205 19.394,25.9284 28.2849,25.9284 C30.5847,25.9284 32.8134,24.24 33.5958,23.5979 C34.307,25.4528 35.8718,25.9284 36.7491,25.9284 C39.7601,25.9284 41.9888,23.3601 42.131,23.2174 C42.5815,24.9058 43.5536,25.976 45.3318,25.9997 C47.7027,26.0235 49.8839,24.3589 50.69,23.6454 C51.1642,25.0961 52.1363,25.9997 53.7485,25.9997 C56.9255,25.9997 59.0119,23.8119 59.6995,22.9558 C60.5293,24.7394 62.0704,25.9522 64.5124,25.9522 C68.5667,25.9522 71.4592,22.7418 72.8343,18.3661 C72.9291,18.0807 73.0003,17.7954 73.0951,17.4862 C75.9402,16.2972 76.77,13.824 76.9834,12.1118 C77.0545,10.8038 76.8885,10.1617 76.6515,9.78125 Z M68.7089,13.9905 C66.5988,13.0154 64.8206,10.2806 67.4049,10.2806 C68.5192,10.2806 68.9223,11.3032 68.7089,13.9905 Z M63.3744,18.9131 C63.6911,17.3077 64.1189,15.7264 64.6547,14.1807 C65.2,15.9643 66.4091,17.4862 68.0214,17.9381 C66.3143,25.3577 62.3312,24.8583 63.3744,18.9131 Z" id="Shape"></path>
                        </g>
                        <path d="M245.57964,0 L244,0 L244,1.60039 L244,16.9693 L245.57964,16.9693 L245.57964,1.60039 L262.6466,1.60039 L262.6466,10.4134 L260.642,10.4134 L260.642,12.0138 L262.6466,12.0138 L264.2263,12.0138 L264.2263,10.4134 L264.2263,1.60039 L264.2263,1.57647 L264.2263,0 L245.57964,0 Z M256.7661,5.75332 C257.2245,6.21769 257.4822,6.84731 257.4828,7.50397 C257.4834,8.07352 257.2904,8.62594 256.9363,9.06829 C256.5821,9.51064 256.0884,9.81593 255.5382,9.93285 L256.7079,12.0138 L254.8879,12.0138 L253.75045,9.98284 L250.74568,9.98284 L250.74568,5.02729 L255.0382,5.02729 C255.6864,5.02789 256.3078,5.289 256.7661,5.75332 Z M252.32101,8.37375 L255.0382,8.37375 L255.0382,8.38245 C255.2682,8.38245 255.4887,8.2899 255.6513,8.12516 C255.8139,7.96043 255.9053,7.73696 255.9053,7.50397 C255.9053,7.27099 255.8139,7.04756 255.6513,6.88282 C255.4887,6.71805 255.2682,6.6255 255.0382,6.6255 L252.32101,6.6255 L252.32101,8.37375 Z M250.74137,20.1701 L250.74137,15.2211 L250.74564,15.2211 L255.0382,15.2211 C255.6382,15.2292 256.2144,15.4604 256.6571,15.8708 C257.0999,16.2812 257.3783,16.8421 257.4395,17.4469 C257.5008,18.0517 257.3404,18.6582 256.9891,19.1511 C256.6377,19.6439 256.1199,19.9888 255.5339,20.1201 L256.7036,22.201 L254.8836,22.201 L253.7461,20.1701 L250.74137,20.1701 Z M255.0382,16.8062 L252.32101,16.8062 L252.32101,18.5632 L255.0382,18.5632 C255.2681,18.5632 255.4887,18.4706 255.6513,18.3059 C255.8139,18.1411 255.9052,17.9177 255.9052,17.6847 C255.9052,17.4517 255.8139,17.2283 255.6513,17.0635 C255.4887,16.8988 255.2681,16.8062 255.0382,16.8062 Z M262.6466,25.3996 L262.6466,13.6142 L264.2263,13.6142 L264.2263,25.3996 L264.2263,27 L244,27 L244,25.3996 L244,20.1679 L244,18.5697 L247.58424,18.5697 L247.58424,20.1679 L245.57964,20.1679 L245.57964,25.3996 L262.6466,25.3996 Z M274.5519,15.2058 L270.9677,15.2058 L270.9677,20.1244 L273.2599,20.1244 L274.3888,22.1401 L276.1938,22.1401 L275.0327,20.0744 C275.6239,19.9545 276.1499,19.6161 276.5083,19.1248 C276.8667,18.6337 277.0318,18.0249 276.9715,17.4172 C276.9113,16.8094 276.6299,16.2461 276.1823,15.8369 C275.7346,15.4278 275.1527,15.202 274.5498,15.2037 L274.5519,15.2058 Z M274.5498,18.5371 L272.5452,18.5371 L272.5452,16.7975 L274.5498,16.7975 C274.7775,16.7975 274.9958,16.8892 275.1568,17.0523 C275.3178,17.2154 275.4083,17.4366 275.4083,17.6673 C275.4083,17.898 275.3178,18.1192 275.1568,18.2823 C274.9958,18.4455 274.7775,18.5371 274.5498,18.5371 Z M270.9677,5.03164 L274.5519,5.03164 L274.5498,5.02294 C275.1527,5.02133 275.7346,5.24704 276.1823,5.6562 C276.6299,6.06536 276.9113,6.62869 276.9715,7.23645 C277.0318,7.84421 276.8667,8.45295 276.5083,8.94413 C276.1499,9.43534 275.6239,9.77381 275.0327,9.8937 L276.1938,11.9594 L274.3888,11.9594 L273.2599,9.95239 L270.9677,9.95239 L270.9677,5.03164 Z M272.5452,8.36505 L274.5498,8.36505 C274.7775,8.36505 274.9958,8.27344 275.1568,8.11031 C275.3178,7.94719 275.4083,7.72598 275.4083,7.49528 C275.4083,7.26461 275.3178,7.04336 275.1568,6.88028 C274.9958,6.71715 274.7775,6.6255 274.5498,6.6255 L272.5452,6.6255 L272.5452,8.36505 Z M281.7956,15.1189 C280.8129,15.0872 279.8575,15.4489 279.1362,16.1256 C278.7888,16.4459 278.5132,16.8379 278.3281,17.2754 C278.1429,17.7127 278.0526,18.1852 278.0631,18.661 C278.053,19.1403 278.1434,19.6162 278.3284,20.0574 C278.5134,20.4987 278.7887,20.895 279.1362,21.2204 C279.8694,21.8809 280.8165,22.2458 281.7978,22.2458 C282.7789,22.2458 283.7257,21.8809 284.4589,21.2204 C284.8063,20.8962 285.0815,20.5009 285.2665,20.0609 C285.4514,19.6208 285.5421,19.1458 285.5321,18.6675 C285.5421,18.1928 285.4514,17.7214 285.2665,17.2851 C285.0812,16.8489 284.8059,16.458 284.4589,16.1387 C283.7386,15.4561 282.7815,15.0896 281.7956,15.1189 Z M283.1691,20.1527 C282.9988,20.3454 282.7899,20.4989 282.5564,20.6028 C282.3228,20.7067 282.0701,20.7586 281.8147,20.755 C281.5568,20.7575 281.3015,20.7052 281.065,20.6014 C280.8283,20.4977 280.6158,20.3448 280.4412,20.1527 C280.2526,19.9568 280.1045,19.7247 280.0058,19.4701 C279.907,19.2154 279.8595,18.9433 279.866,18.6697 C279.8587,18.3984 279.9055,18.1284 280.0036,17.8758 C280.1017,17.6232 280.2491,17.3933 280.4369,17.1998 C280.6131,17.0091 280.8267,16.8579 281.0639,16.7556 C281.3012,16.6534 281.5568,16.6025 281.8147,16.6062 C282.0693,16.6023 282.3213,16.6533 282.5549,16.7556 C282.7885,16.8579 282.9977,17.0094 283.1691,17.1998 C283.3529,17.3956 283.4966,17.6262 283.592,17.8785 C283.6874,18.1308 283.7324,18.3997 283.725,18.6697 C283.739,19.2188 283.5393,19.7515 283.1691,20.1527 Z M292.3486,17.8869 C292.1316,18.1679 291.8303,18.3694 291.4902,18.461 C291.8951,18.5306 292.2624,18.7451 292.5247,19.0655 C292.7834,19.3931 292.9193,19.8029 292.9086,20.2223 C292.9171,20.501 292.8559,20.7774 292.7307,21.0257 C292.6054,21.2739 292.4201,21.486 292.1921,21.6422 C291.7197,21.9923 291.0739,22.1662 290.2604,22.1662 L286.882,22.1662 L286.882,15.1841 L290.1422,15.1841 C290.9147,15.1841 291.5307,15.3406 291.9879,15.6559 C292.1987,15.7907 292.3715,15.9781 292.4897,16.2001 C292.6084,16.4221 292.6684,16.6713 292.664,16.9236 C292.6706,17.2719 292.5594,17.6119 292.3486,17.8869 Z M290.0434,16.5257 L288.625,16.5257 L288.625,17.963 L290.0434,17.963 C290.263,17.9747 290.4793,17.906 290.6532,17.7695 C290.7294,17.7043 290.7895,17.622 290.8289,17.5292 C290.8687,17.4364 290.886,17.3355 290.8805,17.2346 C290.8853,17.1363 290.8668,17.0383 290.8274,16.9485 C290.788,16.8587 290.7283,16.7794 290.6532,16.7171 C290.4785,16.5822 290.2626,16.5144 290.0434,16.5257 Z M290.0434,20.7942 C290.3175,20.8084 290.5887,20.7321 290.816,20.5767 L290.816,20.5854 C290.907,20.5198 290.9799,20.4325 291.0293,20.3311 C291.0783,20.2297 291.1015,20.1176 291.0975,20.0048 C291.0975,19.8986 291.0717,19.7938 291.0227,19.6999 C290.9737,19.6059 290.9029,19.5255 290.816,19.4656 C290.5879,19.3116 290.3175,19.2354 290.0434,19.2481 L288.625,19.2481 L288.625,20.7942 L290.0434,20.7942 Z M296.3191,15.1797 L294.5658,15.1797 L294.5658,22.164 L296.3191,22.164 L296.3191,15.1797 Z M299.8884,15.1797 L303.0689,19.4895 L303.0689,15.1797 L304.7025,15.1797 L304.7025,22.1619 L303.157,22.1619 L299.9871,17.863 L299.9871,22.1619 L298.341,22.1619 L298.341,15.1797 L299.8884,15.1797 Z M310.6131,18.2653 C310.2616,18.1303 309.9035,18.0134 309.5403,17.9152 C309.2242,17.8356 308.9184,17.7203 308.6281,17.5716 C308.5219,17.529 308.4302,17.4563 308.3639,17.3622 C308.2976,17.2681 308.2596,17.1566 308.2545,17.0411 C308.2545,16.704 308.5076,16.5322 309.0119,16.5322 C309.3682,16.5464 309.7201,16.6161 310.0553,16.7388 C310.4602,16.8704 310.85,17.0454 311.2184,17.2607 L311.8775,15.8734 C311.0681,15.3459 310.122,15.0749 309.1601,15.0949 C308.3333,15.0949 307.6687,15.2863 307.1662,15.669 C306.9278,15.8411 306.7344,16.0698 306.6028,16.3352 C306.4717,16.6005 306.4065,16.8944 306.4131,17.1911 C306.4032,17.5416 306.4971,17.887 306.6835,18.1827 C306.8475,18.4444 307.0811,18.6539 307.3574,18.7872 C307.6433,18.92 307.9365,19.0369 308.2353,19.1372 C308.5485,19.2416 308.8425,19.3286 309.1107,19.3917 C309.352,19.4424 309.5812,19.5406 309.7849,19.6809 C309.8663,19.7316 309.9341,19.8025 309.9813,19.8869 C310.0288,19.9713 310.0542,20.0665 310.0553,20.1636 C310.0597,20.2538 310.0402,20.3437 309.9989,20.4237 C309.9573,20.5037 309.8951,20.5708 309.8192,20.618 C309.6184,20.7315 309.3899,20.785 309.1601,20.7724 C308.7257,20.7574 308.2979,20.6577 307.9004,20.4789 C307.4532,20.3014 307.0379,20.0509 306.6706,19.7374 L305.9924,21.1051 C306.4267,21.4626 306.9201,21.7394 307.4495,21.9227 C307.9929,22.1202 308.5658,22.2216 309.1431,22.2228 C309.8449,22.2513 310.5379,22.0534 311.1219,21.6574 C311.3721,21.4838 311.5747,21.2487 311.711,20.9742 C311.8473,20.6996 311.9125,20.3945 311.9011,20.0875 C311.9158,19.6688 311.7828,19.2586 311.5253,18.9307 C311.2855,18.6301 310.9705,18.4003 310.6131,18.2653 Z M313.8839,16.1256 C314.6053,15.4489 315.5606,15.0872 316.5432,15.1189 C317.5291,15.0896 318.4866,15.4561 319.2069,16.1387 C319.5536,16.458 319.8292,16.8489 320.0141,17.2851 C320.1994,17.7214 320.2901,18.1928 320.2797,18.6675 C320.2897,19.1458 320.1994,19.6208 320.0141,20.0609 C319.8292,20.5009 319.5539,20.8962 319.2069,21.2204 C318.4737,21.8809 317.5265,22.2458 316.5454,22.2458 C315.5643,22.2458 314.6171,21.8809 313.8839,21.2204 C313.5365,20.8949 313.2613,20.4986 313.0764,20.0574 C312.8914,19.6162 312.8008,19.1403 312.8111,18.661 C312.8004,18.1852 312.8911,17.7128 313.076,17.2754 C313.2613,16.8381 313.5369,16.446 313.8839,16.1256 Z M317.3044,20.6028 C317.5379,20.4989 317.7468,20.3454 317.9171,20.1527 L317.9255,20.1527 C318.2936,19.7505 318.4907,19.2179 318.4748,18.6697 C318.4822,18.3995 318.4365,18.1305 318.3407,17.8783 C318.2453,17.626 318.1009,17.3954 317.9171,17.1998 C317.7454,17.0094 317.5361,16.8579 317.3025,16.7556 C317.0693,16.6533 316.8169,16.6023 316.5627,16.6062 C316.3048,16.6025 316.0492,16.6534 315.8119,16.7556 C315.5746,16.8579 315.3609,17.0091 315.1848,17.1998 C314.9969,17.3933 314.8496,17.6232 314.7512,17.8758 C314.6532,18.1284 314.6064,18.3984 314.6138,18.6697 C314.6072,18.9433 314.6547,19.2154 314.7534,19.4701 C314.8525,19.7247 315.0003,19.9568 315.1889,20.1527 C315.3635,20.3448 315.5761,20.4977 315.8126,20.6014 C316.0495,20.7052 316.3048,20.7575 316.5627,20.755 C316.8177,20.7586 317.0708,20.7067 317.3044,20.6028 Z M326.3646,15.1797 L326.3646,19.4895 L323.184,15.1797 L321.6385,15.1797 L321.6385,22.1619 L323.2827,22.1619 L323.2827,17.863 L326.4548,22.1619 L328,22.1619 L328,15.1797 L326.3646,15.1797 Z M281.9393,11.9681 L280.2094,11.9681 L280.2094,9.77846 L277.6769,5.03164 L279.4175,5.03164 L281.0702,8.05414 L282.6842,5.03164 L284.4246,5.03164 L281.9393,9.72844 L281.9393,11.9681 Z M289.9985,11.9594 L291.8616,11.9594 L288.9746,5.02294 L287.1848,5.02294 L284.2272,11.9594 L286.0173,11.9594 L286.5173,10.6808 L289.5004,10.6808 L289.9985,11.9594 Z M287.0261,9.35006 L288.0219,6.78424 L289.0004,9.35006 L287.0261,9.35006 Z M297.6156,5.03164 L299.2403,5.03164 L299.2403,11.9681 L297.7036,11.9681 L294.5551,7.69751 L294.5551,11.9681 L292.9215,11.9681 L292.9215,5.03164 L294.4564,5.03164 L297.6156,9.31312 L297.6156,5.03164 Z" id="rayan"></path>
                        <g id="dribbble-logo" transform="translate(0.000000, 1.000000)">
                            <path d="M105.2948,18.004844 C104.96486,17.766034 104.7033,17.731922 104.48724,18.186792 C100.7799,26.2041 94.53652,22.201166 95.16208,22.5537 C96.54944,21.916856 100.18866,19.005584 99.64266,14.968486 C99.31298,12.500722 97.19762,11.409008 94.94602,11.807016 C91.02262,12.48936 89.58976,16.719794 90.3175,20.46122 C90.44256,21.109452 90.67006,21.632572 90.909,22.155692 C86.4851,25.760644 84.72256,18.93736 84.51768,18.118568 C84.5065,18.073068 87.94084,15.218658 88.89608,8.406762 C89.89682,1.2764206 87.62234,-0.03137628 85.29118,0.01411228 C80.98116,0.09371726 79.82104,9.08908 81.37896,16.58332 C81.2539,16.617432 80.63978,16.958604 79.66192,16.992716 C78.9568,14.77515 75.94314,12.830532 75.15846,13.581074 C73.19104,15.457494 75.63608,19.119308 77.36482,19.403618 C76.32976,25.783394 69.8477,24.202672 71.05306,16.208036 C73.15698,12.296024 74.77184,6.462118 74.47622,2.948114 C74.37378,1.7085614 73.4526,0.03685656 71.37156,0.11646154 C67.3686,0.2756728 66.93648,9.271028 67.40266,15.662192 C67.38004,15.502968 67.15254,16.435484 65.5148,16.901742 C65.12818,14.752426 61.65978,12.580334 60.84104,13.626574 C59.31718,15.571218 61.96684,19.039722 63.2177,19.278532 C62.1829,25.658308 55.70084,24.07756 56.9062,16.08295 C59.02156,12.170938 60.62498,6.348394 60.34054,2.834416 C60.23836,1.59484 59.31718,-0.07686484 57.23588,0.00274014 C53.23292,0.1619501 52.8008,9.157304 53.26724,15.548468 C53.24436,15.389244 53.01686,16.355898 51.311,16.810768 C51.25432,14.01322 47.77448,12.739532 46.93286,13.626574 C45.44306,15.218658 47.27398,18.482464 48.9684,19.278532 C47.9336,25.658308 41.45154,24.07756 42.6569,16.08295 C44.76082,12.170938 46.37568,6.337032 46.08006,2.823028 C45.98906,1.59484 45.06788,-0.07686484 42.98658,0.00274014 C38.98362,0.1619501 38.66538,9.6122 39.13156,16.003338 C37.81232,21.655296 33.38868,28.70608 33.96848,14.570452 C34.02542,13.581074 34.08236,13.20579 33.5933,12.830532 C33.21812,12.546222 32.3765,12.68267 31.9215,12.694058 C31.36432,12.716808 31.21664,13.046592 31.10276,13.5356 C30.81858,14.809262 30.76164,16.048838 30.71614,17.743284 C30.69352,18.539326 30.62514,18.903248 30.31808,19.9836 C30.01102,21.063952 28.28254,23.031346 27.3273,22.701536 C26.00806,22.246666 26.44018,18.527964 26.6903,15.969226 C26.89518,13.944996 26.23556,13.046592 24.55245,12.716808 C23.563072,12.51211 22.960366,12.546222 21.936876,12.216412 C20.95886,11.909378 20.7428,10.067096 18.67307,10.68119 C17.535856,11.022362 18.263674,13.421876 17.990726,15.207296 C16.648814,23.975224 13.862654,24.214034 12.566216,19.96085 C18.38876,5.677438 14.237938,0.0482287 11.815648,0.0482287 C9.291048,0.0482287 6.402526,1.7881656 7.619326,12.932868 C7.027982,12.762282 6.846034,12.671308 6.18644,12.671308 C2.5132432,12.659946 0,15.639442 0,19.312644 C0,22.985846 2.5132432,25.965342 6.197828,25.965342 C8.369894,25.965342 9.893754,24.975964 11.053718,23.452104 C11.804286,24.532456 12.72544,25.988092 14.408498,25.919868 C19.41225,25.726532 20.867886,15.457494 21.038472,14.877512 C21.572954,14.957124 22.084712,15.116322 22.57372,15.195934 C23.392512,15.32102 23.460736,15.650804 23.437986,16.469596 C23.221926,23.452104 24.506976,25.897118 27.42974,25.897118 C29.05578,25.897118 30.51152,24.293646 31.51226,23.156432 C32.26288,24.703042 33.44536,25.851618 35.04904,25.897118 C38.9155,25.988092 40.4053,19.824376 40.2688,20.631806 C40.16636,21.26865 41.51966,25.851618 45.51144,25.874368 C50.44676,25.897118 51.36794,20.472608 51.47038,19.562842 C51.493,19.403618 51.48182,19.380868 51.47038,19.562842 C51.47038,19.574204 51.47038,19.596954 51.47038,19.619678 C53.03974,19.324006 53.84704,18.493852 53.84704,18.493852 C53.84704,18.493852 55.10934,25.965342 59.76074,25.885756 C64.59388,25.794756 65.5148,20.893366 65.62868,19.9381 C65.6513,19.733402 65.64012,19.710678 65.62868,19.9381 C65.62868,19.949488 65.62868,19.96085 65.62868,19.96085 C67.49366,19.278532 67.98272,18.607576 67.98272,18.607576 C67.98272,18.607576 68.98346,25.93123 73.89616,25.999454 C78.27456,26.05642 79.9006,21.564322 79.91204,19.687928 C80.65122,19.69929 82.01596,19.24442 81.9819,19.22167 C81.9819,19.22167 83.58532,25.624196 88.0659,25.95398 C90.16982,26.1131 91.75036,24.771266 92.64892,24.157172 C94.76402,25.874368 101.80352,28.0579 106.25004,20.518082 C106.88678,19.449118 105.53348,18.164068 105.2948,18.004844 Z M6.015854,23.474854 C3.866538,23.474854 2.490501,21.484736 2.490501,19.346756 C2.490501,17.208802 3.752814,15.218658 5.902156,15.218658 C6.868784,15.218658 7.403266,15.32102 8.165196,15.980614 C8.30167,16.515096 8.688316,17.754672 8.881652,18.323266 C9.131824,19.073834 9.438884,19.72204 9.734556,20.415746 C9.291048,22.212528 7.880886,23.474854 6.015854,23.474854 Z M11.247054,16.037476 C11.15608,15.88964 11.17883,15.980614 11.076468,15.84414 C10.689822,14.77515 9.927892,12.386998 9.836918,9.669062 C9.734556,6.598592 10.246314,2.993614 11.758786,2.993614 C12.782302,2.993614 13.874016,10.294544 11.247054,16.037476 Z M41.50822,12.841894 C41.26954,11.022362 41.2581,2.891278 43.2029,3.1187 C44.2832,3.550846 42.5204,11.215672 41.50822,12.841894 Z M55.75752,12.841894 C55.51884,11.022362 55.5074,2.891278 57.4522,3.1187 C58.5325,3.550846 56.7697,11.215672 55.75752,12.841894 Z M69.8932,12.955618 C69.65426,11.13606 69.64308,3.004976 71.58762,3.232424 C72.66792,3.653208 70.90538,11.329396 69.8932,12.955618 Z M85.4958,2.629718 C87.28122,2.4477518 87.20166,10.237682 83.63082,15.150434 C83.16438,13.376376 82.45952,3.243812 85.4958,2.629718 Z M93.00148,19.403618 C92.43286,16.503734 93.91122,14.604564 95.43508,14.399866 C95.96964,14.32028 96.74288,14.661426 96.89056,15.309658 C97.14094,16.526458 96.8565,18.334628 93.4336,20.620444 C93.44504,20.631806 93.12654,20.040462 93.00148,19.403618 Z M32.513,10.465104 C33.7298,10.465104 34.7191,9.475726 34.7191,8.258926 C34.7191,7.0421 33.7298,6.052722 32.513,6.052722 C31.2962,6.052722 30.30664,7.0421 30.30664,8.258926 C30.30664,9.475726 31.2962,10.465104 32.513,10.465104 Z" id="Shape"></path>
                        </g>
                    </g>
                </g>
            </g>
        </g>
    </g>
</svg>