<?xml version="1.0" encoding="UTF-8"?>
<svg width="89px" height="94px" viewBox="0 0 89 94" version="1.1" xmlns="http://www.w3.org/2000/svg" xmlns:xlink="http://www.w3.org/1999/xlink">
    <!-- Generator: Sketch 62 (91390) - https://sketch.com -->
    <title>ill_Auto-Reminders</title>
    <desc>Created with Sketch.</desc>
    <g id="Page-1" stroke="none" stroke-width="1" fill="none" fill-rule="evenodd">
        <g id="Contracts" transform="translate(-1092.000000, -1152.000000)">
            <g id="02.Make-sure-you’re-being-professional" transform="translate(250.000000, 950.000000)">
                <g id="Auto-Reminders" transform="translate(842.000000, 202.000000)">
                    <g id="ill_Auto-Reminders">
                        <path d="M45.2214,9.47618148 C45.1100296,9.26421852 44.9986593,9.05225556 44.8621407,8.85825556 L36.7105481,8.85825556 L36.7105481,7.68707037 C36.7105481,7.3314037 36.764437,6.9937 36.8147333,6.6524037 C34.8172519,7.56492222 33.3802148,9.45462593 33.078437,11.7179593 C36.6782148,10.2665519 40.5941407,9.45103333 44.6968815,9.45103333 C44.8729185,9.45103333 45.0489556,9.47258889 45.2214,9.47618148" id="Fill-41" fill="#A7E0FE"></path>
                        <path d="M34.9523333,77.3284 L50.3681481,77.3284 C50.2567778,77.055363 50.1561852,76.7679556 50.0591852,76.4913259 L3.79377778,76.4913259 L3.79377778,70.4845111 C3.79377778,69.5576222 3.95544444,68.6810296 4.18537037,67.8259926 C1.66696296,69.453437 7.32622193e-12,72.2592519 7.32622193e-12,75.467437 L7.32622193e-12,80.2815111 L35.131963,80.2815111 C35.0277778,79.7066963 34.9523333,79.1246963 34.9523333,78.5211407 L34.9523333,77.3284 Z" id="Fill-43" fill="#A7E0FE"></path>
                        <path d="M13.4736593,40.6782074 C13.4736593,35.231837 14.8855481,30.1088 17.3428815,25.6468 C12.6401778,30.9530593 9.75891852,37.9119111 9.75891852,45.5605407 L9.75891852,61.4865037 C10.901363,60.9691704 12.1551778,60.6602074 13.4736593,60.6063185 L13.4736593,40.6782074 Z" id="Fill-45" fill="#A7E0FE"></path>
                        <path d="M35.6083407,83.4401185 L30.5751185,83.4401185 C30.5751185,88.3763407 34.5772667,92.3784889 39.5170815,92.3784889 C42.6498222,92.3784889 45.3658222,90.7474519 46.946563,88.3044889 C46.1382296,88.523637 45.2831926,88.6637481 44.3958222,88.6637481 C40.6092296,88.6637481 37.3291926,86.5369333 35.6083407,83.4401185" id="Fill-47" fill="#A7E0FE"></path>
                        <path d="M53.6205222,82.9702074 C52.6469296,84.7485407 51.1524111,86.1855778 49.3848556,87.1591704 C53.0564852,91.2044296 58.2944852,93.7875037 64.1791519,93.7875037 C69.7907815,93.7875037 74.8491519,91.4810593 78.4956333,87.7770963 C75.7005963,89.1171333 72.5965963,89.8931333 69.3021889,89.8931333 C63.0977815,89.8931333 57.5220778,87.2130593 53.6205222,82.9702074" id="Fill-49" fill="#A7E0FE"></path>
                        <path d="M39.1729111,6.52055556 C39.208837,6.35888889 39.3094296,6.22237037 39.3597259,6.06788889 C40.0602815,3.91951852 42.0254296,2.33518519 44.4001333,2.33518519 C46.9508741,2.33518519 49.0920593,4.12788889 49.6273556,6.52055556 L41.9176519,6.52055556 L39.1729111,6.52055556 Z M52.0918741,8.85574074 L52.0918741,7.68814815 C52.0918741,3.44888889 48.6429852,2.6803251e-13 44.4001333,2.6803251e-13 C40.5129481,2.6803251e-13 37.3227259,2.90640741 36.8161704,6.65348148 C36.7694667,6.99477778 36.7048,7.33248148 36.7048,7.68814815 L36.7048,8.85574074 L44.8671704,8.85574074 L52.0918741,8.85574074 Z" id="Fill-51" fill="#00B388"></path>
                        <path d="M84.8168,76.563537 C83.8539852,78.8520185 82.4241333,80.8782407 80.6673556,82.577537 C77.4232444,85.7030926 73.0474667,87.6466852 68.1974667,87.6466852 C62.5283556,87.6466852 57.5202815,84.9630185 54.2150963,80.8602778 C53.3600593,79.7860926 52.6092074,78.636463 52.0056519,77.3862407 C51.8727259,77.1060185 51.6930963,76.8509444 51.5745407,76.563537 C51.2619852,75.8162778 51.0608,75.0187222 50.848837,74.2319444 C50.460837,72.7517963 50.1770222,71.2357222 50.1770222,69.6334259 C50.1770222,59.7035 58.256763,51.6201667 68.1974667,51.6201667 C68.7722815,51.6201667 69.3219481,51.7099815 69.8752074,51.7746481 C71.1469852,51.9183519 72.4008,52.1590556 73.5935407,52.5362778 C74.3982815,52.7913519 75.1742815,53.0715741 75.9251333,53.4344259 C81.985837,56.3372407 86.2107259,62.4769815 86.2107259,69.6334259 C86.2107259,72.0763889 85.7113556,74.3972037 84.8275778,76.5240185 C84.8239852,76.5383889 84.8203926,76.5527593 84.8168,76.563537 L84.8168,76.563537 Z M44.4001333,86.3282037 C41.960763,86.3282037 39.7872444,85.196537 38.3573926,83.4397593 C37.6280963,82.5344259 37.1215407,81.449463 36.8485037,80.2782778 C36.8125778,80.091463 36.7443185,79.9190185 36.7119852,79.7250185 L50.5470593,79.7250185 C50.8775778,80.2998333 51.2296519,80.8530926 51.6176519,81.3919815 C50.4716148,84.2732407 47.683763,86.3282037 44.4001333,86.3282037 L44.4001333,86.3282037 Z M6.12105926,74.2319444 L6.12105926,70.682463 C6.12105926,69.2777593 6.52702222,67.9700556 7.18446667,66.8347963 C7.80957778,65.7390556 8.69335556,64.8121667 9.75317037,64.1403519 C10.9459111,63.3895 12.3542074,62.9368333 13.8666889,62.9368333 L15.8102815,62.9368333 L15.8102815,40.6771296 C15.8102815,32.0944259 19.5932815,24.3955 25.5569852,19.0964259 C29.0813185,15.9636852 33.3744667,13.6859815 38.1166889,12.5722778 C40.2363185,12.0765 42.4313926,11.7855 44.7019111,11.7855 C45.1294296,11.7855 45.5389852,11.8322037 45.9665037,11.8501667 C61.3068741,12.5183889 73.5935407,25.1715 73.5935407,40.6771296 L73.5935407,50.0322407 C72.3972074,49.7017222 71.1433926,49.5149074 69.8752074,49.3999444 C69.3219481,49.3532407 68.7650963,49.2813889 68.1974667,49.2813889 C56.9742074,49.2813889 47.8454296,58.4101667 47.8454296,69.6334259 C47.8454296,71.2177593 48.0466148,72.7482037 48.3843185,74.2319444 L6.12105926,74.2319444 Z M75.9251333,50.8190185 L75.9251333,40.6771296 C75.9251333,23.6338704 62.197837,9.75927778 45.222837,9.47546296 C45.0503926,9.47187037 44.8779481,9.45031481 44.7019111,9.45031481 C40.5883926,9.45031481 36.6796519,10.2658333 33.0798741,11.7172407 C26.3689111,14.4188704 20.8075778,19.369463 17.3443185,25.6457222 C14.8833926,30.1077222 13.4750963,35.2307593 13.4750963,40.6771296 L13.4750963,60.6124259 C12.1494296,60.6591296 10.9028,60.9680926 9.75317037,61.4818333 C7.01920741,62.7176852 4.95705926,65.1390926 4.16668889,68.0886111 C3.93676296,68.9185 3.77868889,69.7771296 3.77868889,70.682463 L3.77868889,76.563537 L49.0884667,76.563537 C49.1854667,76.8365741 49.2716889,77.1167963 49.3902444,77.3862407 L34.2941704,77.3862407 L34.2941704,78.5574259 C34.2941704,79.1466111 34.3696148,79.7178333 34.4630222,80.2782778 C34.6642074,81.4171296 35.0593926,82.4733519 35.6090593,83.4397593 C37.3335037,86.5365741 40.602763,88.6633889 44.4001333,88.6633889 C45.2875037,88.6633889 46.131763,88.5232778 46.9508741,88.3113148 C47.7484296,88.0957593 48.4885037,87.7652407 49.1926519,87.3772407 C50.8811704,86.4395741 52.2930593,85.0743889 53.2307259,83.3750926 C56.9526519,87.4239444 62.2768741,89.9818704 68.1974667,89.9818704 C71.3409852,89.9818704 74.3084667,89.2453889 76.9669852,87.9664259 C83.8072815,84.6827963 88.5459111,77.7095741 88.5459111,69.6334259 C88.5459111,61.1477222 83.3258741,53.8691296 75.9251333,50.8190185 L75.9251333,50.8190185 Z" id="Fill-53" fill="#00B388"></path>
                        <path d="M68.1978259,59.3205296 C68.7620641,59.3205296 69.2328235,59.7207593 69.3416972,60.2528116 L69.3654185,60.4881222 L69.3639815,68.464037 L82.1011593,68.4672704 C82.6653974,68.4672704 83.1361569,68.8675001 83.2450305,69.3995523 L83.2687519,69.634863 C83.2687519,70.1991011 82.8685221,70.6698606 82.3364699,70.7787342 L82.1011593,70.8024556 L67.0302333,70.8024556 L67.0302333,60.4881222 C67.0302333,59.8432786 67.5529823,59.3205296 68.1978259,59.3205296 Z" id="Stroke-55" fill="#00B388" fill-rule="nonzero"></path>
                    </g>
                </g>
            </g>
        </g>
    </g>
</svg>