<?xml version="1.0" encoding="UTF-8"?>
<svg width="85px" height="95px" viewBox="0 0 85 95" version="1.1" xmlns="http://www.w3.org/2000/svg" xmlns:xlink="http://www.w3.org/1999/xlink">
    <!-- Generator: Sketch 61.1 (89650) - https://sketch.com -->
    <title>Group 179</title>
    <desc>Created with Sketch.</desc>
    <g id="Page-1" stroke="none" stroke-width="1" fill="none" fill-rule="evenodd">
        <g id="v2_B" transform="translate(-877.000000, -2706.000000)">
            <g id="05.-The-Possibilities" transform="translate(250.000000, 2444.000000)">
                <g id="5" transform="translate(566.000000, 208.000000)">
                    <g id="Group-179" transform="translate(63.000000, 56.000000)">
                        <path d="M14.46237,84.27816 L66.13047,84.27816 C67.41567,84.27816 68.45787,83.23596 68.45787,81.95076 L68.45787,28.70856 C68.45787,19.55466 61.03737,12.13416 51.88347,12.13416 L14.46237,12.13416 C13.17627,12.13416 12.13407,13.17636 12.13407,14.46156 L12.13407,81.95076 C12.13407,83.23596 13.17627,84.27816 14.46237,84.27816" id="Fill-56" fill="#B7DFFC"></path>
                        <path d="M-2.30215846e-12,72.144 L56.3238,72.144 L56.3238,14.247 C56.3238,6.3783 49.9455,1.58593139e-12 42.0768,1.58593139e-12 L-2.30215846e-12,1.58593139e-12 L-2.30215846e-12,72.144 Z" id="Fill-58" fill="#FFFFFF"></path>
                        <path d="M-2.30215846e-12,72.144 L56.3238,72.144 L56.3238,14.247 C56.3238,6.3783 49.9455,1.58593139e-12 42.0768,1.58593139e-12 L-2.30215846e-12,1.58593139e-12 L-2.30215846e-12,72.144 Z" id="Stroke-60" stroke="#02B187" stroke-width="2.7" stroke-linecap="round" stroke-linejoin="round"></path>
                        <path d="M8.16849,15.97266 C8.16849,20.13696 11.54439,23.51196 15.70869,23.51196 C19.87299,23.51196 23.24889,20.13696 23.24889,15.97266 C23.24889,11.80836 19.87299,8.43336 15.70869,8.43336 C11.54439,8.43336 8.16849,11.80836 8.16849,15.97266" id="Fill-62" fill="#02B187"></path>
                        <g id="Group-67" transform="translate(22.948200, 28.457100)">
                            <path d="M47.44512,34.74936 L47.44512,26.96886 C47.44512,24.15366 49.61502,21.69756 52.42932,21.61296 C55.34082,21.52566 57.73122,23.86026 57.73122,26.75376 L57.73122,35.65386 L57.73122,43.76016 C57.73122,54.47286 49.04622,63.15696 38.33352,63.15696 C28.93302,63.15696 26.16372,61.76646 20.00142,55.87146 C15.37182,51.44256 1.62072,38.01276 1.62072,38.01276 C-0.25848,36.18666 -0.37008,33.20586 1.36782,31.24386 C3.15972,29.22156 6.24942,29.02986 8.27712,30.81456 L16.58682,38.12706 L16.58682,5.59386 C16.58682,2.77866 18.75672,0.32256 21.57192,0.23796 C24.48432,0.15066 26.87382,2.48526 26.87382,5.37876 L26.87382,29.47176" id="Fill-64" fill="#FFFFFF"></path>
                            <path d="M47.44512,34.74936 L47.44512,26.96886 C47.44512,24.15366 49.61502,21.69756 52.42932,21.61296 C55.34082,21.52566 57.73122,23.86026 57.73122,26.75376 L57.73122,35.65386 L57.73122,43.76016 C57.73122,54.47286 49.04622,63.15696 38.33352,63.15696 C28.93302,63.15696 26.16372,61.76646 20.00142,55.87146 C15.37182,51.44256 1.62072,38.01276 1.62072,38.01276 C-0.25848,36.18666 -0.37008,33.20586 1.36782,31.24386 C3.15972,29.22156 6.24942,29.02986 8.27712,30.81456 L16.58682,38.12706 L16.58682,5.59386 C16.58682,2.77866 18.75672,0.32256 21.57192,0.23796 C24.48432,0.15066 26.87382,2.48526 26.87382,5.37876 L26.87382,29.47176" id="Stroke-66" stroke="#02B187" stroke-width="2.7" stroke-linecap="round" stroke-linejoin="round"></path>
                        </g>
                        <g id="Group-71" transform="translate(49.048200, 43.757100)">
                            <path d="M0.77346,14.17194 L0.77346,5.15754 C0.77346,2.31714 3.07566,0.01494 5.91606,0.01494 C8.75646,0.01494 11.05956,2.31714 11.05956,5.15754 L11.05956,17.88354" id="Fill-68" fill="#FFFFFF"></path>
                            <path d="M0.77346,14.17194 L0.77346,5.15754 C0.77346,2.31714 3.07566,0.01494 5.91606,0.01494 C8.75646,0.01494 11.05956,2.31714 11.05956,5.15754 L11.05956,17.88354" id="Stroke-70" stroke="#02B187" stroke-width="2.7" stroke-linecap="round" stroke-linejoin="round"></path>
                        </g>
                        <g id="Group-75" transform="translate(59.848200, 46.457100)">
                            <path d="M0.25929,15.18309 L0.25929,5.46039 C0.25929,2.62089 2.56239,0.31779 5.40189,0.31779 C8.24229,0.31779 10.54539,2.62089 10.54539,5.46039 L10.54539,16.74909" id="Fill-72" fill="#FFFFFF"></path>
                            <path d="M0.25929,15.18309 L0.25929,5.46039 C0.25929,2.62089 2.56239,0.31779 5.40189,0.31779 C8.24229,0.31779 10.54539,2.62089 10.54539,5.46039 L10.54539,16.74909" id="Stroke-74" stroke="#02B187" stroke-width="2.7" stroke-linecap="round" stroke-linejoin="round"></path>
                        </g>
                        <line x1="8.16849" y1="32.21136" x2="28.16199" y2="32.21136" id="Stroke-148" stroke="#02B187" stroke-width="2.7" stroke-linecap="round" stroke-linejoin="round" stroke-dasharray="5.4,7.2"></line>
                        <line x1="8.16849" y1="40.88484" x2="22.18509" y2="40.88484" id="Stroke-149" stroke="#02B187" stroke-width="2.7" stroke-linecap="round" stroke-linejoin="round" stroke-dasharray="5.4,7.2"></line>
                    </g>
                </g>
            </g>
        </g>
    </g>
</svg>