<?xml version="1.0" encoding="UTF-8"?>
<svg width="91px" height="91px" viewBox="0 0 91 91" version="1.1" xmlns="http://www.w3.org/2000/svg" xmlns:xlink="http://www.w3.org/1999/xlink">
    <!-- Generator: Sketch 61.1 (89650) - https://sketch.com -->
    <title>Group 180</title>
    <desc>Created with Sketch.</desc>
    <g id="Page-1" stroke="none" stroke-width="1" fill="none" fill-rule="evenodd">
        <g id="v2_B" transform="translate(-874.000000, -2937.000000)">
            <g id="05.-The-Possibilities" transform="translate(250.000000, 2444.000000)">
                <g id="6" transform="translate(566.000000, 438.000000)">
                    <g id="Group-180" transform="translate(60.000000, 57.000000)">
                        <path d="M70.46325,78.78951 L21.42945,78.78951 L6.43005,88.94691 L6.43005,27.70641 C6.43005,21.92571 11.11635,17.24031 16.89525,17.24031 L70.46325,17.24031 C76.24395,17.24031 80.92935,21.92571 80.92935,27.70641 L80.92935,68.32251 C80.92935,74.10321 76.24395,78.78951 70.46325,78.78951" id="Fill-76" fill="#B9E0FE"></path>
                        <path d="M64.0323,72.35901 L14.9994,72.35901 L7.67386155e-13,82.51731 L7.67386155e-13,21.27681 C7.67386155e-13,15.49611 4.6863,10.80981 10.4661,10.80981 L64.0323,10.80981 C69.813,10.80981 74.4993,15.49611 74.4993,21.27681 L74.4993,61.89291 C74.4993,67.67271 69.813,72.35901 64.0323,72.35901" id="Fill-78" fill="#FFFFFF"></path>
                        <path d="M64.0323,72.35901 L14.9994,72.35901 L7.67386155e-13,82.51731 L7.67386155e-13,21.27681 C7.67386155e-13,15.49611 4.6863,10.80981 10.4661,10.80981 L64.0323,10.80981 C69.813,10.80981 74.4993,15.49611 74.4993,21.27681 L74.4993,61.89291 C74.4993,67.67271 69.813,72.35901 64.0323,72.35901 Z" id="Stroke-80" stroke="#02B187" stroke-width="2.7" stroke-linecap="round" stroke-linejoin="round"></path>
                        <path d="M26.17254,57.62241 C26.17254,58.83111 25.19244,59.81121 23.98284,59.81121 C22.77504,59.81121 21.79494,58.83111 21.79494,57.62241 C21.79494,56.41371 22.77504,55.43361 23.98284,55.43361 C25.19244,55.43361 26.17254,56.41371 26.17254,57.62241" id="Fill-82" fill="#02B187"></path>
                        <path d="M39.43782,57.62241 C39.43782,58.83111 38.45772,59.81121 37.24902,59.81121 C36.04122,59.81121 35.06112,58.83111 35.06112,57.62241 C35.06112,56.41371 36.04122,55.43361 37.24902,55.43361 C38.45772,55.43361 39.43782,56.41371 39.43782,57.62241" id="Fill-84" fill="#02B187"></path>
                        <path d="M52.70409,57.62241 C52.70409,58.83111 51.72399,59.81121 50.51529,59.81121 C49.30659,59.81121 48.32649,58.83111 48.32649,57.62241 C48.32649,56.41371 49.30659,55.43361 50.51529,55.43361 C51.72399,55.43361 52.70409,56.41371 52.70409,57.62241" id="Fill-86" fill="#02B187"></path>
                        <path d="M59.92344,36.46755 L50.24484,26.78895 L75.02814,2.00475 C77.70114,-0.66825 82.03464,-0.66825 84.70764,2.00475 C87.38064,4.67775 87.38064,9.01125 84.70764,11.68335 L59.92344,36.46755 Z" id="Fill-88" fill="#02B187"></path>
                        <path d="M59.92344,36.46755 L50.24484,26.78895 L75.02814,2.00475 C77.70114,-0.66825 82.03464,-0.66825 84.70764,2.00475 C87.38064,4.67775 87.38064,9.01125 84.70764,11.68335 L59.92344,36.46755 Z" id="Stroke-90" stroke="#02B187" stroke-width="2.7" stroke-linecap="round" stroke-linejoin="round"></path>
                        <polygon id="Fill-92" fill="#FFFFFF" points="50.24493 26.78859 59.92353 36.46719 48.08763 39.67929"></polygon>
                        <polygon id="Stroke-94" stroke="#02B187" stroke-width="2.7" stroke-linecap="round" stroke-linejoin="round" points="50.24493 26.78859 59.92353 36.46719 48.08763 39.67929"></polygon>
                    </g>
                </g>
            </g>
        </g>
    </g>
</svg>