<?xml version="1.0" encoding="UTF-8"?>
<svg width="102px" height="104px" viewBox="0 0 102 104" version="1.1" xmlns="http://www.w3.org/2000/svg" xmlns:xlink="http://www.w3.org/1999/xlink">
    <!-- Generator: Sketch 61.1 (89650) - https://sketch.com -->
    <title>ill_Collaboration</title>
    <desc>Created with Sketch.</desc>
    <g id="Page-1" stroke="none" stroke-width="1" fill="none" fill-rule="evenodd">
        <g id="v3_A" transform="translate(-1092.000000, -1145.000000)">
            <g id="ill_Collaboration" transform="translate(1092.000000, 1147.000000)">
                <path d="M5.1953271,42.8289421 C5.1953271,39.300886 6.2448785,36.0225869 8.03226168,33.2695402 C3.20108411,36.4058019 6.71921086e-12,41.8365869 6.71921086e-12,48.0252224 L6.71921086e-12,51.6133346 C6.71921086e-12,52.7200822 0.896074766,53.616157 2.00091589,53.616157 L33.1795514,53.616157 C34.2872523,53.616157 35.1842804,52.7200822 35.1842804,51.6133346 L35.1842804,48.4208299 L5.1953271,48.4208299 L5.1953271,42.8289421 Z" id="Fill-40" fill="#B8DFFD"></path>
                <path d="M22.7880393,25.2367065 C15.8177215,25.2367065 10.1695907,19.5876224 10.1695907,12.6182579 C10.1695907,10.4714916 10.7091421,8.45151028 11.6547869,6.68128598 C7.67869346,8.8061271 4.97426355,12.9928935 4.97426355,17.8145383 C4.97426355,22.7210243 7.77974019,26.9630804 11.8692729,29.0507439 C14.8701701,26.6685196 18.6594224,25.2367065 22.7880393,25.2367065" id="Fill-42" fill="#B8DFFD"></path>
                <path d="M30.4960935,77.1652879 C24.0252897,72.1806336 19.2846729,65.0616056 17.3285607,56.8596617" id="Stroke-44" stroke="#01B289" stroke-width="2.356" stroke-linecap="round" stroke-linejoin="round"></path>
                <path d="M57.7006374,84.3250206 C56.0352729,84.5595252 54.3336841,84.6805907 52.6025439,84.6805907 C46.8152355,84.6805907 41.3434598,83.324086 36.4894037,80.9132636" id="Stroke-46" stroke="#01B289" stroke-width="2.356" stroke-linecap="round" stroke-linejoin="round"></path>
                <path d="M61.3060991,13.2113832 C74.8025103,16.5363925 85.3247159,27.4179813 88.1273327,41.1126729" id="Stroke-48" stroke="#01B289" stroke-width="2.356" stroke-linecap="round" stroke-linejoin="round"></path>
                <path d="M42.3002579,13.6447402 C45.5661645,12.6781234 49.0246318,12.1595439 52.6032112,12.1595439" id="Stroke-50" stroke="#01B289" stroke-width="2.356" stroke-linecap="round" stroke-linejoin="round"></path>
                <path d="M22.7880393,25.2367065 L22.7880393,25.2367065 C13.0723009,25.2367065 5.19542243,33.1126318 5.19542243,42.8293234 L5.19542243,48.4202579 L40.3797028,48.4202579 L40.3797028,42.8293234 C40.3797028,33.1126318 32.5028243,25.2367065 22.7880393,25.2367065 Z" id="Stroke-52" stroke="#01B289" stroke-width="2.356" stroke-linecap="round" stroke-linejoin="round"></path>
                <path d="M35.4058206,12.6184486 C35.4058206,5.64908411 29.7567364,1.08374369e-13 22.7883252,1.08374369e-13 C15.8189607,1.08374369e-13 10.1679701,5.64908411 10.1679701,12.6184486 C10.1679701,19.5878131 15.8189607,25.2368972 22.7883252,25.2368972 C29.7567364,25.2368972 35.4058206,19.5878131 35.4058206,12.6184486 Z" id="Stroke-54" stroke="#01B289" stroke-width="2.356" stroke-linecap="round" stroke-linejoin="round"></path>
                <path d="M64.7989794,90.9421514 C64.7989794,87.4150486 65.8485308,84.1357963 67.635914,81.3837028 C62.8047364,84.5199645 59.6026991,89.9507495 59.6026991,96.1384318 L59.6026991,99.7284505 C59.6026991,100.833292 60.4997271,101.729366 61.6045682,101.729366 L92.7832037,101.729366 C93.8909047,101.729366 94.7879327,100.833292 94.7879327,99.7284505 L94.7879327,96.533086 L64.7989794,96.533086 L64.7989794,90.9421514 Z" id="Fill-56" fill="#B8DFFD"></path>
                <path d="M82.3916916,73.3502972 C75.4213738,73.3502972 69.773243,67.7002598 69.773243,60.7328019 C69.773243,58.5850822 70.3127944,56.5660542 71.2584393,54.7948766 C67.2823458,56.9197178 64.5769626,61.1055308 64.5769626,65.928129 C64.5769626,70.8336617 67.3833925,75.0776243 71.4729252,77.1643346 C74.4738224,74.7830636 78.2621215,73.3502972 82.3907383,73.3502972 L82.3916916,73.3502972 Z" id="Fill-58" fill="#B8DFFD"></path>
                <path d="M82.3916916,73.3502972 L82.3916916,73.3502972 C72.6759533,73.3502972 64.7990748,81.2271757 64.7990748,90.942914 L64.7990748,96.5328953 L99.9833551,96.5328953 L99.9833551,90.942914 C99.9833551,81.2271757 92.1055234,73.3502972 82.3916916,73.3502972 Z" id="Stroke-60" stroke="#01B289" stroke-width="2.356" stroke-linecap="round" stroke-linejoin="round"></path>
                <path d="M95.0094729,60.7315626 C95.0094729,53.7621981 89.3594355,48.1140673 82.3919776,48.1140673 C75.4226131,48.1140673 69.7716224,53.7621981 69.7716224,60.7315626 C69.7716224,67.7018804 75.4226131,73.3490579 82.3919776,73.3490579 C89.3594355,73.3490579 95.0094729,67.7018804 95.0094729,60.7315626 Z" id="Stroke-62" stroke="#01B289" stroke-width="2.356" stroke-linecap="round" stroke-linejoin="round"></path>
            </g>
        </g>
    </g>
</svg>