<?xml version="1.0" encoding="UTF-8"?>
<svg width="94px" height="90px" viewBox="0 0 94 90" version="1.1" xmlns="http://www.w3.org/2000/svg" xmlns:xlink="http://www.w3.org/1999/xlink">
    <!-- Generator: Sketch 61.1 (89650) - https://sketch.com -->
    <title>ill_Easy Automation</title>
    <desc>Created with Sketch.</desc>
    <g id="Page-1" stroke="none" stroke-width="1" fill="none" fill-rule="evenodd">
        <g id="Invoicing-&amp;-Payments" transform="translate(-250.000000, -1147.000000)">
            <g id="02.Start-using-smart-invoices" transform="translate(250.000000, 950.000000)">
                <g id="Easy-Automation" transform="translate(0.000000, 198.000000)">
                    <g id="ill_Easy-Automation">
                        <path d="M35.0979934,58.6775534 C30.2236182,58.6775534 26.2741069,54.7553617 26.2741069,49.9105016 C26.2741069,45.0622368 30.2236182,41.1332358 35.0979934,41.1332358 C39.9723686,41.1332358 43.9253053,45.0622368 43.9253053,49.9105016 M63.9811498,49.4508697 C64.2860124,40.6123197 60.7920822,36.9012181 60.7920822,36.9012181 L54.2358249,38.4809898 C52.9478663,36.4109442 51.9031126,35.0082159 51.9031126,35.0082159 L55.6436732,29.5266806 C50.4952643,23.7387241 44.7337049,22.707106 44.7337049,22.707106 L41.486405,28.5495374 C39.2187758,28.0047885 37.4409819,28.0047885 37.4409819,28.0047885 L36.8860636,22.5198485 C28.9836155,20.5144918 23.5920017,24.9575996 23.5920017,24.9575996 L25.7945479,30.6842719 C23.4070289,31.535442 21.6908926,33.3637553 21.6908926,33.3637553 L16.2958533,28.9785271 C10.2260059,33.2411868 9.1881031,40.3058985 9.1881031,40.3058985 L14.8880049,43.356492 C14.3947442,45.4231329 14.1515393,48.17071 14.1515393,48.17071 L8.98942864,48.4328703 L7.10202124,48.5350107 C6.83141292,51.6298651 7.12942462,54.0982584 7.63981246,56.0150934 C8.62633393,59.7159809 10.4109787,61.32299 10.4109787,61.32299 L16.3575109,59.0146167 C17.1556342,61.6294112 19.6082361,64.005878 19.6082361,64.005878 L15.3161827,69.7325503 C19.9096733,75.3434635 26.6543287,76.2491084 26.6543287,76.2491084 L29.2268205,70.5462689 C30.757984,71.0637803 33.8853941,71.2544424 33.8853941,71.2544424 L35.0979934,77.9548533 C44.2198916,78.4485319 47.9193471,74.730621 47.9193471,74.730621 L46.018238,68.7588118 C48.1043199,67.8429528 50.4370321,65.7729071 50.4370321,65.7729071 L56.1951661,69.981092 C60.8537397,67.0054014 63.1830266,59.0146167 63.1830266,59.0146167 L56.8083166,55.5384381 C57.4214671,52.8589547 57.4831247,50.2986351 57.4831247,50.2986351 L63.9811498,49.4508697 Z" id="Stroke-1" stroke="#00B388" stroke-width="2" stroke-linecap="round" stroke-linejoin="round"></path>
                        <path d="M76.2596697,12.5374781 C79.185984,13.4435706 80.835237,16.5718292 79.9371966,19.5278268 C79.0357415,22.4838245 75.9352824,24.1409747 73.0089681,23.2348821 C70.0792391,22.3287896 68.4334007,19.200531 69.3348558,16.2445334 M92.0692793,22.9764907 C93.8892624,17.6467374 92.4790316,14.7320824 92.4790316,14.7320824 L88.2483391,14.4771362 C87.8556598,12.9750209 87.4902973,11.9276744 87.4902973,11.9276744 L90.7546573,9.27830122 C88.7332126,4.79262649 85.465438,3.09068845 85.465438,3.09068845 L82.433271,6.05357653 C81.1698681,5.29562841 80.1010975,4.96488742 80.1010975,4.96488742 L80.7874326,1.51966873 C76.4099122,-1.17449229 72.3465352,0.534336184 72.3465352,0.534336184 L72.6128742,4.43432374 C71.0182548,4.51011855 69.6455846,5.30596407 69.6455846,5.30596407 L67.2212168,1.62991573 C62.7856481,3.10102411 60.8461539,7.21806044 60.8461539,7.21806044 L63.7075908,10.1327155 C63.0280849,11.307535 62.3758958,12.930233 62.3758958,12.930233 L58.0734967,11.8449891 C55.9086387,17.229866 57.6876466,20.2616584 57.6876466,20.2616584 L61.6861461,19.9550339 C61.6793169,21.6983146 62.7139415,23.6035205 62.7139415,23.6035205 L59.0739752,26.2976816 C60.7983495,30.5697527 64.6739233,32.3819378 64.6739233,32.3819378 L67.279265,29.3845975 C68.1055989,29.9771751 69.9460696,30.6799997 69.9460696,30.6799997 L69.4338792,34.9934135 C74.822122,36.9847499 77.7347779,35.4068398 77.7347779,35.4068398 L77.7006319,31.4138313 C79.1211066,31.2450156 80.9035291,30.4112727 80.9035291,30.4112727 L83.5874066,34.0528688 C86.9337171,33.1019885 89.8156416,28.6611016 89.8156416,28.6611016 L86.6298175,25.3571368 C87.4971265,23.8377954 88.0059023,22.2908922 88.0059023,22.2908922 L92.0692793,22.9764907 Z" id="Stroke-3" stroke="#00B388" stroke-width="2" stroke-linecap="round" stroke-linejoin="round"></path>
                        <path d="M55.2986111,70.5073122 L50.2465278,67 C49.53125,67.5474029 48.4027778,68.3537569 47.2256944,68.9765507 L48.8298611,73.7753404 C48.9722222,74.188351 48.8576389,74.6472516 48.53125,74.9488149 C48.4409722,75.0373172 47.3125,76.0370651 45,76.9581442 L49.3819444,80 C52.8993056,77.8595562 55.1006944,73.0509329 56,70.7334846 C55.7534722,70.7269289 55.5104167,70.6515381 55.2986111,70.5073122" id="Fill-5" fill="#A7E0FE"></path>
                        <path d="M5.29480315,48.4784607 C5.35023622,47.8650201 5.84913386,47.3859851 6.46582677,47.3584147 L12.535748,47.0379092 C12.6292913,46.2383688 12.7817323,45.097645 13,43.9913843 L8.04913386,41.3446295 C7.90015748,41.2653647 7.81354331,41.1240666 7.7096063,41 C2.91811024,45.3182079 2,51.2320505 2,51.2320505 L5.30173228,53 C5.17700787,51.5594486 5.15622047,50.0568639 5.29480315,48.4784607" id="Fill-7" fill="#A7E0FE"></path>
                        <path d="M33.8159862,79.2771997 C33.2635431,79.2463781 32.8014999,78.8319986 32.7010557,78.2737848 L31.676525,72.4621976 C30.9064529,72.3834313 29.7948705,72.2532955 28.8205619,72.0546673 L26.7212784,76.8422919 C26.5036493,77.3422871 25.9779914,77.6299555 25.465726,77.5546138 C25.177786,77.5135183 18.3509294,76.4964049 13.6133119,70.5546819 C13.2684535,70.1197547 13.2517128,69.5033223 13.5798305,69.0546966 L17.1790805,64.1061146 C16.519497,63.3321496 15.5451884,62.0547648 14.8822568,60.585601 L10.1848169,62.4725689 C9.76629947,62.6369509 9.27747109,62.5479106 8.94265713,62.2294206 C8.88239062,62.1814759 7.81098595,61.1472394 6.83332919,59 L1.94504538,59.2602714 L0.100220466,59.3630102 C-0.164282562,62.4759935 0.123657443,64.9554214 0.625878382,66.8869095 C1.59014258,70.6060513 3.33452331,72.2258985 3.33452331,72.2258985 L9.14689365,69.9040034 C9.92366203,72.5341147 12.32093,74.9245024 12.32093,74.9245024 L8.12905921,80.6812956 C12.6222625,86.3250763 19.2114013,87.2394509 19.2114013,87.2394509 L21.7292022,81.5032054 C23.2258206,82.0237483 26.2793239,82.2121026 26.2793239,82.2121026 L27.4679135,88.9551876 C36.3806611,89.4483335 40,85.7086439 40,85.7086439 L38.1417825,79.7018531 C38.5736925,79.5066495 39.0122988,79.256652 39.4408607,78.9895313 C38.248923,79.1847349 36.9565411,79.3285691 35.4599227,79.3285691 C34.9309167,79.3285691 34.3851699,79.3148706 33.8159862,79.2771997" id="Fill-9" fill="#A7E0FE"></path>
                        <path d="M55.95,16 C55.026,17.1193676 54.597,18.0743083 54.597,18.0743083 L56.403,20 C56.139,19.3011858 55.806,17.9351779 55.95,16" id="Fill-11" fill="#A7E0FE"></path>
                        <path d="M79.8459751,35.6604178 C80.7012466,34.1809569 81.204944,32.6713029 81.204944,32.6713029 L81.2150856,32.6746577 L80.2381154,31.3696456 C79.8054088,31.5340302 79.2611452,31.7185435 78.6965984,31.8627993 L78.720262,34.7579802 C78.7236425,35.2041668 78.4802451,35.6168056 78.0847243,35.8248024 C77.9968308,35.8717694 76.6987112,36.5393719 74.3526305,36.5393719 C72.9091485,36.5393719 71.0769068,36.2877629 68.879569,35.4859689 C68.3522079,35.2947461 68.027678,34.7680445 68.0952884,34.2178595 L68.4941897,30.9301686 C68.1662793,30.7926223 67.7876611,30.6215282 67.4158039,30.4336602 L65.4922882,32.6109167 C65.1339531,33.0034268 64.5626453,33.1342634 64.0758504,32.9094927 C63.9000634,32.8289778 59.7792098,30.8932659 57.9199239,26.3508848 C57.7103317,25.8409572 57.8759772,25.2572243 58.3255863,24.93181 L61.1246567,22.8887449 C60.9150644,22.3821721 60.6885696,21.7179244 60.5465878,21 L57.757659,21.2147063 C57.510881,21.2180611 57.2674836,21.1375463 57.0545109,21.0134191 C56.4155926,22.1372727 55.8307627,23.5597022 55.8307627,23.5597022 L51.5713078,22.5029444 C51.3245299,23.0967417 51.1487429,23.6502815 51,24.1870473 C52.5144729,25.2001929 54.1303613,26.5018502 55.702303,28.2698227 C56.0707796,28.6791067 56.1113459,29.2829683 55.8003381,29.7392193 L55.1817029,30.6416569 C55.2662159,32.2687285 56.1654342,33.9528314 56.1654342,33.9528314 L53.5387703,35.8650598 C53.6807522,36.0797661 53.8125924,36.2776986 53.9680963,36.5158884 L59.5932812,35.1605546 C60.0124657,35.0431371 60.4654553,35.1907477 60.7595605,35.5094524 C60.8981618,35.6503534 63.656666,38.6797258 64.1671244,45.4530401 C68.6226495,46.6876016 71.0397211,45.4463306 71.0397211,45.4463306 L71.0025354,41.5581328 C72.4122121,41.3903935 74.1734629,40.5852447 74.1734629,40.5852447 L76.8271709,44.1245446 C80.1468413,43.2019783 83,38.8776582 83,38.8776582 L79.8459751,35.6604178 Z" id="Fill-13" fill="#A7E0FE"></path>
                    </g>
                </g>
            </g>
        </g>
    </g>
</svg>