<?xml version="1.0" encoding="UTF-8"?>
<svg width="123px" height="145px" viewBox="0 0 123 145" version="1.1" xmlns="http://www.w3.org/2000/svg" xmlns:xlink="http://www.w3.org/1999/xlink">
    <!-- Generator: Sketch 62 (91390) - https://sketch.com -->
    <title>Group 52</title>
    <desc>Created with Sketch.</desc>
    <defs>
        <polygon id="path-1" points="0.0349263158 0.0802036082 3.92966316 0.0802036082 3.92966316 68.9994112 0.0349263158 68.9994112"></polygon>
        <polygon id="path-3" points="0.000458469976 0.14457081 36.825892 0.14457081 36.825892 55.8052512 0.000458469976 55.8052512"></polygon>
    </defs>
    <g id="Page-1" stroke="none" stroke-width="1" fill="none" fill-rule="evenodd">
        <g id="Accounting-&amp;-Taxes" transform="translate(-260.000000, -4122.000000)">
            <g id="06.Keep-Exploring" transform="translate(250.000000, 3945.000000)">
                <g id="Explore-Invoice" transform="translate(0.000000, 142.000000)">
                    <g id="Group-52" transform="translate(10.000000, 35.000000)">
                        <g id="Group-93" transform="translate(-11.000000, -4.000000)">
                            <g transform="translate(-16.000000, 4.000000)">
                                <path d="M11.7851915,178.467608 L11.7851915,14 L1.80653539,14 C0.809935307,14 0,14.8046883 0,15.7948322 L0,189.211454 C0,190.195312 0.809935307,191 1.80653539,191 L132.196628,191 C133.190065,191 134,190.195312 134,189.211454 L134,180.366169 L13.6961326,180.366169 C12.6425839,180.366169 11.7851915,179.511188 11.7851915,178.467608" id="Fill-59" fill="#A7E0FE"></path>
                                <path d="M106.298618,40.0661056 L106.298618,16.0296003 L101.375187,11.2324119 C100.869222,10.73626 100,11.0870425 100,11.7886076 L100,48.2131094 C100,48.6460572 100.360014,49 100.807598,49 L138.19064,49 C138.910667,49 139.270681,48.1562258 138.761472,47.6569137 L132.926656,41.9748683 L108.257611,41.9748683 C107.17757,41.9748683 106.298618,41.1184533 106.298618,40.0661056" id="Fill-61" fill="#A7E0FE"></path>
                                <path d="M128.828651,38.3138686 L110.192308,38.3138686 L110.192308,19.7515559 L110.192308,5.28467153 L143.365385,38.3138686 L128.828651,38.3138686 Z M150,103.12648 L150,40.8452859 C150,40.7571759 149.955648,40.6847998 149.946144,40.5998366 C149.939809,40.5148733 149.923969,40.445644 149.901793,40.357534 C149.81309,40.0397086 149.673699,39.7376171 149.442437,39.5079017 C149.442437,39.5079017 149.442437,39.5016082 149.439269,39.5016082 L110.232456,0.553834385 C110.229288,0.553834385 110.22612,0.553834385 110.222952,0.550687599 C109.994858,0.330412559 109.697068,0.191953963 109.380271,0.100697161 C109.2884,0.0755228707 109.209201,0.0629357256 109.11733,0.0503485805 C109.034962,0.0377614354 108.965267,2.64321898e-12 108.8829,2.64321898e-12 L13.9102867,2.64321898e-12 C12.8585202,2.64321898e-12 12,0.852779082 12,1.9038057 L12,14.4500426 L12,179.099341 C12,180.144074 12.8585202,181 13.9102867,181 L134.369229,181 L148.089713,181 C149.14148,181 150,180.144074 150,179.099341 L150,131.745684 C150,130.700951 149.14148,129.845025 148.089713,129.845025 C147.034779,129.845025 146.176259,130.700951 146.176259,131.745684 L146.176259,177.201829 L134.369229,177.201829 L15.8237414,177.201829 L15.8237414,14.4500426 L15.8237414,3.79817104 L106.969445,3.79817104 L106.969445,16.9076827 L106.969445,40.8452859 C106.969445,41.8931657 107.827965,42.742798 108.8829,42.742798 L132.97849,42.742798 L146.176259,42.742798 L146.176259,103.12648 C146.176259,104.177507 147.034779,105.027139 148.089713,105.027139 C149.14148,105.027139 150,104.177507 150,103.12648 Z" id="Fill-63" fill="#00B388"></path>
                            </g>
                            <g id="Group-7" transform="translate(42.000000, 58.000000)">
                                <g id="Group-3" transform="translate(17.000000, 0.000000)">
                                    <mask id="mask-2" fill="white">
                                        <use xlink:href="#path-1"></use>
                                    </mask>
                                    <g id="Clip-2"></g>
                                    <path d="M1.98229474,68.9994112 C0.907347368,68.9994112 0.0349263158,68.0101741 0.0349263158,66.7912926 L0.0349263158,2.28773333 C0.0349263158,1.06885189 0.907347368,0.0796147766 1.98229474,0.0796147766 C3.05724211,0.0796147766 3.92966316,1.06885189 3.92966316,2.28773333 L3.92966316,66.7912926 C3.92966316,68.0101741 3.05724211,68.9994112 1.98229474,68.9994112" id="Fill-1" fill="#00B185" mask="url(#mask-2)"></path>
                                </g>
                                <g id="Group-6" transform="translate(0.000000, 5.000000)">
                                    <mask id="mask-4" fill="white">
                                        <use xlink:href="#path-3"></use>
                                    </mask>
                                    <g id="Clip-5"></g>
                                    <path d="M17.4089506,55.8052512 C17.2943929,55.8052512 17.1798353,55.8052512 17.0623402,55.8023458 C10.3651213,55.7297098 4.48449305,53.3792094 1.32387569,49.5265968 C0.560157742,48.5968562 0.704089201,47.219678 1.64992451,46.4642638 C2.59869719,45.7059441 3.97926425,45.8454052 4.74885695,46.7867675 C7.05469768,49.5963274 11.7926863,51.386078 17.1122756,51.4470922 C22.7021035,51.4470922 27.6868318,49.7096395 30.2364748,46.7431859 C32.4424447,44.177683 33.0005463,41.3042035 31.852032,38.4365349 C30.1336666,34.1481064 24.9256977,30.818473 18.8864511,30.1473165 L17.6674398,30.144411 C9.71889837,29.2727792 3.2155463,24.9465801 0.880331805,19.1153633 C-0.85565784,14.7804479 0.00205616371,10.1404613 3.23317056,6.38082276 C6.65815182,2.39456 12.8472046,0.0847357322 19.7676642,0.145749958 C26.4619457,0.22419682 32.3455113,2.56888636 35.5002539,6.41859347 C36.2669092,7.35414494 36.1200404,8.7255123 35.1771425,9.48673741 C34.2313071,10.2421516 32.8448653,10.105596 32.0752726,9.16423364 C29.7723693,6.35176837 25.037318,4.56492318 19.7147914,4.50100351 L19.4269285,4.50100351 C13.9927815,4.50100351 9.09323713,6.29075414 6.58765478,9.20200435 C4.38462224,11.7675073 3.82652066,14.6409868 4.97797234,17.5086554 C6.69340035,21.7970838 11.9013693,25.1296228 17.9406158,25.8007792 L19.1596272,25.8036847 C27.1081686,26.6782219 33.6115207,30.9986102 35.9496725,36.8298269 C37.6827248,41.1647424 36.8250108,45.8105399 33.5938964,49.5701784 C30.2247253,53.4867106 24.1972283,55.8052512 17.4089506,55.8052512" id="Fill-4" fill="#00B185" mask="url(#mask-4)"></path>
                                </g>
                            </g>
                        </g>
                    </g>
                </g>
            </g>
        </g>
    </g>
</svg>