<?xml version="1.0" encoding="UTF-8"?>
<svg width="82px" height="91px" viewBox="0 0 82 91" version="1.1" xmlns="http://www.w3.org/2000/svg" xmlns:xlink="http://www.w3.org/1999/xlink">
    <!-- Generator: Sketch 52.6 (67491) - http://www.bohemiancoding.com/sketch -->
    <title>ill_Flexible Fields</title>
    <desc>Created with Sketch.</desc>
    <g id="Page-1" stroke="none" stroke-width="1" fill="none" fill-rule="evenodd">
        <g id="Forms" transform="translate(-670.000000, -1090.000000)">
            <g id="02.A-lightweight" transform="translate(250.000000, 894.000000)">
                <g id="Flexible-Fields" transform="translate(421.000000, 197.000000)">
                    <g id="ill_Flexible-Fields">
                        <path d="M77.9569335,68.15034 L77.0873985,68.15034 C76.1118435,68.15034 75.2653935,67.535595 74.8943235,66.63357 L74.8823535,66.60279 C74.5104285,65.704185 74.6745885,64.67391 75.3628635,63.98478 L75.9776085,63.37089 C76.8933135,62.455185 76.8933135,60.970905 75.9776085,60.054345 L74.2034835,58.28022 C73.2877785,57.364515 71.8026435,57.364515 70.8860835,58.28022 L70.2721935,58.89411 C69.5839185,59.582385 68.5536435,59.7474 67.6541835,59.37462 L67.6242585,59.36265 C66.7213785,58.992435 66.1074885,58.14513 66.1074885,57.169575 L66.1074885,56.300895 C66.1074885,55.004715 65.0575485,53.954775 63.7622235,53.954775 L61.2527985,53.954775 C59.9574735,53.954775 58.9075335,55.004715 58.9075335,56.300895 L58.9075335,57.169575 C58.9075335,58.14513 58.2927885,58.992435 57.3907635,59.363505 C57.3813585,59.36778 57.3710985,59.370345 57.3608385,59.37462 C56.4613785,59.7474 55.4311035,59.582385 54.7428285,58.89411 L54.1280835,58.28022 C53.2123785,57.364515 51.7272435,57.364515 50.8115385,58.28022 L49.0374135,60.054345 C48.1217085,60.970905 48.1217085,62.455185 49.0374135,63.37089 L49.6521585,63.98478 C50.3404335,64.67391 50.5045935,65.704185 50.1326685,66.60279 L50.1198435,66.63357 C49.7496285,67.535595 48.9023235,68.15034 47.9267685,68.15034 L47.0580885,68.15034 C45.7627635,68.15034 44.7128235,69.20028 44.7128235,70.495605 L44.7128235,73.00503 C44.7128235,74.2995 45.7627635,75.34944 47.0580885,75.34944 L47.9267685,75.34944 C48.9023235,75.34944 49.7496285,75.964185 50.1198435,76.86621 L50.1326685,76.896135 C50.5045935,77.795595 50.3404335,78.82587 49.6521585,79.515 L49.0374135,80.129745 C48.1217085,81.044595 48.1217085,82.52973 49.0374135,83.44629 L50.8115385,85.220415 C51.7272435,86.135265 53.2123785,86.135265 54.1280835,85.220415 L54.7428285,84.60567 C55.4311035,83.917395 56.4613785,83.75238 57.3608385,84.12516 L57.3907635,84.13713 C58.2927885,84.5082 58.9075335,85.35465 58.9075335,86.330205 L58.9075335,87.19974 C58.9075335,88.495065 59.9574735,89.54415 61.2527985,89.54415 L63.7622235,89.54415 C65.0575485,89.54415 66.1074885,88.495065 66.1074885,87.19974 L66.1074885,86.330205 C66.1074885,85.35465 66.7213785,84.5082 67.6242585,84.13713 L67.6541835,84.12516 C68.5536435,83.75238 69.5839185,83.91654 70.2721935,84.60567 L70.8860835,85.220415 C71.8026435,86.135265 73.2877785,86.135265 74.2034835,85.220415 L75.9776085,83.44629 C76.8933135,82.52973 76.8933135,81.044595 75.9776085,80.129745 L75.3628635,79.515 C74.6745885,78.82587 74.5104285,77.795595 74.8823535,76.896135 L74.8943235,76.86621 C75.2653935,75.964185 76.1126985,75.34944 77.0873985,75.34944 L77.9569335,75.34944 C79.2522585,75.34944 80.3021985,74.2995 80.3021985,73.00503 L80.3021985,70.495605 C80.3021985,69.20028 79.2522585,68.15034 77.9569335,68.15034" id="Fill-25" fill="#B6DEFE"></path>
                        <path d="M33.3274725,12.1824675 L72.4796325,12.1824675 C72.8105175,12.1824675 73.0789875,12.4509375 73.0789875,12.7826775 L73.0789875,63.2823975 C73.0789875,74.9933325 63.5859225,84.4872525 51.8741325,84.4872525 L12.5552475,84.4872525 C12.2243625,84.4872525 11.9550375,84.2170725 11.9550375,83.8878975 L11.9550375,12.7826775" id="Fill-27" fill="#B6DEFE"></path>
                        <g id="Group-32">
                            <path d="M22.197852,0.5206095 L54.041472,0.5206095 C58.408812,0.5206095 61.949367,4.0611645 61.949367,8.4293595 L61.949367,57.4490745 C61.949367,65.9409345 55.064907,72.8253945 46.573047,72.8253945 L1.425627,72.8253945 C1.093887,72.8253945 0.825417,72.5569245 0.825417,72.2260395 L0.825417,1.1208195" id="Fill-29" fill="#FFFFFF"></path>
                            <path d="M22.197852,0.5206095 L54.041472,0.5206095 C58.408812,0.5206095 61.949367,4.0611645 61.949367,8.4293595 L61.949367,57.4490745 C61.949367,65.9409345 55.064907,72.8253945 46.573047,72.8253945 L1.425627,72.8253945 C1.093887,72.8253945 0.825417,72.5569245 0.825417,72.2260395 L0.825417,1.1208195" id="Stroke-31" stroke="#02B187" stroke-width="1.71" stroke-linecap="round" stroke-linejoin="round"></path>
                        </g>
                        <path d="M13.079277,48.345462 L42.517782,48.345462" id="Stroke-33" stroke="#02B187" stroke-width="1.71" stroke-linecap="round" stroke-linejoin="round"></path>
                        <path d="M13.079277,55.7996085 L34.540632,55.7996085" id="Stroke-35" stroke="#02B187" stroke-width="1.71" stroke-linecap="round" stroke-linejoin="round"></path>
                        <path d="M74.9681955,68.5385955 L74.9681955,66.0291705 C74.9681955,64.7347005 73.9182555,63.6847605 72.6229305,63.6847605 L71.7533955,63.6847605 C70.7778405,63.6847605 69.9305355,63.0700155 69.5603205,62.1679905 C69.5560455,62.1577305 69.5526255,62.1474705 69.5483505,62.1380655 C69.1755705,61.2386055 69.3405855,60.2074755 70.0288605,59.5192005 L70.6427505,58.9044555 C71.5593105,57.9896055 71.5593105,56.5044705 70.6427505,55.5887655 L68.8686255,53.8137855 C67.9529205,52.8989355 66.4686405,52.8989355 65.5520805,53.8137855 L64.9381905,54.4285305 C64.2499155,55.1168055 63.2187855,55.2818205 62.3201805,54.9107505 L62.2894005,54.8970705 C61.3873755,54.5260005 60.7726305,53.6795505 60.7726305,52.7039955 L60.7726305,51.8344605 C60.7726305,50.5391355 59.7226905,49.4891955 58.4273655,49.4891955 L55.9187955,49.4891955 C54.6234705,49.4891955 53.5735305,50.5391355 53.5735305,51.8344605 L53.5735305,52.7039955 C53.5735305,53.6795505 52.9587855,54.5260005 52.0567605,54.8970705 C52.0465005,54.9013455 52.0370955,54.9056205 52.0268355,54.9107505 C51.1273755,55.2818205 50.0971005,55.1168055 49.4079705,54.4285305 L48.7940805,53.8137855 C47.8783755,52.8989355 46.3932405,52.8989355 45.4775355,53.8137855 L43.7034105,55.5887655 C42.7877055,56.5044705 42.7877055,57.9896055 43.7034105,58.9044555 L44.3173005,59.5192005 C45.0055755,60.2074755 45.1705905,61.2386055 44.7986655,62.1380655 L44.7858405,62.1679905 C44.4156255,63.0700155 43.5683205,63.6847605 42.5927655,63.6847605 L41.7232305,63.6847605 C40.4287605,63.6847605 39.3788205,64.7347005 39.3788205,66.0291705 L39.3788205,68.5385955 C39.3788205,69.8347755 40.4287605,70.8838605 41.7232305,70.8838605 L42.5927655,70.8838605 C43.5683205,70.8838605 44.4156255,71.4986055 44.7858405,72.4014855 L44.7986655,72.4314105 C45.1705905,73.3300155 45.0055755,74.3620005 44.3173005,75.0494205 L43.7034105,75.6633105 C42.7877055,76.5790155 42.7877055,78.0641505 43.7034105,78.9798555 L45.4775355,80.7539805 C46.3932405,81.6696855 47.8783755,81.6696855 48.7940805,80.7539805 L49.4079705,80.1400905 C50.0971005,79.4518155 51.1273755,79.2868005 52.0268355,79.6595805 C52.0370955,79.6638555 52.0465005,79.6672755 52.0567605,79.6715505 C52.9587855,80.0417655 53.5735305,80.8890705 53.5735305,81.8646255 L53.5735305,82.7350155 C53.5735305,84.0286305 54.6234705,85.0794255 55.9187955,85.0794255 L58.4273655,85.0794255 C59.7226905,85.0794255 60.7726305,84.0286305 60.7726305,82.7350155 L60.7726305,81.8646255 C60.7726305,80.8890705 61.3873755,80.0417655 62.2894005,79.6715505 C62.2996605,79.6672755 62.3090655,79.6638555 62.3193255,79.6595805 C63.2187855,79.2868005 64.2499155,79.4518155 64.9381905,80.1400905 L65.5520805,80.7539805 C66.4686405,81.6696855 67.9529205,81.6696855 68.8686255,80.7539805 L70.6427505,78.9798555 C71.5593105,78.0641505 71.5593105,76.5790155 70.6427505,75.6633105 L70.0288605,75.0494205 C69.3405855,74.3620005 69.1764255,73.3300155 69.5483505,72.4305555 C69.5526255,72.4211505 69.5560455,72.4108905 69.5603205,72.4014855 C69.9305355,71.4986055 70.7778405,70.8838605 71.7533955,70.8838605 L72.6229305,70.8838605 C73.9182555,70.8838605 74.9681955,69.8347755 74.9681955,68.5385955" id="Fill-37" fill="#FFFFFF"></path>
                        <path d="M74.9681955,68.5385955 L74.9681955,66.0291705 C74.9681955,64.7347005 73.9182555,63.6847605 72.6229305,63.6847605 L71.7533955,63.6847605 C70.7778405,63.6847605 69.9305355,63.0700155 69.5603205,62.1679905 C69.5560455,62.1577305 69.5526255,62.1474705 69.5483505,62.1380655 C69.1755705,61.2386055 69.3405855,60.2074755 70.0288605,59.5192005 L70.6427505,58.9044555 C71.5593105,57.9896055 71.5593105,56.5044705 70.6427505,55.5887655 L68.8686255,53.8137855 C67.9529205,52.8989355 66.4686405,52.8989355 65.5520805,53.8137855 L64.9381905,54.4285305 C64.2499155,55.1168055 63.2187855,55.2818205 62.3201805,54.9107505 L62.2894005,54.8970705 C61.3873755,54.5260005 60.7726305,53.6795505 60.7726305,52.7039955 L60.7726305,51.8344605 C60.7726305,50.5391355 59.7226905,49.4891955 58.4273655,49.4891955 L55.9187955,49.4891955 C54.6234705,49.4891955 53.5735305,50.5391355 53.5735305,51.8344605 L53.5735305,52.7039955 C53.5735305,53.6795505 52.9587855,54.5260005 52.0567605,54.8970705 C52.0465005,54.9013455 52.0370955,54.9056205 52.0268355,54.9107505 C51.1273755,55.2818205 50.0971005,55.1168055 49.4079705,54.4285305 L48.7940805,53.8137855 C47.8783755,52.8989355 46.3932405,52.8989355 45.4775355,53.8137855 L43.7034105,55.5887655 C42.7877055,56.5044705 42.7877055,57.9896055 43.7034105,58.9044555 L44.3173005,59.5192005 C45.0055755,60.2074755 45.1705905,61.2386055 44.7986655,62.1380655 L44.7858405,62.1679905 C44.4156255,63.0700155 43.5683205,63.6847605 42.5927655,63.6847605 L41.7232305,63.6847605 C40.4287605,63.6847605 39.3788205,64.7347005 39.3788205,66.0291705 L39.3788205,68.5385955 C39.3788205,69.8347755 40.4287605,70.8838605 41.7232305,70.8838605 L42.5927655,70.8838605 C43.5683205,70.8838605 44.4156255,71.4986055 44.7858405,72.4014855 L44.7986655,72.4314105 C45.1705905,73.3300155 45.0055755,74.3620005 44.3173005,75.0494205 L43.7034105,75.6633105 C42.7877055,76.5790155 42.7877055,78.0641505 43.7034105,78.9798555 L45.4775355,80.7539805 C46.3932405,81.6696855 47.8783755,81.6696855 48.7940805,80.7539805 L49.4079705,80.1400905 C50.0971005,79.4518155 51.1273755,79.2868005 52.0268355,79.6595805 C52.0370955,79.6638555 52.0465005,79.6672755 52.0567605,79.6715505 C52.9587855,80.0417655 53.5735305,80.8890705 53.5735305,81.8646255 L53.5735305,82.7350155 C53.5735305,84.0286305 54.6234705,85.0794255 55.9187955,85.0794255 L58.4273655,85.0794255 C59.7226905,85.0794255 60.7726305,84.0286305 60.7726305,82.7350155 L60.7726305,81.8646255 C60.7726305,80.8890705 61.3873755,80.0417655 62.2894005,79.6715505 C62.2996605,79.6672755 62.3090655,79.6638555 62.3193255,79.6595805 C63.2187855,79.2868005 64.2499155,79.4518155 64.9381905,80.1400905 L65.5520805,80.7539805 C66.4686405,81.6696855 67.9529205,81.6696855 68.8686255,80.7539805 L70.6427505,78.9798555 C71.5593105,78.0641505 71.5593105,76.5790155 70.6427505,75.6633105 L70.0288605,75.0494205 C69.3405855,74.3620005 69.1764255,73.3300155 69.5483505,72.4305555 C69.5526255,72.4211505 69.5560455,72.4108905 69.5603205,72.4014855 C69.9305355,71.4986055 70.7778405,70.8838605 71.7533955,70.8838605 L72.6229305,70.8838605 C73.9182555,70.8838605 74.9681955,69.8347755 74.9681955,68.5385955 Z" id="Stroke-39" stroke="#00B488" stroke-width="2.01438" stroke-linecap="round" stroke-linejoin="round"></path>
                        <path d="M64.3136985,67.2844815 C64.3136985,71.2277415 61.1168535,74.4254415 57.1727385,74.4254415 C53.2294785,74.4254415 50.0326335,71.2277415 50.0326335,67.2844815 C50.0326335,63.3412215 53.2294785,60.1435215 57.1727385,60.1435215 C61.1168535,60.1435215 64.3136985,63.3412215 64.3136985,67.2844815" id="Fill-41" fill="#FFFFFF"></path>
                        <path d="M64.3136985,67.2844815 C64.3136985,71.2277415 61.1168535,74.4254415 57.1727385,74.4254415 C53.2294785,74.4254415 50.0326335,71.2277415 50.0326335,67.2844815 C50.0326335,63.3412215 53.2294785,60.1435215 57.1727385,60.1435215 C61.1168535,60.1435215 64.3136985,63.3412215 64.3136985,67.2844815 Z" id="Stroke-43" stroke="#00B488" stroke-width="2.01438" stroke-linecap="round" stroke-linejoin="round"></path>
                        <path d="M40.548204,13.287555 L47.295864,13.287555" id="Stroke-45" stroke="#02B187" stroke-width="1.71" stroke-linecap="round" stroke-linejoin="round"></path>
                        <path d="M13.079277,13.287555 L34.074657,13.287555" id="Stroke-47" stroke="#02B187" stroke-width="1.71" stroke-linecap="round" stroke-linejoin="round"></path>
                        <path d="M13.079277,20.7417015 L36.625122,20.7417015" id="Stroke-49" stroke="#02B187" stroke-width="1.71" stroke-linecap="round" stroke-linejoin="round"></path>
                        <path d="M36.1354635,28.031346 L42.8831235,28.031346" id="Stroke-51" stroke="#02B187" stroke-width="1.71" stroke-linecap="round" stroke-linejoin="round"></path>
                        <path d="M13.079277,28.031346 L29.662002,28.031346" id="Stroke-53" stroke="#02B187" stroke-width="1.71" stroke-linecap="round" stroke-linejoin="round"></path>
                    </g>
                </g>
            </g>
        </g>
    </g>
</svg>