<?xml version="1.0" encoding="UTF-8"?>
<svg width="134px" height="145px" viewBox="0 0 134 145" version="1.1" xmlns="http://www.w3.org/2000/svg" xmlns:xlink="http://www.w3.org/1999/xlink">
    <!-- Generator: Sketch 62 (91390) - https://sketch.com -->
    <title>ill_Explore Projects &amp; Client CRM</title>
    <desc>Created with Sketch.</desc>
    <g id="Page-1" stroke="none" stroke-width="1" fill="none" fill-rule="evenodd">
        <g id="Proposals" transform="translate(-815.000000, -4122.000000)">
            <g id="06.-Keep-Exploring" transform="translate(250.000000, 3945.000000)">
                <g id="Explore-Projects" transform="translate(565.000000, 142.000000)">
                    <g id="ill_Explore-Projects-&amp;-Client-CRM" transform="translate(0.000000, 35.000000)">
                        <g id="Group-52" transform="translate(-22.000000, 0.000000)">
                            <path d="M116.15043,12.1472695 C116.15043,10.2950963 116.614613,8.56527623 117.375358,7 C111.43553,8.40917051 107,13.7294221 107,20.1170992 L107,166 L149,166 L149,157.283394 L116.15043,157.283394 L116.15043,12.1472695 Z" id="Fill-17" fill="#A7E0FE"></path>
                            <path d="M153.136124,79 C154.163327,79 155,78.1235459 155,77.0428695 L155,11.9129685 C155,5.34807195 149.909549,0 143.646927,0 L128.172618,0 C123.691033,0 119.843166,2.76125592 118,6.7265726 C118.960931,6.48831323 119.950856,6.33089186 120.978059,6.33089186 L122.72596,6.33089186 C124.113512,4.84177079 126.039516,3.91426109 128.172618,3.91426109 L143.646927,3.91426109 C147.851002,3.91426109 151.272249,7.50091555 151.272249,11.9129685 L151.272249,77.0428695 C151.272249,78.1235459 152.108922,79 153.136124,79" id="Fill-19" fill="#00B388"></path>
                            <path d="M156,156 L156,105.947248 C156,104.872029 155.102792,104 154.001269,104 C152.899746,104 152.002538,104.872029 152.002538,105.947248 L152.002538,152.105503 L149,152.105503 L149,156 L156,156 Z" id="Fill-21" fill="#00B388"></path>
                            <path d="M118.193405,6.39060312 C117.452238,7.94881559 117,9.67082937 117,11.5146441 L117,156 L149,156 L149,152.135969 L120.768647,152.135969 L120.768647,11.5146441 C120.768647,9.36842695 121.614499,7.42381139 122.975399,6 L121.208322,6 C120.169851,6 119.164878,6.15540124 118.193405,6.39060312" id="Fill-23" fill="#00B388"></path>
                            <path d="M63.1341726,44.8271932 C63.1341726,43.1008012 63.5339269,41.4749757 64.2044827,40 C58.3457169,41.5210687 54,46.7798599 54,53.0945996 L54,162.938386 C54,164.07814 54.9241633,165 56.05895,165 L93.9367516,165 C95.0758367,165 96,164.07814 96,162.938386 L96,156.129194 L63.1341726,156.129194 L63.1341726,44.8271932 Z" id="Fill-25" fill="#A7E0FE"></path>
                            <path d="M67.8307953,40.5075804 C69.2563452,38.9199515 71.2783418,37.9053972 73.5456853,37.9053972 L86.0922166,37.9053972 C87.141286,37.9053972 88,37.0309278 88,35.9526986 C88,34.8744694 87.141286,34 86.0922166,34 L73.5456853,34 C68.8544839,34 64.8274112,36.8823529 63,41 C64.0871404,40.7113402 65.2038917,40.5075804 66.3756345,40.5075804 L67.8307953,40.5075804 Z" id="Fill-27" fill="#00B388"></path>
                            <path d="M101,56.9377531 C101,55.8677764 100.101081,55 98.9974571,55 C97.8938334,55 96.9949142,55.8677764 96.9949142,56.9377531 L96.9949142,154.120281 L94,154.120281 L94,158 L101,158 L101,56.9377531 Z" id="Fill-29" fill="#00B388"></path>
                            <path d="M66.7671681,154.099174 L66.7671681,45.3763564 C66.7671681,43.2987424 67.5540876,41.4204096 68.8181818,40 L67.3782865,40 C66.2188358,40 65.1137999,40.2035214 64.0422498,40.4918433 C63.3850883,41.9843335 63,43.6294646 63,45.3763564 L63,158 L95,158 L95,154.099174 L66.7671681,154.099174 Z" id="Fill-31" fill="#00B388"></path>
                            <path d="M8.90023607,146.277864 C8.90023607,145.214415 9.75028225,144.348524 10.7939033,144.348524 L10.7939033,119.132605 C9.75028225,119.132605 8.90023607,118.270917 8.90023607,117.203265 L8.90023607,76.2079554 C8.90023607,74.3290562 9.3715488,72.5762577 10.1416402,71 C4.35964282,72.1853458 0,77.3933012 0,83.6478917 L0,166 L41,166 L41,157.07628 L8.90023607,157.07628 L8.90023607,146.277864 Z" id="Fill-33" fill="#A7E0FE"></path>
                            <path d="M48,75.814882 C48,69.3040381 42.903844,64 36.6342037,64 L21.1384064,64 C16.6849714,64 12.8618178,66.7005445 11,70.5867967 C11.7961448,70.4222323 12.6171691,70.3294011 13.463073,70.3294011 L15.6483246,70.3294011 C17.0374314,68.8272232 18.9821809,67.8820327 21.1384064,67.8820327 L36.6342037,67.8820327 C40.8388434,67.8820327 44.2680713,71.4391561 44.2680713,75.814882 L44.2680713,153.113748 L41.4027793,153.113748 L41.4027793,157 L48,157 L48,75.814882 Z" id="Fill-35" fill="#00B388"></path>
                            <path d="M13.7755637,153.048893 L13.7755637,145.971259 C13.7755637,144.884704 12.9281594,144 11.8877819,144 C10.8474043,144 10,144.884704 10,145.971259 L10,157 L42,157 L42,153.048893 L13.7755637,153.048893 Z" id="Fill-39" fill="#00B388"></path>
                        </g>
                    </g>
                </g>
            </g>
        </g>
    </g>
</svg>