<?xml version="1.0" encoding="UTF-8"?>
<svg width="74px" height="104px" viewBox="0 0 74 104" version="1.1" xmlns="http://www.w3.org/2000/svg" xmlns:xlink="http://www.w3.org/1999/xlink">
    <!-- Generator: Sketch 61.1 (89650) - https://sketch.com -->
    <title>ill_Simple &amp; Easy</title>
    <desc>Created with Sketch.</desc>
    <g id="Page-1" stroke="none" stroke-width="1" fill="none" fill-rule="evenodd">
        <g id="v3_A" transform="translate(-248.000000, -1146.000000)">
            <g id="ill_Simple-&amp;-Easy" transform="translate(250.000000, 1148.000000)">
                <path d="M66.8220592,15.1266434 C67.1359539,7.73610395 60.7992039,7.17557763 59.3287566,7.29048553 C57.1427039,7.46051184 55.1014539,8.450775 53.5497303,10.0015645 L25.570125,37.9811697 C26.8985724,41.0192224 28.2288882,44.1002487 28.2288882,44.1002487 L54.1158618,18.213275 C57.4407171,14.8884197 62.3425197,13.6973013 66.8220592,15.1266434" id="Fill-2" fill="#B8DFFD"></path>
                <path d="M24.8550803,87.654825 C16.7209092,79.0329961 13.9556461,77.0814303 15.2570013,63.0906934 C15.7306461,58.0048513 17.4776197,44.2747592 16.6639224,37.7689171 C15.8903961,31.5816408 8.72500132,22.0545618 8.48771184,19.6872724 C8.33076448,18.1140618 8.41858026,16.4016539 11.1614224,15.1273908 C8.30554079,13.7008513 4.78356711,13.5224171 2.43402763,15.5197592 C-0.710524998,18.1925355 -0.0808671036,20.2356539 0.390909212,21.0231934 C1.80530395,23.382075 7.50492237,32.6531803 8.25229079,38.6321276 C9.03796184,44.9231013 5.56456711,59.3454434 5.10773816,64.2621934 C3.84935658,77.7848908 6.5221329,79.6701276 14.3844487,88.0051539 C16.9208303,90.6938118 20.5651855,93.5879961 22.9922645,95.4153118 C25.4585803,97.2734566 28.2546724,98.6588908 31.2450803,99.4286803 C32.5847382,99.7724697 33.9991329,100.00322 35.2967513,99.9546408 C36.475725,99.9097987 37.6304092,99.6855882 38.6841987,99.3829039 C39.2176329,99.2287592 39.7407908,99.0465882 40.2536724,98.8438645 C37.9274882,98.0105487 35.7414355,96.813825 33.7609092,95.3209566 C31.2497513,93.4310487 27.4792776,90.4369039 24.8550803,87.654825" id="Fill-4" fill="#B8DFFD"></path>
                <path d="M53.6144711,88.0835342 C51.9366289,89.7398895 50.9678526,90.6815737 49.65155,91.9035211" id="Stroke-6" stroke="#01B289" stroke-width="2.356" stroke-linecap="round"></path>
                <path d="M45.2384329,95.8318763 C43.3223671,97.4546 41.0980118,98.6877579 38.6840118,99.3828105 C37.6302224,99.6854947 36.4755382,99.9097053 35.2965645,99.9536132 C33.9989461,100.003126 32.5845513,99.7723763 31.2448934,99.4285868 C28.2544855,98.6587974 25.4593276,97.2733632 22.9920776,95.4152184 C20.5649987,93.5879026 16.9206434,90.6937184 14.3842618,88.0041263 C6.52288026,79.6700342 3.84916974,77.7847974 5.10755132,64.2630342 C5.56438026,59.34535 9.037775,44.9220737 8.25210395,38.6320342 C7.50473553,32.6540211 1.80511711,23.3819816 0.39072237,21.0221658 C-0.0810539457,20.2374289 -0.71071184,18.1933763 2.434775,15.5196658 C5.57932763,12.8459553 9.82438026,13.4756132 13.4407092,16.7771132 C17.0570382,20.0795474 19.7298145,24.7954421 21.1451434,27.9418632 C22.5604724,31.0854816 25.5480776,38.0042447 25.5480776,38.0042447 L53.5501039,10.0022184 C55.1008934,8.45049474 57.1430776,7.46116579 59.3291303,7.29113947 C61.0424724,7.15754737 62.9697487,7.50133684 64.542025,9.07267895 C65.2492224,9.78081053 65.7639724,10.5552711 66.1320513,11.3446789 C67.5978276,14.4920342 66.8616697,18.2307447 64.4159066,20.6942579 L46.1455513,39.1038105 C46.1455513,39.1038105 50.8623803,39.1038105 52.7494855,41.9354026 C54.6365908,44.7641921 54.3217618,49.1680605 54.3217618,49.1680605 C54.3217618,49.1680605 58.5668145,49.3250079 60.4539197,51.5260079 C62.341025,53.7279421 62.0261961,59.7022184 62.0261961,59.7022184 C62.0261961,59.7022184 66.5860776,59.2304421 68.7870776,62.3759289 C69.0626697,62.7673632 69.2934197,63.1840211 69.4868013,63.6100211 C70.8759724,66.6658237 70.275275,70.2625342 68.0724066,72.7979816 C66.1320513,75.0279421 62.8679197,78.6554816 57.9380908,83.7581395" id="Stroke-8" stroke="#01B289" stroke-width="2.356" stroke-linecap="round" stroke-linejoin="round"></path>
                <line x1="21.5182671" y1="15.1850316" x2="13.0683329" y2="6.73509737" id="Stroke-10" stroke="#01B289" stroke-width="2.356" stroke-linecap="round"></line>
                <line x1="38.2255013" y1="15.1850316" x2="46.6754355" y2="6.73509737" id="Stroke-12" stroke="#01B289" stroke-width="2.356" stroke-linecap="round"></line>
                <line x1="33.1963658" y1="11.5421711" x2="36.2951421" y2="-2.12414881e-13" id="Stroke-14" stroke="#01B289" stroke-width="2.356" stroke-linecap="round"></line>
                <line x1="27.0190855" y1="11.5421711" x2="23.9203092" y2="-2.12414881e-13" id="Stroke-16" stroke="#01B289" stroke-width="2.356" stroke-linecap="round"></line>
            </g>
        </g>
    </g>
</svg>