<?xml version="1.0" encoding="UTF-8"?>
<svg width="98px" height="93px" viewBox="0 0 98 93" version="1.1" xmlns="http://www.w3.org/2000/svg" xmlns:xlink="http://www.w3.org/1999/xlink">
    <!-- Generator: Sketch 62 (91390) - https://sketch.com -->
    <title>ill_tax estimates</title>
    <desc>Created with Sketch.</desc>
    <g id="Page-1" stroke="none" stroke-width="1" fill="none" fill-rule="evenodd">
        <g id="Accounting-&amp;-Taxes" transform="translate(-1092.000000, -1153.000000)">
            <g id="02.-Stay-on-top" transform="translate(250.000000, 950.000000)">
                <g id="Tax-Estimates" transform="translate(842.000000, 203.000000)">
                    <g id="ill_tax-estimates">
                        <path d="M97.5449,34.216725 L97.5449,27.542725 C97.5449,27.163725 97.3469,26.812725 97.0219,26.613725 L56.5719,2.07272503 C54.2229,0.648725029 51.2739,0.648725029 48.9259,2.07272503 L8.9539,26.932725 L8.9539,35.158725 L82.6379,35.158725 L82.6379,77.943725 L16.8419,77.943725 C12.4849,77.943725 8.9539,81.474725 8.9539,85.830725 L8.9539,91.003725 L97.5449,91.003725 L97.5449,85.830725 C97.5449,81.474725 94.0129,77.943725 89.6569,77.943725 L89.5919,35.158725 L96.6019,35.158725 C97.1229,35.158725 97.5449,34.737725 97.5449,34.216725" id="Fill-25" fill="#A5E2FF"></path>
                        <polygon id="Fill-27" fill="#B9E0FE" points="56.5273 77.942925 69.4903 77.942925 69.4903 39.425925 56.5273 39.425925"></polygon>
                        <path d="M1,26.931625 L1,35.160625 L90.592,35.160625 L90.592,26.931625 L49.619,2.07462503 C47.27,0.648625029 44.322,0.648625029 41.973,2.07462503 L1,26.931625 Z" id="Fill-29" fill="#FFFFFF"></path>
                        <path d="M2,34.160125 L89.592,34.160125 L89.592,27.495125 L49.101,2.93012503 C47.062,1.69112503 44.53,1.69112503 42.491,2.93012503 L2,27.495125 L2,34.160125 Z M90.592,36.160125 L1,36.160125 C0.447,36.160125 2.27373675e-13,35.712125 2.27373675e-13,35.160125 L2.27373675e-13,26.932125 C2.27373675e-13,26.583125 0.183,26.259125 0.481,26.077125 L41.454,1.21912503 C44.133,-0.406874971 47.461,-0.405874971 50.138,1.21912503 L91.11,26.077125 C91.409,26.259125 91.592,26.583125 91.592,26.932125 L91.592,35.160125 C91.592,35.712125 91.145,36.160125 90.592,36.160125 L90.592,36.160125 Z" id="Fill-30" fill="#00B887"></path>
                        <path d="M51.2764,20.020525 C51.2764,23.045525 48.8224,25.499525 45.7964,25.499525 C42.7694,25.499525 40.3154,23.045525 40.3154,20.020525 C40.3154,16.993525 42.7694,14.540525 45.7964,14.540525 C48.8224,14.540525 51.2764,16.993525 51.2764,20.020525" id="Fill-31" fill="#B9E0FE"></path>
                        <polygon id="Fill-32" fill="#B9E0FE" points="26.2593 77.942925 39.2213 77.942925 39.2213 39.425925 26.2593 39.425925"></polygon>
                        <path d="M8.9541,78.943325 C8.4011,78.943325 7.9541,78.496325 7.9541,77.943325 L7.9541,54.550325 C7.9541,53.999325 8.4011,53.550325 8.9541,53.550325 C9.5071,53.550325 9.9541,53.999325 9.9541,54.550325 L9.9541,77.943325 C9.9541,78.496325 9.5071,78.943325 8.9541,78.943325" id="Fill-33" fill="#00B887"></path>
                        <line x1="22.1016" y1="35.160125" x2="22.1016" y2="77.943125" id="Fill-34" fill="#FFFFFF"></line>
                        <path d="M22.1016,78.943325 C21.5486,78.943325 21.1016,78.496325 21.1016,77.943325 L21.1016,35.160325 C21.1016,34.608325 21.5486,34.160325 22.1016,34.160325 C22.6546,34.160325 23.1016,34.608325 23.1016,35.160325 L23.1016,77.943325 C23.1016,78.496325 22.6546,78.943325 22.1016,78.943325" id="Fill-35" fill="#00B887"></path>
                        <path d="M39.2217,78.943325 C38.6687,78.943325 38.2217,78.496325 38.2217,77.943325 L38.2217,35.160325 C38.2217,34.608325 38.6687,34.160325 39.2217,34.160325 C39.7747,34.160325 40.2217,34.608325 40.2217,35.160325 L40.2217,77.943325 C40.2217,78.496325 39.7747,78.943325 39.2217,78.943325" id="Fill-36" fill="#00B887"></path>
                        <line x1="52.3701" y1="35.160125" x2="52.3701" y2="77.943125" id="Fill-37" fill="#FFFFFF"></line>
                        <path d="M52.3701,78.943325 C51.8171,78.943325 51.3701,78.496325 51.3701,77.943325 L51.3701,35.160325 C51.3701,34.608325 51.8171,34.160325 52.3701,34.160325 C52.9231,34.160325 53.3701,34.608325 53.3701,35.160325 L53.3701,77.943325 C53.3701,78.496325 52.9231,78.943325 52.3701,78.943325" id="Fill-38" fill="#00B887"></path>
                        <path d="M69.4902,78.943325 C68.9372,78.943325 68.4902,78.496325 68.4902,77.943325 L68.4902,35.160325 C68.4902,34.608325 68.9372,34.160325 69.4902,34.160325 C70.0432,34.160325 70.4902,34.608325 70.4902,35.160325 L70.4902,77.943325 C70.4902,78.496325 70.0432,78.943325 69.4902,78.943325" id="Fill-39" fill="#00B887"></path>
                        <line x1="82.6377" y1="35.160125" x2="82.6377" y2="77.943125" id="Fill-40" fill="#FFFFFF"></line>
                        <path d="M82.6377,78.943325 C82.0847,78.943325 81.6377,78.496325 81.6377,77.943325 L81.6377,35.160325 C81.6377,34.608325 82.0847,34.160325 82.6377,34.160325 C83.1907,34.160325 83.6377,34.608325 83.6377,35.160325 L83.6377,77.943325 C83.6377,78.496325 83.1907,78.943325 82.6377,78.943325" id="Fill-41" fill="#00B887"></path>
                        <path d="M90.5918,91.003925 L0.9998,91.003925 L0.9998,85.830925 C0.9998,81.474925 4.5318,77.942925 8.8888,77.942925 L82.7038,77.942925 C87.0598,77.942925 90.5918,81.474925 90.5918,85.830925 L90.5918,91.003925 Z" id="Fill-42" fill="#FFFFFF"></path>
                        <path d="M2,90.003925 L89.592,90.003925 L89.592,85.830925 C89.592,82.032925 86.502,78.942925 82.704,78.942925 L8.889,78.942925 C5.09,78.942925 2,82.032925 2,85.830925 L2,90.003925 Z M90.592,92.003925 L1,92.003925 C0.447,92.003925 2.27373675e-13,91.556925 2.27373675e-13,91.003925 L2.27373675e-13,85.830925 C2.27373675e-13,80.930925 3.987,76.942925 8.889,76.942925 L82.704,76.942925 C87.604,76.942925 91.592,80.930925 91.592,85.830925 L91.592,91.003925 C91.592,91.556925 91.145,92.003925 90.592,92.003925 L90.592,92.003925 Z" id="Fill-43" fill="#00B887"></path>
                        <path d="M8.9541,44.628925 C8.4011,44.628925 7.9541,44.180925 7.9541,43.628925 L7.9541,35.159925 C7.9541,34.607925 8.4011,34.159925 8.9541,34.159925 C9.5071,34.159925 9.9541,34.607925 9.9541,35.159925 L9.9541,43.628925 C9.9541,44.180925 9.5071,44.628925 8.9541,44.628925" id="Fill-44" fill="#00B887"></path>
                    </g>
                </g>
            </g>
        </g>
    </g>
</svg>