<?xml version="1.0" encoding="UTF-8"?>
<svg width="102px" height="90px" viewBox="0 0 102 90" version="1.1" xmlns="http://www.w3.org/2000/svg" xmlns:xlink="http://www.w3.org/1999/xlink">
    <!-- Generator: Sketch 62 (91390) - https://sketch.com -->
    <title>ill_Vetted Templates</title>
    <desc>Created with Sketch.</desc>
    <g id="Page-1" stroke="none" stroke-width="1" fill="none" fill-rule="evenodd">
        <g id="Contracts" transform="translate(-250.000000, -1155.000000)">
            <g id="02.Make-sure-you’re-being-professional" transform="translate(250.000000, 950.000000)">
                <g id="Vetted-Templates" transform="translate(0.000000, 205.000000)">
                    <g id="ill_Vetted-Templates" transform="translate(0.000000, -0.000000)">
                        <path d="M79.0651034,26.3525241 L17.0022069,26.3525241 C15.7721379,26.3525241 14.7715862,25.3519724 14.7715862,24.1183172 L14.7715862,15.5939034 C14.7715862,14.3638345 15.7721379,13.3632828 17.0022069,13.3632828 L79.0651034,13.3632828 C80.2987586,13.3632828 81.2993103,14.3638345 81.2993103,15.5939034 L81.2993103,24.1183172 C81.2993103,25.3519724 80.2987586,26.3525241 79.0651034,26.3525241" id="Fill-15" fill="#A7E0FE"></path>
                        <path d="M43.3360828,55.2433655 L17.0025655,55.2433655 C15.7689103,55.2433655 14.7719448,54.2464 14.7719448,53.0127448 L14.7719448,33.1272276 C14.7719448,31.8971586 15.7689103,30.8966069 17.0025655,30.8966069 L43.3360828,30.8966069 C44.5661517,30.8966069 45.5667034,31.8971586 45.5667034,33.1272276 L45.5667034,53.0127448 C45.5667034,54.2464 44.5661517,55.2433655 43.3360828,55.2433655" id="Fill-17" fill="#A7E0FE"></path>
                        <path d="M79.0651034,55.2433655 L52.7351724,55.2433655 C51.5015172,55.2433655 50.5045517,54.2464 50.5045517,53.0127448 L50.5045517,33.1272276 C50.5045517,31.8971586 51.5015172,30.8966069 52.7351724,30.8966069 L79.0651034,30.8966069 C80.2987586,30.8966069 81.2993103,31.8971586 81.2993103,33.1272276 L81.2993103,53.0127448 C81.2993103,54.2464 80.2987586,55.2433655 79.0651034,55.2433655" id="Fill-19" fill="#A7E0FE"></path>
                        <polygon id="Fill-21" fill="#A7E0FE" points="72.9907862 76.8936552 74.0953379 77.8404138 83.4338207 66.9562759 61.4145103 66.9562759 66.0084414 70.8975172 78.1369931 70.8975172"></polygon>
                        <path d="M55.1594483,73.4125241 C54.2521379,72.630731 53.6998621,71.5441103 53.6066207,70.3499034 C53.5169655,69.1556966 53.8935172,67.9937655 54.6788966,67.082869 C54.7291034,67.0290759 54.7972414,67.0075586 54.8474483,66.9537655 L11.3108966,66.9537655 C7.25131034,66.9537655 3.94482759,63.6472828 3.94482759,59.5876966 L3.94482759,7.36893793 C3.94482759,7.13942069 3.99144828,6.92066207 4.01296552,6.69473103 C1.67475862,7.58052414 3.33808077e-12,9.82907586 3.33808077e-12,12.4792828 L3.33808077e-12,64.690869 C3.33808077e-12,68.1192828 2.78289655,70.8985931 6.20772414,70.8985931 L49.7801379,70.8985931 C49.278069,72.1752828 49.5757241,73.670731 50.6766897,74.6139034 L67.1732414,88.7722483 C68.5646897,89.9664552 70.6590345,89.8050759 71.8532414,88.4208 L72.2692414,87.9294897 C72.0684138,87.8075586 71.8424828,87.7286621 71.656,87.5672828 L55.1594483,73.4125241 Z" id="Fill-23" fill="#A7E0FE"></path>
                        <path d="M98.9818207,59.0325517 L76.2094069,85.5633103 C75.8364414,86.0044138 75.3128552,86.2697931 74.7426483,86.3092414 C74.4163034,86.3307586 74.1007172,86.2662069 73.8030621,86.1514483 C73.577131,86.0617931 73.3619586,85.9577931 73.1754759,85.7964138 L56.6789241,71.6452414 C56.2414069,71.2651034 55.9760276,70.7486897 55.9329931,70.1713103 C55.8863724,69.5975172 56.069269,69.0416552 56.4494069,68.6041379 C56.8223724,68.1666207 57.3459586,67.9048276 57.9161655,67.8582069 C57.9699586,67.8546207 58.0273379,67.8510345 58.0847172,67.8510345 C58.5975448,67.8510345 59.0888552,68.033931 59.4833379,68.3710345 L62.4276138,70.9028966 L71.4756138,78.6634483 L74.3481655,81.1235862 L86.785131,66.6353103 L92.0317517,60.5208276 L94.5636138,57.5729655 L95.7147862,56.2281379 C96.0877517,55.7906207 96.6113379,55.5216552 97.1815448,55.4822069 C97.7553379,55.449931 98.3147862,55.622069 98.7523034,55.9914483 L98.7523034,55.9950345 C99.6524414,56.766069 99.7564414,58.1288276 98.9818207,59.0325517 L98.9818207,59.0325517 Z M83.4356138,66.9544828 L74.097131,77.8386207 L72.9925793,76.8918621 L66.0102345,70.9028966 L61.4163034,66.9544828 L83.4356138,66.9544828 Z M11.3134069,64.6270345 C8.53409655,64.6270345 6.27478621,62.3641379 6.27478621,59.5812414 L6.27478621,7.36965517 C6.27478621,6.99310345 6.3249931,6.62731034 6.40747586,6.27586207 C6.90595862,4.02372414 8.91423448,2.33103448 11.3134069,2.33103448 L84.7517517,2.33103448 C87.5346483,2.33103448 89.7903724,4.59034483 89.7903724,7.36965517 L89.7903724,57.3936552 L89.7903724,59.5489655 L85.501269,64.5481379 C85.2574069,64.584 85.0099586,64.6270345 84.7517517,64.6270345 L11.3134069,64.6270345 Z M100.269269,54.2270345 C99.3547862,53.4416552 98.1856828,53.0758621 97.0058207,53.1547586 C95.8080276,53.248 94.7249931,53.8002759 93.9432,54.7075862 L92.4298207,56.4755862 L92.1249931,56.8270345 L92.1249931,56.4397241 L92.1249931,7.36965517 C92.1249931,3.30648276 88.8185103,8.28149809e-14 84.7517517,8.28149809e-14 L11.3134069,8.28149809e-14 C7.48333793,8.28149809e-14 4.35975172,2.95144828 4.01547586,6.69186207 C3.99395862,6.92137931 3.94375172,7.14013793 3.94375172,7.36965517 L3.94375172,59.5812414 C3.94375172,63.648 7.25023448,66.9544828 11.3134069,66.9544828 L54.8463724,66.9544828 C54.7997517,67.0118621 54.7280276,67.0262069 54.6778207,67.0835862 C53.8960276,67.9944828 53.5158897,69.1528276 53.609131,70.3470345 C53.6987862,71.5448276 54.2510621,72.6314483 55.1583724,73.4132414 L71.6549241,87.568 C71.8449931,87.7293793 72.0673379,87.8046897 72.2717517,87.9337931 C72.9925793,88.3677241 73.7743724,88.6474483 74.5740966,88.6474483 C75.8400276,88.6474483 77.0952,88.1131034 77.9845793,87.0838621 L100.753407,60.5531034 C101.531614,59.6422069 101.911752,58.4838621 101.822097,57.2896552 C101.732441,56.0990345 101.180166,55.0052414 100.269269,54.2270345 L100.269269,54.2270345 Z" id="Fill-25" fill="#00B388"></path>
                        <path d="M43.3353655,29.7325241 C45.0761733,29.7325241 46.5123549,31.0429064 46.7086421,32.7324585 L46.7315034,33.1286621 L46.7315034,53.0141793 C46.7315034,53.6578767 46.2096836,54.1796966 45.5659862,54.1796966 C45.002751,54.1796966 44.5328283,53.7801782 44.4241481,53.2490717 L44.400469,53.0141793 L44.400469,33.1286621 C44.400469,32.6242935 44.0498708,32.2020318 43.5794769,32.0916788 L43.3353655,32.0635586 L17.0018483,32.0635586 C16.3581509,32.0635586 15.836331,31.5417388 15.836331,30.8980414 C15.836331,30.3348062 16.2358494,29.8648834 16.7669559,29.7562033 L17.0018483,29.7325241 L43.3353655,29.7325241 Z" id="Stroke-27" fill="#00B388" fill-rule="nonzero"></path>
                        <path d="M79.0658207,29.7325241 C80.8091759,29.7325241 82.2462662,31.0421787 82.4426702,32.7323025 L82.4655448,33.1286621 L82.4655448,53.0141793 C82.4655448,53.6578767 81.943725,54.1796966 81.3000276,54.1796966 C80.7367924,54.1796966 80.2668696,53.7801782 80.1581895,53.2490717 L80.1345103,53.0141793 L80.1345103,33.1286621 C80.1345103,32.6240672 79.7837175,32.2019671 79.3111765,32.091665 L79.0658207,32.0635586 L52.7358897,32.0635586 C52.0921923,32.0635586 51.5703724,31.5417388 51.5703724,30.8980414 C51.5703724,30.3348062 51.9698907,29.8648834 52.5009973,29.7562033 L52.7358897,29.7325241 L79.0658207,29.7325241 Z" id="Stroke-29" fill="#00B388" fill-rule="nonzero"></path>
                        <path d="M79.0661793,12.1974069 C80.8062025,12.1974069 82.2461489,13.5101519 82.4429778,15.1978475 L82.4659034,15.5935448 L82.4659034,24.1215448 C82.4659034,24.7652422 81.9440836,25.2870621 81.3003862,25.2870621 C80.737151,25.2870621 80.2672283,24.8875438 80.1585481,24.3564372 L80.134869,24.1215448 L80.134869,15.5935448 C80.134869,15.0920209 79.7814388,14.6677273 79.3104048,14.5567357 L79.0661793,14.5284414 L17.458731,14.5284414 C16.8150336,14.5284414 16.2932138,14.0066215 16.2932138,13.3629241 C16.2932138,12.7996889 16.6927321,12.3297662 17.2238387,12.2210861 L17.458731,12.1974069 L79.0661793,12.1974069 Z" id="Stroke-31" fill="#00B388" fill-rule="nonzero"></path>
                    </g>
                </g>
            </g>
        </g>
    </g>
</svg>