<?xml version="1.0" encoding="UTF-8"?>
<svg width="109px" height="98px" viewBox="0 0 109 98" version="1.1" xmlns="http://www.w3.org/2000/svg" xmlns:xlink="http://www.w3.org/1999/xlink">
    <!-- Generator: Sketch 62 (91390) - https://sketch.com -->
    <title>ill_Electronic Signature</title>
    <desc>Created with Sketch.</desc>
    <g id="Page-1" stroke="none" stroke-width="1" fill="none" fill-rule="evenodd">
        <g id="Contracts" transform="translate(-669.000000, -1150.000000)">
            <g id="02.Make-sure-you’re-being-professional" transform="translate(250.000000, 950.000000)">
                <g id="Electronic-Signature" transform="translate(421.000000, 202.000000)">
                    <g id="ill_Electronic-Signature">
                        <path d="M89.3796684,5.66633491 L89.3796684,5.66633491 C84.5487855,0.895987503 77.3590731,0.258698904 70.6411266,6.89246327 L13.444228,63.4322605 C12.1647988,64.6993841 11.2439118,66.2758348 10.77592,68.0050857 L6.07713154,85.3236829 C5.64310691,86.9001337 7.11124241,88.3498721 8.7152465,87.925013 L26.2460676,83.2851048 C27.9972627,82.8229774 29.5937185,81.9099031 30.8769218,80.6502332 L72.8565393,39.2562889 L89.3796684,22.9402101 C94.2067772,18.1698627 94.2067772,10.4366823 89.3796684,5.66633491" id="Fill-37" fill="#A7E0FE"></path>
                        <path d="M66.9311266,37.5017565 L28.4291228,76 L11,58.5746376 L65.9609619,3.60991539 C70.7741824,-1.20330513 78.5806244,-1.20330513 83.3900846,3.60991539 C88.2033051,8.42313592 88.2033051,16.2258176 83.3900846,21.0390381" id="Stroke-39" stroke="#00B388" stroke-width="2.6" stroke-linecap="round" stroke-linejoin="round"></path>
                        <line x1="78.5" y1="26.5" x2="78.5" y2="26.5" id="Stroke-41" stroke="#00B388" stroke-width="0.65" stroke-linecap="round" stroke-linejoin="round"></line>
                        <polyline id="Stroke-43" stroke="#00B388" stroke-width="2.6" stroke-linecap="round" stroke-linejoin="round" points="6.42993025 63 0 87 24 80.5645008"></polyline>
                        <line x1="78" y1="26" x2="72" y2="32" id="Stroke-45" stroke="#00B388" stroke-width="2.6" stroke-linecap="round" stroke-linejoin="round"></line>
                        <path d="M9,93.8851608 C44.4335884,93.8851608 74.1685638,94.7543045 77.8980226,91.7104521 C79.2704635,90.5898114 79.6545977,88.5963285 75.4962511,87.3795272 C67.7240589,85.1123565 51.3517346,87.2352864 51.3517346,81.968645 C51.3517346,77.2308869 63.4799347,78.477276 73.8217241,78.477276 C98.2198438,78.477276 94.8260363,72.448747 83.2908201,72.448747 C74.1872111,72.448747 72.9900548,70.1076065 72.9900548,69.0017598 C72.9900548,65.6620287 78.4201468,65 105,65" id="Stroke-47" stroke="#A7E0FE" stroke-width="2.6" stroke-linecap="round" stroke-linejoin="round"></path>
                    </g>
                </g>
            </g>
        </g>
    </g>
</svg>