<?xml version="1.0" encoding="UTF-8"?>
<svg width="132px" height="146px" viewBox="0 0 132 146" version="1.1" xmlns="http://www.w3.org/2000/svg" xmlns:xlink="http://www.w3.org/1999/xlink">
    <!-- Generator: Sketch 62 (91390) - https://sketch.com -->
    <title>ill_explore contracts</title>
    <desc>Created with Sketch.</desc>
    <g id="Page-1" stroke="none" stroke-width="1" fill="none" fill-rule="evenodd">
        <g id="Proposals" transform="translate(-251.000000, -4122.000000)">
            <g id="06.-Keep-Exploring" transform="translate(250.000000, 3945.000000)">
                <g id="Explore-Contracts" transform="translate(0.000000, 142.000000)">
                    <g id="ill_explore-contracts" transform="translate(1.000000, 30.000000)">
                        <g id="Group-92" transform="translate(-15.000000, 5.000000)">
                            <path d="M11.5272577,177.538412 L11.5272577,14 L1.76914178,14 C0.794876638,14 0,14.8001421 0,15.7846919 L0,188.221559 C0,189.199858 0.794876638,190 1.76914178,190 L129.237044,190 C130.211309,190 131,189.199858 131,188.221559 L131,179.426248 L13.3953724,179.426248 C12.365435,179.426248 11.5272577,178.576097 11.5272577,177.538412" id="Fill-1" fill="#A7E0FE"></path>
                            <path d="M104.137115,40.0661056 L104.137115,16.0296003 L99.3399261,11.2324119 C98.8469345,10.73626 98,11.0870425 98,11.7886076 L98,48.2131094 C98,48.6460572 98.3539428,49 98.7868906,49 L135.211392,49 C135.912957,49 136.26374,48.1562258 135.767588,47.6569137 L130.085543,41.9748683 L106.045877,41.9748683 C104.99353,41.9748683 104.137115,41.1184533 104.137115,40.0661056" id="Fill-3" fill="#A7E0FE"></path>
                            <path d="M126.459504,38.5142996 L108.360514,38.5142996 L108.360514,20.4739477 L108.360514,6.41386325 L140.571534,38.5142996 L126.459504,38.5142996 Z M147,101.986961 L147,40.3939568 C147,40.3068204 146.962534,40.235244 146.946924,40.1512196 C146.94068,40.0671952 146.928191,39.9987309 146.903214,39.9115944 C146.818916,39.5972809 146.681543,39.2985274 146.453627,39.0713503 L107.807897,0.547714668 C107.804775,0.547714668 107.798531,0.547714668 107.798531,0.544602653 C107.57686,0.326761592 107.283379,0.189832925 106.968044,0.0995844851 C106.880624,0.0746883638 106.802571,0.0622403032 106.712029,0.0497922426 C106.62461,0.0373441819 106.559045,0 106.47787,0 L12.8826446,0 C11.8429752,0 11,0.843356108 11,1.88276917 L11,14.2903736 L11,177.120343 C11,178.153532 11.8429752,179 12.8826446,179 L131.598531,179 L145.117355,179 C146.157025,179 147,178.153532 147,177.120343 L147,132.046837 C147,131.013648 146.157025,130.16718 145.117355,130.16718 C144.080808,130.16718 143.231589,131.013648 143.231589,132.046837 L143.231589,175.243798 L131.598531,175.243798 L14.7684114,175.243798 L14.7684114,14.2903736 L14.7684114,3.7562023 L104.592103,3.7562023 L104.592103,16.7208575 L104.592103,40.3939568 C104.592103,41.4302578 105.441322,42.2705019 106.47787,42.2705019 L130.227916,42.2705019 L143.231589,42.2705019 L143.231589,101.986961 C143.231589,103.026374 144.080808,103.866618 145.117355,103.866618 C146.157025,103.866618 147,103.026374 147,101.986961 Z" id="Fill-5" fill="#00B388"></path>
                            <path d="M78.0701535,62 L35.9298465,62 C34.8690699,62 34,61.3264292 34,60.4987572 C34,59.6710853 34.8690699,59 35.9298465,59 L78.0701535,59 C79.1309301,59 80,59.6710853 80,60.4987572 C80,61.3264292 79.1309301,62 78.0701535,62" id="Fill-7" fill="#00B388"></path>
                            <path d="M123.124224,94 L37.8757764,94 C36.8447205,94 36,93.3264292 36,92.4987572 C36,91.6710853 36.8447205,91 37.8757764,91 L123.124224,91 C124.158385,91 125,91.6710853 125,92.4987572 C125,93.3264292 124.158385,94 123.124224,94" id="Fill-9" fill="#00B388"></path>
                            <path d="M123.124224,129 L37.8757764,129 C36.8447205,129 36,128.326429 36,127.498757 C36,126.671085 36.8447205,126 37.8757764,126 L123.124224,126 C124.158385,126 125,126.671085 125,127.498757 C125,128.326429 124.158385,129 123.124224,129" id="Fill-11" fill="#00B388"></path>
                        </g>
                    </g>
                </g>
            </g>
        </g>
    </g>
</svg>